<?xml version="1.0" standalone="no"?>
<!DOCTYPE svg PUBLIC "-//W3C//DTD SVG 1.1//EN" "http://www.w3.org/Graphics/SVG/1.1/DTD/svg11.dtd" >
<svg xmlns="http://www.w3.org/2000/svg" xmlns:xlink="http://www.w3.org/1999/xlink" version="1.1">
<metadata>
Created by FontForge 20170910 at Fri Dec 22 16:04:19 2017
 By Jimmy Wärting
Modern and elegant sans serif font family.
</metadata>
<defs>
<font id="Mont-Regular" horiz-adv-x="0" >
  <font-face 
    font-family="Mont"
    font-weight="600"
    font-stretch="normal"
    units-per-em="1000"
    panose-1="0 0 7 0 0 0 0 0 0 0"
    ascent="800"
    descent="-200"
    x-height="539.999"
    cap-height="700"
    bbox="-800 -301.13 1161.66 989.261"
    underline-thickness="50"
    underline-position="-100"
    stemh="80"
    stemv="87"
    unicode-range="U+0020-25CA"
  />
<missing-glyph horiz-adv-x="463" 
d="M379.44 732.74v-925.48h-293.37v925.48h293.37zM308.181 670.729h-152.7v-30.54h60.1504v-34.25h-61.0801v-30.54h153.63v30.54h-61.0801v34.25h61.0801v30.54zM247.101 551.34h-92.5498v-96.25h153.63v31.4697h-61.0801v64.7803zM215.631 519.88v-33.3203h-30.54
v33.3203h30.54zM308.181 430.1h-153.63v-30.54h61.0801v-34.2402h-61.0801v-30.54h92.5498v64.7803h61.0801v30.54zM308.181 374.58h-30.54v-61.0898h-123.09v-31.46h153.63v92.5498zM308.181 261.67h-92.5498v-51.8301h31.4697v21.29h30.54v-43.5h-92.5498v74.04h-30.54
v-104.58h153.63v104.58zM308.181 101.56h-153.63v-104.58h153.63v104.58zM277.641 71.0195v-43.5h-92.5498v43.5h92.5498zM308.181 -24.3008h-153.63v-30.54h64.79l-64.79 -43.5v-30.54h153.63v30.54h-94.4004l64.79 43.5h29.6104v30.54z" />
    <glyph glyph-name="f_f.liga" unicode="ff" horiz-adv-x="737" 
d="M723.57 536.35l0.000976562 -71.3203h-165.5v-465.03h-85v465.03h-264.11v-465.03h-85v465.03h-106.4v71.3203h106.4v43.8203c0 115.31 52.3896 172.18 173.17 172.18h76.4199v-68.5801h-60.9004c-76.46 0 -106.43 -29.0498 -106.43 -105.42v-42h266.85v43.8203
c0 115.31 52.3896 172.18 173.18 172.18h76.4102v-68.5801h-60.9004c-76.46 0 -106.43 -29.0498 -106.43 -105.42v-42h168.24z" />
    <glyph glyph-name="f_f_t.liga" unicode="fft" horiz-adv-x="1093" 
d="M1001.41 78.6104l65.3496 0.000976562v-78.6104h-75.3896c-115.99 0 -187.58 72.5996 -187.58 188.76v276.27h-245.72v-465.03h-85v465.03h-264.11v-465.03h-85v465.03h-106.4v71.3203h106.4v43.8203c0 115.31 52.3896 172.18 173.17 172.18h76.4199v-68.5801h-60.9004
c-76.46 0 -106.43 -29.0498 -106.43 -105.42v-42h266.85v43.8203c0 115.31 52.3896 172.18 173.18 172.18h66.1504v-68.5801h-50.6396c-76.46 0 -106.43 -29.0498 -106.43 -105.42v-42h248.46v159.09h84.9902v-159.09h175.72v-71.3203h-175.72v-271.71
c0 -72.6602 40.0596 -114.71 112.63 -114.71z" />
    <glyph glyph-name="f_t.liga" unicode="ft" horiz-adv-x="764" 
d="M672.56 78.6104h65.3506v-78.6104h-75.3896c-115.98 -0 -187.58 71.5996 -187.58 187.67v277.36h-265.98v-465.03h-85v465.03h-106.4v71.3203h106.4v43.8203c0 115.31 52.3896 172.18 173.17 172.18h76.4199v-68.5801h-60.9004
c-76.46 0 -106.43 -29.0498 -106.43 -105.42v-42h268.72v159.09h85v-159.09h175.79v-71.3203h-175.79v-272.79c0 -72.5801 40.04 -113.63 112.62 -113.63z" />
    <glyph glyph-name="f_t_t.liga" unicode="ftt" horiz-adv-x="1132" 
d="M1038.64 78.6104h65.3398v-78.6104h-76.29c-115.08 -0 -186.68 71.5996 -186.68 187.67v277.36h-287.85v-272.79c0 -72.5801 40.0498 -113.63 112.62 -113.63h65.3496v-78.6104h-75.3799c-115.99 -0 -187.59 71.5996 -187.59 187.67v277.36h-259.2v-465.03h-85v465.03
h-106.4v71.3203h106.4v52.9502c0 115.31 52.3896 172.17 173.17 172.17h76.4199v-68.5703h-60.9004c-76.46 0 -106.43 -29.0498 -106.43 -105.43v-51.1201h261.94v159.09h85v-159.09h287.85v159.09h85v-159.09h176.97v-71.3203h-176.97v-272.79
c0 -72.5801 40.0498 -113.63 112.63 -113.63z" />
    <glyph glyph-name="r_f.liga" unicode="rf" horiz-adv-x="789" 
d="M776.23 540v-73.1396h-165.5v-466.86h-85v466.86h-106.4v73.1396h106.4v40.1699c0 115.31 52.3896 172.18 173.18 172.18h76.4102v-68.5801h-60.9004c-76.46 0 -106.42 -29.0498 -106.42 -105.42v-38.3496h168.23zM160.211 455.58
c38.2197 54.8896 94.7188 84.501 172.209 84.501h47.8301v-78.6104h-55.1299c-98.8301 -1.82031 -154.46 -65.8906 -154.46 -168.99v-292.48h-85v540h60.3604z" />
    <glyph glyph-name="r_t.liga" unicode="rt" horiz-adv-x="808" 
d="M716.13 78.4404h65.3496v-79.5303h-75.3799c-115.08 0 -187.59 72.5996 -187.59 188.76v277.36h-113.09v73.1396h113.09v157.27h85v-157.27h174.8v-73.1396h-174.8v-272.79c0 -72.6699 40.96 -113.8 112.62 -113.8zM160.229 455.45
c38.2305 54.9004 94.749 84.5498 172.189 84.5498h33.9199v-78.6201h-41.2197c-98.9199 0 -154.46 -63.9697 -154.46 -168.979v-292.4h-85v540h60.3604z" />
    <glyph glyph-name="s_t.liga" unicode="st" horiz-adv-x="924" 
d="M817.41 78.6104l59 -0.000976562v-78.6104h-69.9502c-115.99 0 -187.59 71.6904 -187.59 188.761v274.45h-95.04v15.21l166.74 175.9h13.2998v-114.32h169.36v-76.79h-169.36v-271.71c0 -72.6699 40.0498 -112.89 113.54 -112.89zM267.42 319.289
c93.1797 -15.0898 202.841 -32.3496 202.841 -164.689c0 -100.95 -85.4805 -166.431 -213.69 -166.431c-128.12 0 -211.16 68.7803 -215.69 177.38h83.1797c4.51953 -64.1904 59.75 -98.7705 135.25 -98.7705c73.8496 0 126.85 31.2803 126.85 84.1699
c0 63.0195 -66.7998 75.5498 -139.899 87.8994c-92.1699 16 -195.3 34.7305 -195.3 156.631c0 93.04 81.4805 156.34 203.431 156.34c122.03 0 200.33 -65.04 203.6 -166.9h-80.4404c-3.25977 58.3604 -49.0996 91.0303 -124.989 91.0303
c-73.0596 0 -119.34 -30.9297 -119.34 -77.7295c0 -57.1504 62.0996 -67.5 134.199 -78.9297z" />
    <glyph glyph-name="t_f.liga" unicode="tf" horiz-adv-x="732" 
d="M719.47 536.35l-0.000976562 -71.3203h-165.5v-465.03h-85v465.03h-277.58v-273.53c0 -72.6699 40.0498 -112.89 113.53 -112.89h59.9102v-78.6104h-70.8604c-115.98 0 -187.58 71.6904 -187.58 188.761v276.27h-94.3896v11.5703l167.91 177.98h11.4805v-118.23h277.58
v53.8203c0 115.31 52.3896 172.18 173.18 172.18h76.4102v-68.5801h-60.9004c-76.46 0 -106.43 -29.0498 -106.43 -105.42v-52h168.24z" />
    <glyph glyph-name=".notdef" horiz-adv-x="463" 
d="M379.44 732.74v-925.48h-293.37v925.48h293.37zM308.181 670.729h-152.7v-30.54h60.1504v-34.25h-61.0801v-30.54h153.63v30.54h-61.0801v34.25h61.0801v30.54zM247.101 551.34h-92.5498v-96.25h153.63v31.4697h-61.0801v64.7803zM215.631 519.88v-33.3203h-30.54
v33.3203h30.54zM308.181 430.1h-153.63v-30.54h61.0801v-34.2402h-61.0801v-30.54h92.5498v64.7803h61.0801v30.54zM308.181 374.58h-30.54v-61.0898h-123.09v-31.46h153.63v92.5498zM308.181 261.67h-92.5498v-51.8301h31.4697v21.29h30.54v-43.5h-92.5498v74.04h-30.54
v-104.58h153.63v104.58zM308.181 101.56h-153.63v-104.58h153.63v104.58zM277.641 71.0195v-43.5h-92.5498v43.5h92.5498zM308.181 -24.3008h-153.63v-30.54h64.79l-64.79 -43.5v-30.54h153.63v30.54h-94.4004l64.79 43.5h29.6104v30.54z" />
    <glyph glyph-name="A" unicode="A" horiz-adv-x="697" 
d="M584.64 0l-69.4609 167.63h-336.4l-68.4297 -167.63h-93.2998l286.4 700h81.9102l294.4 -700h-95.1201zM345.648 579.17l-134.14 -331.1h270.68z" />
    <glyph glyph-name="Aacute" unicode="&#xc1;" horiz-adv-x="697" 
d="M467.45 920.52l-96.5605 -142h-66.9297l72.8398 142h90.6504zM584.64 -0l-69.4609 167.63h-336.4l-68.4297 -167.63h-93.2998l286.4 700h81.9102l294.4 -700h-95.1201zM345.648 579.17l-134.14 -331.1h270.68z" />
    <glyph glyph-name="Abreve" unicode="&#x102;" horiz-adv-x="697" 
d="M346.69 773.26c-93.04 0 -155.341 55.7402 -155.341 147.26h66.75v-2.82031c0 -56.1504 35.4805 -86.8105 88.5908 -86.8105c53.1797 0 86.7598 30.6602 86.7598 86.8105v2.82031h68.5703c0 -91.5195 -62.2998 -147.26 -155.33 -147.26zM584.64 -0l-69.4609 167.63
h-336.4l-68.4297 -167.63h-93.2998l286.4 700h81.9102l294.4 -700h-95.1201zM345.648 579.17l-134.14 -331.1h270.68z" />
    <glyph glyph-name="Acircumflex" unicode="&#xc2;" horiz-adv-x="697" 
d="M345.6 872.59l-91.0986 -94.0703h-75.2305l118.35 142h97.1299l118.44 -142h-75.2305zM584.641 -0l-69.4609 167.63h-336.4l-68.4297 -167.63h-93.2998l286.4 700h81.9102l294.4 -700h-95.1201zM345.649 579.17l-134.14 -331.1h270.68z" />
    <glyph glyph-name="Adieresis" unicode="&#xc4;" horiz-adv-x="697" 
d="M188.89 788.03v97.4902h97.5195v-97.4902h-97.5195zM406.05 788.03v97.4902h97.5195v-97.4902h-97.5195zM584.64 0.0107422l-69.4512 167.64h-336.41l-68.4297 -167.64h-93.2998l286.4 700h81.9102l294.4 -700h-95.1201zM345.648 579.19l-134.14 -331.1h270.68z" />
    <glyph glyph-name="Agrave" unicode="&#xc0;" horiz-adv-x="697" 
d="M316.57 778.52l-96.5605 142h90.6504l72.8398 -142h-66.9297zM584.64 -0l-69.4609 167.63h-336.4l-68.4297 -167.63h-93.2998l286.4 700h81.9102l294.4 -700h-95.1201zM345.648 579.17l-134.14 -331.1h270.68z" />
    <glyph glyph-name="Amacron" unicode="&#x100;" horiz-adv-x="697" 
d="M190.77 812.74v73.2197h313v-73.2197h-313zM584.64 -0l-69.4609 167.63h-336.4l-68.4297 -167.63h-93.2998l286.4 700h81.9102l294.4 -700h-95.1201zM345.648 579.17l-134.14 -331.1h270.68z" />
    <glyph glyph-name="Aogonek" unicode="&#x104;" horiz-adv-x="697" 
d="M551.12 -108.36c0 -36.9697 28.6992 -60.6709 75.4893 -60.6709c17.7402 0 35.3906 2.91992 50.3008 9.74023v-51.3301c-22.21 -11.29 -48.1602 -16.9404 -73.1104 -16.9404c-70.2197 0 -118.52 40.6504 -118.52 100.03c0 55.7305 37.0996 108.341 93.6494 141.311
l-63.75 153.85h-336.4l-68.4297 -167.63h-93.2998l286.4 700h81.9102l290.34 -690.35l6.05957 -9.65039c-85.6396 -21.3496 -130.64 -60.0195 -130.64 -108.359zM345.649 579.169l-134.14 -331.1h270.68z" />
    <glyph glyph-name="Aring" unicode="&#xc5;" horiz-adv-x="697" 
d="M346.65 761.39c-71.8203 0 -121.88 48.1504 -121.88 114.391c0 67.1602 50.0596 113.48 121.88 113.48c70.9004 0 120.96 -46.3203 120.96 -113.48c0 -66.2402 -50.0596 -114.391 -120.96 -114.391zM346.65 812.689c38.3096 0 65.0996 25.7803 65.0996 63.0898
c0 38.2197 -26.79 63.0898 -65.0996 63.0898c-39.2305 0 -66.0205 -24.8701 -66.0205 -63.0898c0 -37.3096 26.79 -63.0898 66.0205 -63.0898zM584.641 -0.000976562l-69.4609 167.63h-336.4l-68.4297 -167.63h-93.2998l286.4 700h81.9102l294.4 -700h-95.1201z
M345.649 579.169l-134.14 -331.1h270.68z" />
    <glyph glyph-name="Atilde" unicode="&#xc3;" horiz-adv-x="697" 
d="M419.69 779.92c-48.0801 0 -75.4717 24.7793 -99.6113 48.6191c-17.5703 17.2695 -32.8301 31.0996 -52.4502 31.0996c-27.04 0 -46.6602 -24.1396 -46.6602 -64.4492v-11h-53.0596v13.7305c0 73.7803 36.3896 122.08 98.8096 122.08
c43.6904 0 66.6006 -22.1299 89.8311 -44.3096c19.1396 -19.75 36.2197 -35.4102 62.2197 -35.4102c28.0498 0 45.75 23.1396 45.75 64.46v8.99023h53.9805v-10.8203c0 -74.6904 -38.21 -122.99 -98.8096 -122.99zM584.639 -0.000976562l-69.4609 167.63h-336.4
l-68.4297 -167.63h-93.2998l286.4 700h81.9102l294.4 -700h-95.1201zM345.647 579.169l-134.14 -331.1h270.68z" />
    <glyph glyph-name="AE" unicode="&#xc6;" horiz-adv-x="896" 
d="M526.33 84.0801l319.819 -0.000976562v-84.0801h-407.55v155.41h-256.05l-92.6904 -155.41h-104.34l420.23 700h429.4v-83.1797h-308.82v-216.88h282.64v-81.3496h-282.64v-234.51zM230.52 235.849h208.08v348.87z" />
    <glyph glyph-name="AEacute" unicode="&#x1fc;" horiz-adv-x="896" 
d="M625.08 920.52l-96.5596 -142h-66.9199l72.8398 142h90.6396zM526.33 84.0791l319.819 -0.000976562v-84.0801h-407.55v155.41h-256.05l-92.6904 -155.41h-104.34l420.23 700h429.4v-83.1797h-308.82v-216.88h282.64v-81.3496h-282.64v-234.51zM230.52 235.848h208.08
v348.87z" />
    <glyph glyph-name="B" unicode="B" horiz-adv-x="645" 
d="M483.32 363.11c64.7598 -27.75 104.46 -93.9102 104.46 -170.45c0 -108.56 -91.6904 -192.649 -212.04 -192.649h-280.16v700h276.51c114.48 0 197.341 -76.7402 197.341 -178.78c0 -62.75 -33.5703 -127.15 -86.1104 -158.12zM479.87 509.38
c0 59.54 -48.1006 104.72 -109.641 104.72h-187.83v-209.71h188.44c62.1904 0 109.03 46.71 109.03 104.99zM374.789 86.8291c69.9805 0 122.521 48.8105 122.521 115.87c0 65.9697 -52.4502 115.77 -122.08 115.77h-192.83v-231.64h192.39z" />
    <glyph glyph-name="C" unicode="C" horiz-adv-x="776" 
d="M406.7 -10.9102c-208.09 0 -358.728 150.907 -358.728 360.817s150.74 361 358.74 361c161.95 0 291.72 -96.4297 331.77 -247.5h-89.6504c-37.2305 101.19 -127.33 161.591 -242.13 161.591c-156.2 0 -269.181 -114.06 -269.181 -275.079
c0 -161.03 112.89 -274.92 269.18 -274.92c117.89 0 209.17 64.4004 245.479 171.851h89.5596c-39.96 -158.25 -170 -257.76 -335.04 -257.76z" />
    <glyph glyph-name="Cacute" unicode="&#x106;" horiz-adv-x="776" 
d="M358.8 778.53l72.8389 142h90.6504l-96.5596 -142h-66.9297zM406.698 -10.9102c-208.09 0 -358.728 150.907 -358.728 360.817s150.74 361 358.74 361c161.95 0 291.72 -96.4297 331.77 -247.5h-89.6504c-37.2305 101.19 -127.33 161.591 -242.13 161.591
c-156.2 0 -269.181 -114.06 -269.181 -275.079c0 -161.03 112.89 -274.92 269.18 -274.92c117.89 0 209.17 64.4004 245.479 171.851h89.5596c-39.96 -158.25 -170 -257.76 -335.04 -257.76z" />
    <glyph glyph-name="Ccaron" unicode="&#x10c;" horiz-adv-x="776" 
d="M492.8 920.53h75.2207l-118.44 -142h-97.1201l-118.35 142h75.2197l91.0996 -94.0703zM406.7 -10.9102c-208.09 0 -358.728 150.907 -358.728 360.817s150.74 361 358.74 361c161.95 0 291.72 -96.4297 331.77 -247.5h-89.6504
c-37.2305 101.19 -127.33 161.591 -242.13 161.591c-156.2 0 -269.181 -114.06 -269.181 -275.079c0 -161.03 112.89 -274.92 269.18 -274.92c117.89 0 209.17 64.4004 245.479 171.851h89.5596c-39.96 -158.25 -170 -257.76 -335.04 -257.76z" />
    <glyph glyph-name="Ccedilla" unicode="&#xc7;" horiz-adv-x="776" 
d="M741.74 246.85c-38.2803 -151.6 -159.219 -249.282 -314.409 -257.232l-9.01953 -32.3604c54.71 -7.62988 91.6504 -44.2402 91.6504 -92.6602c0 -56.2998 -51.2998 -95.9502 -121.34 -95.9502h-67.3896v52.1504h66.4805c32.0996 0 54.5898 18.1396 54.5898 44.71
c0 25.5801 -22.5703 44.7197 -55.6699 44.7197h-26.4297l-9.2998 13.04l17.0498 67.6104c-187.78 17.5303 -319.98 162.391 -319.98 359.03c0 209.91 150.74 361 358.74 361c161.95 0 291.72 -96.4297 331.77 -247.5h-89.6504
c-37.2305 101.19 -127.33 161.591 -242.13 161.591c-156.2 0 -269.181 -114.06 -269.181 -275.079c0 -161.03 112.89 -274.92 269.18 -274.92c117.89 0 209.17 64.4004 245.479 171.851h89.5596z" />
    <glyph glyph-name="Ccircumflex" unicode="&#x108;" horiz-adv-x="776" 
d="M568.03 778.53h-75.2207l-92.3701 94.0703l-91.0996 -94.0703h-75.2197l118.35 142h97.1201zM406.71 -10.9102c-208.09 0 -358.728 150.907 -358.728 360.817s150.74 361 358.74 361c161.95 0 291.72 -96.4297 331.77 -247.5h-89.6504
c-37.2305 101.19 -127.33 161.591 -242.13 161.591c-156.2 0 -269.181 -114.06 -269.181 -275.079c0 -161.03 112.89 -274.92 269.18 -274.92c117.89 0 209.17 64.4004 245.479 171.851h89.5596c-39.96 -158.25 -170 -257.76 -335.04 -257.76z" />
    <glyph glyph-name="Cdotaccent" unicode="&#x10a;" horiz-adv-x="776" 
d="M352.76 788.03v97.4902h97.5303v-97.4902h-97.5303zM406.7 -10.8994c-208.09 0 -358.728 150.907 -358.728 360.817s150.74 361 358.74 361c161.95 0 291.72 -96.4297 331.77 -247.5h-89.6504c-37.2305 101.19 -127.33 161.591 -242.13 161.591
c-156.2 0 -269.181 -114.06 -269.181 -275.079c0 -161.03 112.89 -274.92 269.18 -274.92c117.89 0 209.17 64.4004 245.479 171.851h89.5596c-39.96 -158.25 -170 -257.76 -335.04 -257.76z" />
    <glyph glyph-name="D" unicode="D" horiz-adv-x="733" 
d="M328.98 700c206 0 355.01 -147.01 355.01 -349.92c0 -203 -149.09 -350.08 -355.01 -350.08h-233.41v700h233.41zM326.26 82.25c156.94 0 268.17 112.891 268.17 267.831c0 154.85 -111.15 267.649 -268.17 267.649h-142.94v-535.48h142.94z" />
    <glyph glyph-name="Eth" unicode="&#xd0;" horiz-adv-x="755" 
d="M351.5 700c206 0 355 -147.01 355 -349.92c0 -203 -149.09 -350.08 -355 -350.08h-233.41v313.88h-100.53v73.1396h100.53v312.98h233.41zM348.76 82.25c156.94 0 268.181 112.89 268.181 267.83c0 154.85 -111.15 267.649 -268.181 267.649h-142.94v-230.72h201.74
v-73.1396h-201.74v-231.62h142.94z" />
    <glyph glyph-name="Dcaron" unicode="&#x10e;" horiz-adv-x="733" 
d="M344.23 778.52h-97.1191l-118.35 142h75.2197l91.0996 -94.0703l92.3701 94.0703h75.2197zM328.981 700c206 0 355.01 -147.01 355.01 -349.92c0 -203 -149.09 -350.08 -355.01 -350.08h-233.41v700h233.41zM326.261 82.25c156.94 0 268.17 112.891 268.17 267.831
c0 154.85 -111.15 267.649 -268.17 267.649h-142.94v-535.48h142.94z" />
    <glyph glyph-name="Dcroat" unicode="&#x110;" horiz-adv-x="755" 
d="M351.5 700c206 0 355 -147.01 355 -349.92c0 -203 -149.09 -350.08 -355 -350.08h-233.41v313.88h-100.53v73.1396h100.53v312.98h233.41zM348.76 82.25c156.94 0 268.181 112.89 268.181 267.83c0 154.85 -111.15 267.649 -268.181 267.649h-142.94v-230.72h201.74
v-73.1396h-201.74v-231.62h142.94z" />
    <glyph glyph-name="E" unicode="E" horiz-adv-x="553" 
d="M183.31 84.0801h319.64v-84.0801h-407.38v700h396.38v-83.1797h-308.64v-216.36h282.64v-81.3496h-282.64v-235.03z" />
    <glyph glyph-name="Eacute" unicode="&#xc9;" horiz-adv-x="553" 
d="M412.85 920.52l-96.5605 -142h-66.9297l72.8398 142h90.6504zM183.309 84.0791h319.64v-84.0801h-407.38v700h396.38v-83.1797h-308.64v-216.36h282.64v-81.3496h-282.64v-235.03z" />
    <glyph glyph-name="Ebreve" unicode="&#x114;" horiz-adv-x="553" 
d="M292.08 773.26c-93.0303 0 -155.331 55.7402 -155.331 147.26h66.75v-2.82031c0 -56.1504 35.4902 -86.8105 88.5801 -86.8105c53.1904 0 86.7705 30.6602 86.7705 86.8105v2.82031h68.5703c0 -91.5195 -62.2998 -147.26 -155.34 -147.26zM183.31 84.0801h319.64
v-84.0801h-407.38v700h396.38v-83.1797h-308.64v-216.36h282.64v-81.3496h-282.64v-235.03z" />
    <glyph glyph-name="Ecaron" unicode="&#x11a;" horiz-adv-x="553" 
d="M340.15 778.52h-97.1309l-118.35 142h75.2305l91.0996 -94.0703l92.3604 94.0703h75.2197zM183.31 84.0791h319.64v-84.0801h-407.38v700h396.38v-83.1797h-308.64v-216.36h282.64v-81.3496h-282.64v-235.03z" />
    <glyph glyph-name="Ecircumflex" unicode="&#xca;" horiz-adv-x="553" 
d="M291 872.59l-91.0986 -94.0703h-75.2305l118.35 142h97.1299l118.44 -142h-75.2305zM183.312 84.0791h319.64v-84.0801h-407.38v700h396.38v-83.1797h-308.64v-216.36h282.64v-81.3496h-282.64v-235.03z" />
    <glyph glyph-name="Edieresis" unicode="&#xcb;" horiz-adv-x="553" 
d="M134.29 788.03v97.4902h97.5195v-97.4902h-97.5195zM351.45 788.03v97.4902h97.5303v-97.4902h-97.5303zM183.311 84.0908h319.64v-84.0898h-407.38v700h396.38v-83.1699h-308.64v-216.36h282.64v-81.3496h-282.64v-235.03z" />
    <glyph glyph-name="Edotaccent" unicode="&#x116;" horiz-adv-x="553" 
d="M243.32 788.02v97.4902h97.5303v-97.4902h-97.5303zM183.32 84.0801h319.64v-84.0801h-407.38v700h396.38v-83.1797h-308.64v-216.36h282.64v-81.3496h-282.64v-235.03z" />
    <glyph glyph-name="Egrave" unicode="&#xc8;" horiz-adv-x="553" 
d="M261.97 778.52l-96.5605 142h90.6504l72.8398 -142h-66.9297zM183.31 84.0791h319.64v-84.0801h-407.38v700h396.38v-83.1797h-308.64v-216.36h282.64v-81.3496h-282.64v-235.03z" />
    <glyph glyph-name="Emacron" unicode="&#x112;" horiz-adv-x="553" 
d="M136.17 812.74v73.2197h313v-73.2197h-313zM183.31 84.0801h319.64v-84.0801h-407.38v700h396.38v-83.1797h-308.64v-216.36h282.64v-81.3496h-282.64v-235.03z" />
    <glyph glyph-name="Eogonek" unicode="&#x118;" horiz-adv-x="553" 
d="M463.31 -169.03c17.7402 0 35.3896 2.91797 52.1299 9.73828v-49.5c-22.2197 -12.21 -49.0801 -18.7695 -74.9404 -18.7695c-69.2998 0 -116.689 40.6504 -116.689 100.03c0 50.1299 28.5801 97.0498 74.7598 127.53h-303v700h396.38v-83.1797h-308.64v-216.36h282.64
v-81.3496h-282.64v-235.03h319.64v-84.0801c-67.3896 -15.8799 -113.3 -60.9297 -113.3 -107.449c0 -37.8799 28.7002 -61.5801 73.6602 -61.5801z" />
    <glyph glyph-name="F" unicode="F" horiz-adv-x="523" 
d="M488.86 616.82l-305.55 -0.000976562v-231.18h279.55v-81.3496h-279.55v-304.29h-87.7402v700h393.29v-83.1797z" />
    <glyph glyph-name="G" unicode="G" horiz-adv-x="798" 
d="M378.13 347.46l375.249 -0.0107422c-4.34961 -210.51 -148 -359.109 -350.13 -359.109c-205.91 0 -355.21 152.83 -355.21 361.57c0 207.91 149.83 360.82 353.39 360.82c168.39 0 309.949 -105.65 340.859 -254.86h-90.4697c-30 101.15 -130.06 168.95 -248.56 168.95
c-154.68 0 -265.649 -114.15 -265.649 -274.91c0 -162.76 107.97 -275.649 265.649 -275.649c128.66 0 229.351 75.9697 254.581 190.029h-279.71v83.1699z" />
    <glyph glyph-name="Gbreve" unicode="&#x11e;" horiz-adv-x="798" 
d="M403.52 773.26c-93.04 0 -155.341 55.751 -155.341 147.271h66.75v-2.82031c0 -56.1504 35.4902 -86.8105 88.5898 -86.8105c53.1904 0 86.7607 30.6602 86.7607 86.8105v2.82031h68.5801c0 -91.5303 -62.2998 -147.271 -155.34 -147.271zM378.118 347.471
l375.249 -0.0107422c-4.34961 -210.51 -148 -359.109 -350.13 -359.109c-205.91 0 -355.21 152.83 -355.21 361.57c0 207.91 149.83 360.82 353.39 360.82c168.39 0 309.949 -105.65 340.859 -254.86h-90.4697c-30 101.15 -130.06 168.95 -248.56 168.95
c-154.68 0 -265.649 -114.15 -265.649 -274.91c0 -162.76 107.97 -275.649 265.649 -275.649c128.66 0 229.351 75.9697 254.581 190.029h-279.71v83.1699z" />
    <glyph glyph-name="Gcircumflex" unicode="&#x11c;" horiz-adv-x="798" 
d="M402.44 872.6l-91.1006 -94.0703h-75.2197l118.35 142h97.1201l118.44 -142h-75.2197zM378.13 347.47l375.249 -0.0107422c-4.34961 -210.51 -148 -359.109 -350.13 -359.109c-205.91 0 -355.21 152.83 -355.21 361.57c0 207.91 149.83 360.82 353.39 360.82
c168.39 0 309.949 -105.65 340.859 -254.86h-90.4697c-30 101.15 -130.06 168.95 -248.56 168.95c-154.68 0 -265.649 -114.15 -265.649 -274.91c0 -162.76 107.97 -275.649 265.649 -275.649c128.66 0 229.351 75.9697 254.581 190.029h-279.71v83.1699z" />
    <glyph glyph-name="Gdotaccent" unicode="&#x120;" horiz-adv-x="798" 
d="M452.29 885.51v-97.4902h-97.5303v97.4902h97.5303zM378.13 347.46l375.249 -0.0107422c-4.34961 -210.51 -148 -359.109 -350.13 -359.109c-205.91 0 -355.21 152.83 -355.21 361.57c0 207.91 149.83 360.82 353.39 360.82c168.39 0 309.949 -105.65 340.859 -254.86
h-90.4697c-30 101.15 -130.06 168.95 -248.56 168.95c-154.68 0 -265.649 -114.15 -265.649 -274.91c0 -162.76 107.97 -275.649 265.649 -275.649c128.66 0 229.351 75.9697 254.581 190.029h-279.71v83.1699z" />
    <glyph glyph-name="H" unicode="H" horiz-adv-x="729" 
d="M545.6 700h87.7305v-700h-87.7305v318.11h-362.29v-318.11h-87.7402v700h87.7402v-297.8h362.29v297.8z" />
    <glyph glyph-name="Hbar" unicode="&#x126;" horiz-adv-x="749" 
d="M725.47 605.58v-67.6602h-82.75v-537.92h-87.7402v319.02h-362.28v-319.02h-87.7402v537.92h-79.4902v67.6602h79.4902v94.4199h87.7402v-94.4199h362.28v94.4199h87.7402v-94.4199h82.75zM554.979 401.28v136.64h-362.28v-136.64h362.28z" />
    <glyph glyph-name="Hcircumflex" unicode="&#x124;" horiz-adv-x="729" 
d="M367.26 872.59l-91.0996 -94.0703h-75.2305l118.36 142h97.1201l118.44 -142h-75.2305zM545.601 700h87.7305v-700h-87.7305v318.11h-362.29v-318.11h-87.7402v700h87.7402v-297.8h362.29v297.8z" />
    <glyph glyph-name="I" unicode="I" horiz-adv-x="279" 
d="M95.5703 0v700h87.7402v-700h-87.7402z" />
    <glyph glyph-name="IJ" unicode="&#x132;" horiz-adv-x="828" 
d="M95.5703 0v700h87.7402v-700h-87.7402zM501.08 -11.8301c-138.6 0 -242.251 102.74 -242.251 243.86v14.04h86.8301v-10.3799c0 -93.8896 65.6299 -161.609 155.42 -161.609c86.9805 0 152.61 67.7998 152.61 161.609v464.31h86.8203v-467.97
c0 -141.12 -100.91 -243.86 -239.43 -243.86z" />
    <glyph glyph-name="Iacute" unicode="&#xcd;" horiz-adv-x="279" 
d="M97.8203 778.61l49.2295 142h87l-71.1299 -142h-65.0996zM95.5693 0v700h87.7402v-700h-87.7402z" />
    <glyph glyph-name="Ibreve" unicode="&#x12c;" horiz-adv-x="279" 
d="M139.9 773.26c-86.8701 0 -145.07 55.8203 -145.07 147.261h66.75v-2.82031c0 -56.1504 31.4004 -86.8105 78.3301 -86.8105c47 0 76.4902 30.6602 76.4902 86.8105v2.82031h68.5703c0 -91.4404 -58.21 -147.261 -145.07 -147.261zM95.5801 -0v700h87.7402v-700h-87.7402
z" />
    <glyph glyph-name="Icircumflex" unicode="&#xce;" horiz-adv-x="279" 
d="M182.57 920.52l103.18 -142h-71.5801l-75.5996 93.3203l-75.5996 -93.3203h-70.6602l103.18 142h87.0801zM95.5703 -0v700h87.7402v-700h-87.7402z" />
    <glyph glyph-name="Idieresis" unicode="&#xcf;" horiz-adv-x="279" 
d="M25.5195 788.02v97.4902h88.4004v-97.4902h-88.4004zM165.789 788.02v97.4902h88.4004v-97.4902h-88.4004zM95.5693 -0v700h87.7402v-700h-87.7402z" />
    <glyph glyph-name="Idotaccent" unicode="&#x130;" horiz-adv-x="279" 
d="M90.2197 788.02v97.4902h97.5303v-97.4902h-97.5303zM95.5693 -0v700h87.7402v-700h-87.7402z" />
    <glyph glyph-name="Igrave" unicode="&#xcc;" horiz-adv-x="279" 
d="M168.27 778.52h-67.8398l-70.1201 142h88.8203zM95.5693 -0v700h87.7402v-700h-87.7402z" />
    <glyph glyph-name="Imacron" unicode="&#x12a;" horiz-adv-x="279" 
d="M16.0303 812.8v75.1104h248.05v-75.1104h-248.05zM95.5703 0v700h87.7402v-700h-87.7402z" />
    <glyph glyph-name="Iogonek" unicode="&#x12e;" horiz-adv-x="279" 
d="M167.48 -169.03c16.8301 0 34.4785 2.91895 51.2188 9.73926v-49.5c-22.2197 -12.21 -48.1699 -18.7695 -74.9395 -18.7695c-69.2998 0 -115.77 40.6504 -115.77 100.03c0 48.25 25.3604 95.4902 67.6699 128.58v698.95h87.7402v-700
c-56.4404 -25 -90.4902 -64.5801 -90.4902 -107.45c0 -37.8799 28.7002 -61.5801 74.5703 -61.5801z" />
    <glyph glyph-name="Itilde" unicode="&#x128;" horiz-adv-x="279" 
d="M217.07 779.92c-45.9502 0 -72.5996 25.2695 -95.5098 46.8799c-17.3496 16.8701 -33.79 32.8398 -55.6602 32.8398c-23.1396 0 -40.75 -25.9697 -40.75 -64.4502v-11h-49.4199v13.7305c0 73.7803 32.5703 122.08 89.25 122.08
c46.1299 0 69.1299 -22.6201 91.1299 -45.1396c17.3496 -17.79 32.79 -34.5801 60.0498 -34.5801c24.1396 0 39.8398 24.9697 39.8398 64.46v8.99023h50.3203v-10.8203c0 -74.6904 -34.3896 -122.99 -89.25 -122.99zM95.5713 -0v700h87.7402v-700h-87.7402z" />
    <glyph glyph-name="J" unicode="J" horiz-adv-x="597" 
d="M269.86 -11.8301c-138.6 0 -242.25 102.74 -242.25 243.86v14.04h86.8301v-10.3799c0 -93.8896 65.6201 -161.609 155.42 -161.609c86.9697 0 152.6 67.7998 152.6 161.609v464.31h86.8301v-467.97c0 -141.12 -100.92 -243.86 -239.43 -243.86z" />
    <glyph glyph-name="Jcircumflex" unicode="&#x134;" horiz-adv-x="597" 
d="M506.72 920.52l103.18 -142h-71.5801l-75.5996 93.3203l-75.5996 -93.3203h-70.6602l103.17 142h87.0898zM422.459 235.689v464.31h86.8301v-467.97c0 -141.12 -100.92 -243.86 -239.43 -243.86c-138.6 0 -242.25 102.74 -242.25 243.86v14.04h86.8301v-10.3799
c0 -93.8896 65.6201 -161.609 155.42 -161.609c86.9697 0 152.6 67.7998 152.6 161.609z" />
    <glyph glyph-name="K" unicode="K" horiz-adv-x="635" 
d="M522.72 0l-246.199 320.67h-93.21v-320.67h-87.7402v700h87.7402v-297.06h92.75l224.22 297.06h111.82l-256.04 -336.67l279.39 -363.33h-112.73z" />
    <glyph glyph-name="L" unicode="L" horiz-adv-x="512" 
d="M183.31 82.2598h307.55v-82.2598h-395.29v700h87.7402v-617.74z" />
    <glyph glyph-name="Lacute" unicode="&#x139;" horiz-adv-x="512" 
d="M271.19 920.52l-96.5703 -142h-66.9199l72.8301 142h90.6602zM183.311 82.2598h307.55v-82.2598h-395.29v700h87.7402v-617.74z" />
    <glyph glyph-name="Lcaron" unicode="&#x13d;" horiz-adv-x="512" 
d="M366.92 593.81c26.5996 6.34961 41.7305 29 41.7305 59.04h-45.46v79.8799h87.9199v-73.2305c0 -51.8096 -35.46 -98.0596 -84.1904 -106.59v40.9004zM183.311 82.2598h307.55v-82.2598h-395.29v700h87.7402v-617.74z" />
    <glyph glyph-name="Ldot" unicode="&#x13f;" horiz-adv-x="516" 
d="M183.31 82.2598h307.55v-82.2598h-395.29v700h87.7402v-617.74zM427.129 398.95v-106.23h-97.5195v106.23h97.5195z" />
    <glyph glyph-name="Lslash" unicode="&#x141;" horiz-adv-x="512" 
d="M183.31 82.2598l307.55 0.000976562v-82.2598h-395.29v250.18l-85.0498 -44.0801v76.0498l85.0498 44.6797v373.17h87.7402v-327.08l213.21 112.02v-78.79l-213.21 -110.5v-213.39z" />
    <glyph glyph-name="M" unicode="M" horiz-adv-x="957" 
d="M912.11 0h-89.5615l-90.96 546.76l-241.34 -528.93h-23.5098l-241.41 528.32l-91.8096 -546.15h-89.5596l117.79 700h84.6504l231.17 -513.72l232.19 513.72h86.4697z" />
    <glyph glyph-name="N" unicode="N" horiz-adv-x="749" 
d="M567.9 700h85.9102v-700h-73.96l-398.37 546.29v-546.29h-85.9102v700h79.4404l392.89 -539.92v539.92z" />
    <glyph glyph-name="Nacute" unicode="&#x143;" horiz-adv-x="749" 
d="M501.55 920.52l-96.5703 -142h-66.9199l72.8398 142h90.6504zM567.899 700h85.9102v-700h-73.96l-398.37 546.29v-546.29h-85.9102v700h79.4404l392.89 -539.92v539.92z" />
    <glyph glyph-name="Ncaron" unicode="&#x147;" horiz-adv-x="749" 
d="M428.85 778.52h-97.1309l-118.35 142h75.2305l91.0898 -94.0703l92.3701 94.0703h75.2305zM567.898 700h85.9102v-700h-73.96l-398.37 546.29v-546.29h-85.9102v700h79.4404l392.89 -539.92v539.92z" />
    <glyph glyph-name="Eng" unicode="&#x14a;" horiz-adv-x="749" 
d="M425.7 -190v81.3496h28.3398c70.5 0 119.33 47.9199 119.33 117.51l-391.89 537.83v-546.69h-85.9102v700h79.4404l392.89 -540.65v540.65h85.9102v-681.1c0 -131.34 -76.6504 -208.899 -207.07 -208.899h-21.04z" />
    <glyph glyph-name="Ntilde" unicode="&#xd1;" horiz-adv-x="749" 
d="M255.07 795.19l-0.00195312 -11.001h-53.0596v13.7305c0 73.7803 36.3896 122.08 98.8096 122.08c43.6904 0 66.6006 -22.1299 89.8311 -44.3096c19.1396 -19.75 36.2197 -35.4102 62.2197 -35.4102c28.0498 0 45.75 23.1396 45.75 64.46v8.99023h53.9805v-10.8203
c0 -74.6904 -38.21 -122.99 -98.8096 -122.99c-48.0801 0 -75.4697 24.7803 -99.5996 48.6201c-17.5801 17.2695 -32.8398 31.0996 -52.46 31.0996c-27.04 0 -46.6602 -24.1396 -46.6602 -64.4492zM567.898 699.999h85.9102v-700h-73.96l-398.37 546.29v-546.29h-85.9102
v700h79.4404l392.89 -539.92v539.92z" />
    <glyph glyph-name="O" unicode="O" horiz-adv-x="829" 
d="M414.26 -11.8203c-211.82 0 -366.301 155 -366.301 361.74c0 206.82 154.48 361.91 366.301 361.91c211.83 0 366.3 -155 366.3 -361.91c0 -206.83 -154.47 -361.74 -366.3 -361.74zM414.26 74.0898c159.2 0 276.74 117.97 276.74 275.819
c0 157.94 -117.54 276 -276.74 276s-276.74 -119.06 -276.74 -276c0 -156.85 117.54 -275.819 276.74 -275.819z" />
    <glyph glyph-name="Oacute" unicode="&#xd3;" horiz-adv-x="829" 
d="M371.54 778.53l72.8291 142h90.6504l-96.5596 -142h-66.9199zM414.259 -11.8193c-211.82 0 -366.301 155 -366.301 361.74c0 206.82 154.48 361.91 366.301 361.91c211.83 0 366.3 -155 366.3 -361.91c0 -206.83 -154.47 -361.74 -366.3 -361.74zM414.259 74.0908
c159.2 0 276.74 117.97 276.74 275.819c0 157.94 -117.54 276 -276.74 276s-276.74 -119.06 -276.74 -276c0 -156.85 117.54 -275.819 276.74 -275.819z" />
    <glyph glyph-name="Obreve" unicode="&#x14e;" horiz-adv-x="829" 
d="M414.26 773.26c-93.04 0 -155.341 55.751 -155.341 147.271h66.75v-2.82031c0 -56.1504 35.4902 -86.8105 88.5898 -86.8105c53.1904 0 86.7607 30.6602 86.7607 86.8105v2.82031h68.5801c0 -91.5303 -62.2998 -147.271 -155.34 -147.271zM414.259 -11.8193
c-211.82 0 -366.301 155 -366.301 361.74c0 206.82 154.48 361.91 366.301 361.91c211.83 0 366.3 -155 366.3 -361.91c0 -206.83 -154.47 -361.74 -366.3 -361.74zM414.259 74.0908c159.2 0 276.74 117.97 276.74 275.819c0 157.94 -117.54 276 -276.74 276
s-276.74 -119.06 -276.74 -276c0 -156.85 117.54 -275.819 276.74 -275.819z" />
    <glyph glyph-name="Ocircumflex" unicode="&#xd4;" horiz-adv-x="829" 
d="M580.76 778.53h-75.2207l-92.3701 94.0703l-91.0996 -94.0703h-75.2197l118.35 142h97.1201zM414.259 -11.8193c-211.82 0 -366.301 155 -366.301 361.74c0 206.82 154.48 361.91 366.301 361.91c211.83 0 366.3 -155 366.3 -361.91
c0 -206.83 -154.47 -361.74 -366.3 -361.74zM414.259 74.0908c159.2 0 276.74 117.97 276.74 275.819c0 157.94 -117.54 276 -276.74 276s-276.74 -119.06 -276.74 -276c0 -156.85 117.54 -275.819 276.74 -275.819z" />
    <glyph glyph-name="Odieresis" unicode="&#xd6;" horiz-adv-x="829" 
d="M256.46 788.03v97.4902h97.5303v-97.4902h-97.5303zM473.62 788.03v97.4902h97.5195v-97.4902h-97.5195zM414.26 -11.8193c-211.82 0 -366.301 155 -366.301 361.74c0 206.82 154.48 361.91 366.301 361.91c211.83 0 366.3 -155 366.3 -361.91
c0 -206.83 -154.47 -361.74 -366.3 -361.74zM414.26 74.0908c159.2 0 276.74 117.97 276.74 275.819c0 157.94 -117.54 276 -276.74 276s-276.74 -119.06 -276.74 -276c0 -156.85 117.54 -275.819 276.74 -275.819z" />
    <glyph glyph-name="Ograve" unicode="&#xd2;" horiz-adv-x="829" 
d="M384.15 778.53l-96.5605 142h90.6504l72.8398 -142h-66.9297zM414.26 -11.8193c-211.82 0 -366.301 155 -366.301 361.74c0 206.82 154.48 361.91 366.301 361.91c211.83 0 366.3 -155 366.3 -361.91c0 -206.83 -154.47 -361.74 -366.3 -361.74zM414.26 74.0908
c159.2 0 276.74 117.97 276.74 275.819c0 157.94 -117.54 276 -276.74 276s-276.74 -119.06 -276.74 -276c0 -156.85 117.54 -275.819 276.74 -275.819z" />
    <glyph glyph-name="Ohungarumlaut" unicode="&#x150;" horiz-adv-x="829" 
d="M288.68 778.53l62.8389 142h80.6104l-80.1797 -142h-63.2695zM454.759 778.53l81.0908 142h84.2598l-101.16 -142h-64.1904zM414.27 -11.8193c-211.82 0 -366.301 155 -366.301 361.74c0 206.82 154.48 361.91 366.301 361.91c211.83 0 366.3 -155 366.3 -361.91
c0 -206.83 -154.47 -361.74 -366.3 -361.74zM414.27 74.0908c159.2 0 276.74 117.97 276.74 275.819c0 157.94 -117.54 276 -276.74 276s-276.74 -119.06 -276.74 -276c0 -156.85 117.54 -275.819 276.74 -275.819z" />
    <glyph glyph-name="Omacron" unicode="&#x14c;" horiz-adv-x="829" 
d="M258.35 812.75v73.21h313v-73.21h-313zM414.26 -11.8203c-211.82 0 -366.301 155 -366.301 361.74c0 206.82 154.48 361.91 366.301 361.91c211.83 0 366.3 -155 366.3 -361.91c0 -206.83 -154.47 -361.74 -366.3 -361.74zM414.26 74.0898
c159.2 0 276.74 117.97 276.74 275.819c0 157.94 -117.54 276 -276.74 276s-276.74 -119.06 -276.74 -276c0 -156.85 117.54 -275.819 276.74 -275.819z" />
    <glyph glyph-name="Oslash" unicode="&#xd8;" horiz-adv-x="835" 
d="M641.71 639.09c89.0801 -63.75 145.238 -168.252 145.238 -290.182c0 -204.82 -155.65 -357.74 -365.131 -357.74c-54.8096 0 -105.34 10.4805 -151.06 29.9209l-50 -83.0898h-95.21l73.3496 118.56c-93.2998 63.1104 -151.85 168.971 -151.85 292.521
c0 205.74 156.73 360.66 366.211 360.66c56.9004 0 110.061 -11.8701 156.961 -33.1797l51.3301 85.4404h95.21zM136.608 349.998c0 -92.0303 42.0391 -171.04 108.289 -219.91l282.4 472.11c-34.54 14.0898 -73.3799 21.6201 -114.04 21.6201
c-157.76 0 -276.649 -118.88 -276.649 -273.82zM419.997 77.0781c157.76 0 276.471 115.979 276.471 271.829c0 90.1602 -38.7598 166.82 -100.49 216.101l-280.97 -469.34c31.79 -11.6396 66.5996 -18.5898 104.989 -18.5898z" />
    <glyph glyph-name="Oslashacute" unicode="&#x1fe;" horiz-adv-x="835" 
d="M536.76 920.52l-96.5605 -142h-66.9297l72.8398 142h90.6504zM641.709 639.09c89.0801 -63.75 145.238 -168.252 145.238 -290.182c0 -204.82 -155.65 -357.74 -365.131 -357.74c-54.8096 0 -105.34 10.4805 -151.06 29.9209l-50 -83.0898h-95.21l73.3496 118.56
c-93.2998 63.1104 -151.85 168.971 -151.85 292.521c0 205.74 156.73 360.66 366.211 360.66c56.9004 0 110.061 -11.8701 156.961 -33.1797l51.3301 85.4404h95.21zM136.607 349.998c0 -92.0303 42.0391 -171.04 108.289 -219.91l282.4 472.11
c-34.54 14.0898 -73.3799 21.6201 -114.04 21.6201c-157.76 0 -276.649 -118.88 -276.649 -273.82zM419.996 77.0781c157.76 0 276.471 115.979 276.471 271.829c0 90.1602 -38.7598 166.82 -100.49 216.101l-280.97 -469.34
c31.79 -11.6396 66.5996 -18.5898 104.989 -18.5898z" />
    <glyph glyph-name="Otilde" unicode="&#xd5;" horiz-adv-x="829" 
d="M487.26 779.92c-48.0801 0 -75.4912 24.7715 -99.6309 48.6113c-17.5703 17.2695 -32.8301 31.0996 -52.4404 31.0996c-27.0498 0 -46.6602 -24.1396 -46.6602 -64.4492v-11h-53.0596v13.7402c0 73.7803 36.3896 122.08 98.8096 122.08
c43.6904 0 66.6006 -22.1299 89.8311 -44.3203c19.1396 -19.75 36.2295 -35.4004 62.2295 -35.4004c28.0498 0 45.75 23.1396 45.75 64.4492v9h53.9805v-10.8203c0 -74.6904 -38.21 -122.99 -98.8096 -122.99zM414.238 -11.8389c-211.82 0 -366.301 155 -366.301 361.74
c0 206.82 154.48 361.91 366.301 361.91c211.83 0 366.3 -155 366.3 -361.91c0 -206.83 -154.47 -361.74 -366.3 -361.74zM414.238 74.0713c159.2 0 276.74 117.97 276.74 275.819c0 157.94 -117.54 276 -276.74 276s-276.74 -119.06 -276.74 -276
c0 -156.85 117.54 -275.819 276.74 -275.819z" />
    <glyph glyph-name="OE" unicode="&#x152;" horiz-adv-x="959" 
d="M583.87 82.2598h325.93v-82.2598h-414.58v0.780273c-35.3799 -8.29004 -71.5898 -12.6104 -106.92 -12.6104c-188.48 0 -340.25 154.09 -340.25 361.74c0 205 148.12 361.91 340.25 361.91c36.3701 0 72.25 -3.7998 106.92 -12.0303v0.209961h403.58v-81.3496h-314.93
v-220.5h288.93v-79.5303h-288.93v-236.36zM399.25 75c32.0801 0 64.1084 2.75977 95.9688 8.17969v532.04c-37.3496 7.08984 -68 10.6895 -98.71 10.6895c-145.89 0 -258.899 -119.06 -258.899 -276c0 -165.06 111.19 -274.909 261.641 -274.909z" />
    <glyph glyph-name="P" unicode="P" horiz-adv-x="610" 
d="M346.56 700c132.04 0 232.34 -95.2998 232.34 -224.17c0 -128.03 -99.2998 -224.25 -232.34 -224.25h-163.25v-251.58h-87.7402v700h250.99zM342 336.58c85.8799 0 147.33 59.2803 147.33 139.25c0 79.8896 -61.4502 139.17 -147.33 139.17h-158.69v-278.42h158.69z" />
    <glyph glyph-name="Thorn" unicode="&#xde;" horiz-adv-x="622" 
d="M346.56 575.16c136.6 0 232.341 -93.4707 232.341 -225.161c0 -132.6 -95.6504 -225.159 -232.341 -225.159h-163.25v-124.84h-87.7402v700h87.7402v-124.84h163.25zM342.001 208.009c85.8799 0 147.33 58.3604 147.33 141.99c0 83.6201 -61.4502 141.99 -147.33 141.99
h-158.69v-283.98h158.69z" />
    <glyph glyph-name="Q" unicode="Q" horiz-adv-x="829" 
d="M793.12 -83.4502h-107.25l-96.3701 112.03c-51.2197 -25.96 -110.56 -40.4102 -175.239 -40.4102c-211.82 0 -366.301 155 -366.301 361.74c0 206.82 154.48 361.91 366.301 361.91c211.83 0 366.3 -155 366.3 -361.91c0 -113.16 -46.2402 -210.78 -122.82 -275.99z
M414.26 74.0801c42.0703 0 81.2305 8.24023 116.08 23.2803l-163.88 190.5h107.25l126.18 -146.69c56.7402 49.6904 91.1104 123.391 91.1104 208.74c0 157.94 -117.54 276 -276.74 276s-276.74 -119.06 -276.74 -276c0 -156.85 117.54 -275.83 276.74 -275.83z" />
    <glyph glyph-name="R" unicode="R" horiz-adv-x="644" 
d="M503.37 0l-160.689 273.94h-159.37v-273.94h-87.7402v700h265.51c130.96 0 227.99 -89.21 227.99 -213.99c0 -98.4199 -62.2695 -175.25 -154.35 -201.92l167.52 -284.09h-98.8701zM183.311 616.82l0.000976562 -259.699h173.21
c85.7197 0 142.989 54.0996 142.989 129.81c0 74.8896 -57.3604 129.89 -142.99 129.89h-173.21z" />
    <glyph glyph-name="Racute" unicode="&#x154;" horiz-adv-x="644" 
d="M420.24 920.52l-96.5703 -142h-66.9199l72.8301 142h90.6602zM503.37 -0l-160.689 273.94h-159.37v-273.94h-87.7402v700h265.51c130.96 0 227.99 -89.21 227.99 -213.99c0 -98.4199 -62.2695 -175.25 -154.35 -201.92l167.52 -284.09h-98.8701zM183.311 616.82
l0.000976562 -259.699h173.21c85.7197 0 142.989 54.0996 142.989 129.81c0 74.8896 -57.3604 129.89 -142.99 129.89h-173.21z" />
    <glyph glyph-name="Rcaron" unicode="&#x158;" horiz-adv-x="644" 
d="M347.53 778.52h-97.1191l-118.35 142h75.2197l91.0996 -94.0703l92.3701 94.0703h75.2197zM503.371 -0l-160.689 273.94h-159.37v-273.94h-87.7402v700h265.51c130.96 0 227.99 -89.21 227.99 -213.99c0 -98.4199 -62.2695 -175.25 -154.35 -201.92l167.52 -284.09
h-98.8701zM183.312 616.82l0.000976562 -259.699h173.21c85.7197 0 142.989 54.0996 142.989 129.81c0 74.8896 -57.3604 129.89 -142.99 129.89h-173.21z" />
    <glyph glyph-name="S" unicode="S" horiz-adv-x="597" 
d="M304.21 -8.91992c-154.12 0 -258.341 86.7393 -258.341 224.609h89.5703c0 -87.0703 70.8301 -138.69 167.86 -138.69c87.7598 0 157.33 46.6201 157.33 120.771c0 81.8496 -83.0098 101.109 -173.85 122.379c-108.08 25.7402 -227.65 54.3906 -227.65 194.07
c0 120.86 93.3896 194.69 238.26 194.69c145.24 0 233.9 -80.5596 233.9 -207.34h-86.8301c0 77.7998 -63.4902 123.25 -148.9 123.25c-85.0303 0 -148.69 -40.5303 -148.69 -106.95c0 -76.8496 80.4502 -96.1094 170.2 -117.289
c110.09 -26.7305 234.04 -56.29 234.04 -201.89c0 -132.25 -107.51 -207.61 -246.899 -207.61z" />
    <glyph glyph-name="Sacute" unicode="&#x15a;" horiz-adv-x="597" 
d="M247.83 778.52l72.8389 142h90.6504l-96.5596 -142h-66.9297zM304.209 -8.9209c-154.12 0 -258.341 86.7393 -258.341 224.609h89.5703c0 -87.0703 70.8301 -138.69 167.86 -138.69c87.7598 0 157.33 46.6201 157.33 120.771c0 81.8496 -83.0098 101.109 -173.85 122.379
c-108.08 25.7402 -227.65 54.3906 -227.65 194.07c0 120.86 93.3896 194.69 238.26 194.69c145.24 0 233.9 -80.5596 233.9 -207.34h-86.8301c0 77.7998 -63.4902 123.25 -148.9 123.25c-85.0303 0 -148.69 -40.5303 -148.69 -106.95
c0 -76.8496 80.4502 -96.1094 170.2 -117.289c110.09 -26.7305 234.04 -56.29 234.04 -201.89c0 -132.25 -107.51 -207.61 -246.899 -207.61z" />
    <glyph glyph-name="Scaron" unicode="&#x160;" horiz-adv-x="597" 
d="M381.83 920.52h75.2305l-118.44 -142h-97.1201l-118.35 142h75.2197l91.0996 -94.0703zM304.211 -8.9209c-154.12 0 -258.341 86.7393 -258.341 224.609h89.5703c0 -87.0703 70.8301 -138.69 167.86 -138.69c87.7598 0 157.33 46.6201 157.33 120.771
c0 81.8496 -83.0098 101.109 -173.85 122.379c-108.08 25.7402 -227.65 54.3906 -227.65 194.07c0 120.86 93.3896 194.69 238.26 194.69c145.24 0 233.9 -80.5596 233.9 -207.34h-86.8301c0 77.7998 -63.4902 123.25 -148.9 123.25
c-85.0303 0 -148.69 -40.5303 -148.69 -106.95c0 -76.8496 80.4502 -96.1094 170.2 -117.289c110.09 -26.7305 234.04 -56.29 234.04 -201.89c0 -132.25 -107.51 -207.61 -246.899 -207.61z" />
    <glyph glyph-name="Scedilla" unicode="&#x15e;" horiz-adv-x="597" 
d="M551.11 198.69c0 -123.3 -93.4414 -197.132 -219.041 -206.562l-10.9902 -39.4297c54.7002 -7.62988 91.6406 -44.2402 91.6406 -92.6504c0 -56.2998 -51.2998 -95.96 -121.34 -95.96h-67.3799v52.1504h66.4697c32.0996 0 54.5898 18.1299 54.5898 44.71
c0 25.5703 -22.5801 44.71 -55.6797 44.71h-26.4199l-9.2998 13.04l18.5801 73.6797c-136.39 11.2402 -226.37 95.2002 -226.37 223.311h89.5703c0 -87.0703 70.8301 -138.69 167.86 -138.69c87.7598 0 157.33 46.6201 157.33 120.771
c0 81.8496 -83.0098 101.109 -173.85 122.379c-108.08 25.7402 -227.65 54.3906 -227.65 194.07c0 120.86 93.3896 194.69 238.26 194.69c145.24 0 233.9 -80.5596 233.9 -207.34h-86.8301c0 77.7998 -63.4902 123.25 -148.9 123.25
c-85.0303 0 -148.69 -40.5303 -148.69 -106.95c0 -76.8496 80.4502 -96.1094 170.2 -117.289c110.09 -26.7305 234.04 -56.29 234.04 -201.89z" />
    <glyph glyph-name="Scircumflex" unicode="&#x15c;" horiz-adv-x="597" 
d="M457.06 778.52h-75.2305l-92.3604 94.0703l-91.0996 -94.0703h-75.2197l118.35 142h97.1201zM304.209 -8.9209c-154.12 0 -258.341 86.7393 -258.341 224.609h89.5703c0 -87.0703 70.8301 -138.69 167.86 -138.69c87.7598 0 157.33 46.6201 157.33 120.771
c0 81.8496 -83.0098 101.109 -173.85 122.379c-108.08 25.7402 -227.65 54.3906 -227.65 194.07c0 120.86 93.3896 194.69 238.26 194.69c145.24 0 233.9 -80.5596 233.9 -207.34h-86.8301c0 77.7998 -63.4902 123.25 -148.9 123.25
c-85.0303 0 -148.69 -40.5303 -148.69 -106.95c0 -76.8496 80.4502 -96.1094 170.2 -117.289c110.09 -26.7305 234.04 -56.29 234.04 -201.89c0 -132.25 -107.51 -207.61 -246.899 -207.61z" />
    <glyph glyph-name="uni1E9E" unicode="&#x1e9e;" horiz-adv-x="688" 
d="M450.45 447.63c117.99 -14.8301 192.03 -94.999 192.03 -216.599c0 -134.38 -97.6504 -231.03 -255.12 -231.03h-92.4805v85h92.4805c99.0195 0 165.56 60.1904 165.56 146.03c0 86.4199 -66.4502 146.34 -165.3 146.34h-67.6602v18.04l127.33 220.5h-115.68
c-101.11 0 -155.48 -53.3604 -155.48 -154.471v-461.44h-87.7305v470.56c0 142.7 86.7402 229.44 229.521 229.44h268.3v-16.21z" />
    <glyph glyph-name="T" unicode="T" horiz-adv-x="556" 
d="M534.85 700v-82.2598h-213.02v-617.74h-87.7305v617.74h-213.02v82.2598h513.77z" />
    <glyph glyph-name="Tbar" unicode="&#x166;" horiz-adv-x="556" 
d="M534.85 617.74h-213.02v-223.46h151.59v-76.7803h-151.59v-317.5h-87.7305v317.5h-150.68v76.7803h150.68v223.46h-213.02v82.2598h513.77v-82.2598z" />
    <glyph glyph-name="Tcaron" unicode="&#x164;" horiz-adv-x="556" 
d="M326.48 778.52h-97.1191l-118.35 142h75.2197l91.0996 -94.0703l92.3701 94.0703h75.2197zM534.852 700v-82.2598h-213.02v-617.74h-87.7305v617.74h-213.02v82.2598h513.77z" />
    <glyph glyph-name="U" unicode="U" horiz-adv-x="724" 
d="M362.65 -11.6504c-158.13 0 -275.252 112.82 -275.252 272.301v439.35h88.6504v-432.97c0 -115.06 77.3604 -192.77 186.601 -192.77c108.32 0 185.681 77.71 185.681 192.77v432.97h88.6504v-439.35c0 -159.48 -117.12 -272.301 -274.33 -272.301z" />
    <glyph glyph-name="Uacute" unicode="&#xda;" horiz-adv-x="724" 
d="M319.92 778.52l72.8389 142h90.6504l-96.5596 -142h-66.9297zM362.648 -11.6504c-158.13 0 -275.252 112.82 -275.252 272.301v439.35h88.6504v-432.97c0 -115.06 77.3604 -192.77 186.601 -192.77c108.32 0 185.681 77.71 185.681 192.77v432.97h88.6504v-439.35
c0 -159.48 -117.12 -272.301 -274.33 -272.301z" />
    <glyph glyph-name="Ubreve" unicode="&#x16c;" horiz-adv-x="724" 
d="M362.65 773.26c-93.04 0 -155.341 55.7402 -155.341 147.26h66.75v-2.82031c0 -56.1504 35.4902 -86.8105 88.5898 -86.8105c53.1904 0 86.7607 30.6602 86.7607 86.8105v2.82031h68.5801c0 -91.5195 -62.2998 -147.26 -155.34 -147.26zM362.649 -11.6504
c-158.13 0 -275.252 112.82 -275.252 272.301v439.35h88.6504v-432.97c0 -115.06 77.3604 -192.77 186.601 -192.77c108.32 0 185.681 77.71 185.681 192.77v432.97h88.6504v-439.35c0 -159.48 -117.12 -272.301 -274.33 -272.301z" />
    <glyph glyph-name="Ucircumflex" unicode="&#xdb;" horiz-adv-x="724" 
d="M529.15 778.52h-75.2305l-92.3604 94.0703l-91.0996 -94.0703h-75.2305l118.36 142h97.1201zM362.65 -11.6504c-158.13 0 -275.252 112.82 -275.252 272.301v439.35h88.6504v-432.97c0 -115.06 77.3604 -192.77 186.601 -192.77c108.32 0 185.681 77.71 185.681 192.77
v432.97h88.6504v-439.35c0 -159.48 -117.12 -272.301 -274.33 -272.301z" />
    <glyph glyph-name="Udieresis" unicode="&#xdc;" horiz-adv-x="724" 
d="M204.85 788.03v97.4902h97.5303v-97.4902h-97.5303zM422.01 788.03v97.4902h97.5303v-97.4902h-97.5303zM362.649 -11.6396c-158.13 0 -275.252 112.83 -275.252 272.3v439.35h88.6504v-432.96c0 -115.06 77.3604 -192.77 186.601 -192.77
c108.33 0 185.69 77.71 185.69 192.77v432.96h88.6504v-439.35c0 -159.47 -117.13 -272.3 -274.34 -272.3z" />
    <glyph glyph-name="Ugrave" unicode="&#xd9;" horiz-adv-x="724" 
d="M332.54 778.52l-96.5703 142h90.6504l72.8398 -142h-66.9199zM362.649 -11.6504c-158.13 0 -275.252 112.82 -275.252 272.301v439.35h88.6504v-432.97c0 -115.06 77.3604 -192.77 186.601 -192.77c108.32 0 185.681 77.71 185.681 192.77v432.97h88.6504v-439.35
c0 -159.48 -117.12 -272.301 -274.33 -272.301z" />
    <glyph glyph-name="Uhungarumlaut" unicode="&#x170;" horiz-adv-x="724" 
d="M237.06 778.52l62.8389 142h80.6104l-80.1797 -142h-63.2695zM403.129 778.52l81.0908 142h84.2598l-101.16 -142h-64.1904zM362.649 -11.6504c-158.13 0 -275.252 112.82 -275.252 272.301v439.35h88.6504v-432.97c0 -115.06 77.3604 -192.77 186.601 -192.77
c108.32 0 185.681 77.71 185.681 192.77v432.97h88.6504v-439.35c0 -159.48 -117.12 -272.301 -274.33 -272.301z" />
    <glyph glyph-name="Umacron" unicode="&#x16a;" horiz-adv-x="724" 
d="M206.74 812.74v73.2197h312.99v-73.2197h-312.99zM362.65 -11.6504c-158.13 0 -275.252 112.82 -275.252 272.301v439.35h88.6504v-432.97c0 -115.06 77.3604 -192.77 186.601 -192.77c108.32 0 185.681 77.71 185.681 192.77v432.97h88.6504v-439.35
c0 -159.48 -117.12 -272.301 -274.33 -272.301z" />
    <glyph glyph-name="Uogonek" unicode="&#x172;" horiz-adv-x="723" 
d="M548.33 700h87.7383v-437.53c0 -140.95 -84.2998 -216.05 -178.13 -255.17c-53.7002 -22.3896 -95.9697 -67.3193 -95.9697 -113.839c0 -40.6104 32.3496 -63.4004 76.3994 -63.4004c16.8301 0 33.5703 3.83008 49.3906 10.6504v-50.4102
c-24.04 -12.21 -51.8096 -17.8604 -77.6797 -17.8604c-67.4697 0 -121.25 37.9102 -121.25 101.86c0 38 20.0898 84.1299 54.46 116.229c-148.74 7.87012 -255.891 118.39 -255.891 271.939v437.53h87.7305v-433.88c0 -113.24 77.3701 -189.12 186.61 -189.12
c109.23 0 186.591 75.8799 186.591 189.12v433.88z" />
    <glyph glyph-name="Uring" unicode="&#x16e;" horiz-adv-x="724" 
d="M362.61 761.39c-71.8096 0 -121.88 48.1504 -121.88 114.391c0 67.1602 50.0703 113.48 121.88 113.48c70.9004 0 120.96 -46.3203 120.96 -113.48c0 -66.2402 -50.0596 -114.391 -120.96 -114.391zM362.61 812.689c38.3096 0 65.0996 25.7803 65.0996 63.0898
c0 38.2197 -26.79 63.0898 -65.0996 63.0898c-39.2305 0 -66.0205 -24.8701 -66.0205 -63.0898c0 -37.3096 26.79 -63.0898 66.0205 -63.0898zM362.65 -11.6504c-158.13 0 -275.252 112.82 -275.252 272.301v439.35h88.6504v-432.97
c0 -115.06 77.3604 -192.77 186.601 -192.77c108.32 0 185.681 77.71 185.681 192.77v432.97h88.6504v-439.35c0 -159.48 -117.12 -272.301 -274.33 -272.301z" />
    <glyph glyph-name="Utilde" unicode="&#x168;" horiz-adv-x="724" 
d="M435.65 779.92c-48.0801 0 -75.459 24.7793 -99.5986 48.6191c-17.5801 17.2695 -32.8398 31.0996 -52.4502 31.0996c-27.0498 0 -46.6602 -24.1396 -46.6602 -64.4492v-11h-53.0703v13.7305c0 73.7803 36.3896 122.08 98.8193 122.08
c43.6797 0 66.5996 -22.1299 89.8193 -44.3096c19.1396 -19.75 36.2197 -35.4102 62.2197 -35.4102c28.0596 0 45.75 23.1396 45.75 64.46v8.99023h53.9805v-10.8203c0 -74.6904 -38.21 -122.99 -98.8096 -122.99zM362.651 -11.6514
c-158.13 0 -275.252 112.82 -275.252 272.301v439.35h88.6504v-432.97c0 -115.06 77.3604 -192.77 186.601 -192.77c108.32 0 185.681 77.71 185.681 192.77v432.97h88.6504v-439.35c0 -159.48 -117.12 -272.301 -274.33 -272.301z" />
    <glyph glyph-name="V" unicode="V" horiz-adv-x="682" 
d="M564.55 700h96.0303l-278.13 -700h-81l-283.4 700h96.9502l226.89 -568.23z" />
    <glyph glyph-name="W" unicode="W" horiz-adv-x="1027" 
d="M910.81 700h92.3896l-220.53 -700h-77.3496l-192.45 497.77l-187.95 -497.77h-77.3496l-225.52 700h93.2998l174.18 -556.14l204.91 542.47h35.54l210.59 -543z" />
    <glyph glyph-name="Wacute" unicode="&#x1e82;" horiz-adv-x="1027" 
d="M632.97 920.52l-96.5605 -142h-66.9297l72.8398 142h90.6504zM910.81 700h92.3896l-220.53 -700h-77.3496l-192.45 497.77l-187.95 -497.77h-77.3496l-225.52 700h93.2998l174.18 -556.14l204.91 542.47h35.54l210.59 -543z" />
    <glyph glyph-name="Wcircumflex" unicode="&#x174;" horiz-adv-x="1027" 
d="M511.12 872.59l-91.0996 -94.0703h-75.2197l118.35 142h97.1201l118.44 -142h-75.2305zM910.811 700h92.3896l-220.53 -700h-77.3496l-192.45 497.77l-187.95 -497.77h-77.3496l-225.52 700h93.2998l174.18 -556.14l204.91 542.47h35.54l210.59 -543z" />
    <glyph glyph-name="Wdieresis" unicode="&#x1e84;" horiz-adv-x="1027" 
d="M354.41 788.03v97.4902h97.5195v-97.4902h-97.5195zM571.57 788.03v97.4902h97.5195v-97.4902h-97.5195zM910.811 700.011l92.3887 -0.000976562l-220.53 -700h-77.3496l-192.46 497.78l-187.94 -497.78h-77.3496l-225.52 700h93.2998l174.19 -556.14l204.9 542.48
h35.5498l210.58 -543z" />
    <glyph glyph-name="Wgrave" unicode="&#x1e80;" horiz-adv-x="1027" 
d="M482.1 778.52l-96.5596 142h90.6396l72.8398 -142h-66.9199zM910.81 700h92.3896l-220.53 -700h-77.3496l-192.45 497.77l-187.95 -497.77h-77.3496l-225.52 700h93.2998l174.18 -556.14l204.91 542.47h35.54l210.59 -543z" />
    <glyph glyph-name="X" unicode="X" horiz-adv-x="600" 
d="M592.59 0h-98.96l-193.29 296.08l-191.96 -296.08h-99.8604l237.96 366.66l-219.52 333.34h98.9502l175.02 -267.11l173.44 267.11h98.9502l-218.44 -336.27z" />
    <glyph glyph-name="Y" unicode="Y" horiz-adv-x="658" 
d="M632.5 700l-258.488 -420.87v-279.13h-90.4805v279.23l-256.4 420.77h96.1299l206.02 -338.07l207.09 338.07h96.1299z" />
    <glyph glyph-name="Yacute" unicode="&#xdd;" horiz-adv-x="658" 
d="M450.62 920.52l-96.5605 -142h-66.9297l72.8398 142h90.6504zM632.5 700l-258.488 -420.87v-279.13h-90.4805v279.23l-256.4 420.77h96.1299l206.02 -338.07l207.09 338.07h96.1299z" />
    <glyph glyph-name="Ycircumflex" unicode="&#x176;" horiz-adv-x="658" 
d="M328.77 872.59l-91.0996 -94.0703h-75.2197l118.35 142h97.1201l118.44 -142h-75.2305zM632.5 700l-258.488 -420.87v-279.13h-90.4805v279.23l-256.4 420.77h96.1299l206.02 -338.07l207.09 338.07h96.1299z" />
    <glyph glyph-name="Ydieresis" unicode="&#x178;" horiz-adv-x="658" 
d="M172.06 788.03v97.4902h97.5195v-97.4902h-97.5195zM389.22 788.03v97.4902h97.5195v-97.4902h-97.5195zM632.489 700.011l-258.488 -420.86v-279.14h-90.4805v279.23l-256.4 420.77h96.1299l206.02 -338.06l207.09 338.06h96.1299z" />
    <glyph glyph-name="Ygrave" unicode="&#x1ef2;" horiz-adv-x="658" 
d="M299.75 778.52l-96.5596 142h90.6396l72.8398 -142h-66.9199zM632.5 700l-258.488 -420.87v-279.13h-90.4805v279.23l-256.4 420.77h96.1299l206.02 -338.07l207.09 338.07h96.1299z" />
    <glyph glyph-name="Z" unicode="Z" horiz-adv-x="563" 
d="M165.62 82.2598h371.102v-82.2598h-510.9v15.1201l361.56 602.62h-345.73v82.2598h484.29v-16.7803z" />
    <glyph glyph-name="Zacute" unicode="&#x179;" horiz-adv-x="563" 
d="M416.19 920.52l-96.5703 -142h-66.9199l72.8301 142h90.6602zM165.62 82.2598h371.102v-82.2598h-510.9v15.1201l361.56 602.62h-345.73v82.2598h484.29v-16.7803z" />
    <glyph glyph-name="Zcaron" unicode="&#x17d;" horiz-adv-x="563" 
d="M343.48 778.52h-97.1191l-118.35 142h75.2197l91.0996 -94.0703l92.3701 94.0703h75.2197zM165.621 82.2598h371.102v-82.2598h-510.9v15.1201l361.56 602.62h-345.73v82.2598h484.29v-16.7803z" />
    <glyph glyph-name="Zdotaccent" unicode="&#x17b;" horiz-adv-x="563" 
d="M344.19 885.51v-97.4902h-97.5303v97.4902h97.5303zM165.62 82.2598h371.102v-82.2598h-510.9v15.1201l361.56 602.62h-345.73v82.2598h484.29v-16.7803z" />
    <glyph glyph-name="uni0122" unicode="&#x122;" horiz-adv-x="798" 
d="M378.13 347.46l375.249 -0.0107422c-4.34961 -210.51 -148 -359.109 -350.13 -359.109c-205.91 0 -355.21 152.83 -355.21 361.57c0 207.91 149.83 360.82 353.39 360.82c168.39 0 309.949 -105.65 340.859 -254.86h-90.4697c-30 101.15 -130.06 168.95 -248.56 168.95
c-154.68 0 -265.649 -114.15 -265.649 -274.91c0 -162.76 107.97 -275.649 265.649 -275.649c128.66 0 229.351 75.9697 254.581 190.029h-279.71v83.1699zM361.789 -135.65l-0.00976562 79.8896h87.9297v-73.2402c0 -52.3398 -35.5498 -98.1494 -83.6602 -106.76
l-0.610352 40.2002c26.8604 6.7002 42.1602 29.2598 42.1602 59.9102h-45.8096z" />
    <glyph glyph-name="uni0136" unicode="&#x136;" horiz-adv-x="635" 
d="M356.06 363.33l279.391 -363.33h-112.73l-246.2 320.67h-93.21v-320.67h-87.7402v700h87.7402v-297.06h92.75l224.22 297.06h111.82zM296.271 -135.64v79.8896h87.9297v-73.2402c0 -52.3398 -35.5498 -98.1494 -83.6602 -106.76l-0.620117 40.2002
c26.8701 6.7002 42.1602 29.2598 42.1602 59.9102h-45.8096z" />
    <glyph glyph-name="uni013B" unicode="&#x13b;" horiz-adv-x="512" 
d="M183.31 82.2598h307.55v-82.2598h-395.29v700h87.7402v-617.74zM243.659 -55.7402h87.9297v-73.2402c0 -52.3398 -35.5498 -98.1494 -83.6699 -106.76l-0.610352 40.2002c26.8604 6.7002 42.1602 29.2598 42.1602 59.9102h-45.8096v79.8896z" />
    <glyph glyph-name="uni0145" unicode="&#x145;" horiz-adv-x="749" 
d="M567.9 700h85.9102v-700h-73.96l-398.37 546.29v-546.29h-85.9102v700h79.4404l392.89 -539.92v539.92zM331.221 -135.64v79.8896h87.9297v-73.2402c0 -52.3398 -35.5498 -98.1494 -83.6602 -106.76l-0.620117 40.2002c26.8701 6.7002 42.1602 29.2598 42.1602 59.9102
h-45.8096z" />
    <glyph glyph-name="uni0156" unicode="&#x156;" horiz-adv-x="644" 
d="M434.72 284.09l167.521 -284.09h-98.8701l-160.69 273.94h-159.37v-273.94h-87.7402v700h265.51c130.96 0 227.99 -89.21 227.99 -213.99c0 -98.4199 -62.2695 -175.25 -154.35 -201.92zM183.311 616.82l0.000976562 -259.699h173.21
c85.7197 0 142.989 54.0996 142.989 129.81c0 74.8896 -57.3604 129.89 -142.99 129.89h-173.21zM289.571 -135.629v79.8896h87.9297v-73.2402c0 -52.3398 -35.5498 -98.1494 -83.6602 -106.76l-0.620117 40.2002c26.8701 6.7002 42.1602 29.2598 42.1602 59.9102h-45.8096z
" />
    <glyph glyph-name="uni0162" unicode="&#x162;" horiz-adv-x="556" 
d="M321.83 0h-15.7422l-11.9102 -42.7197c54.7803 -7.57031 91.6699 -44.3008 91.6699 -92.6807c0 -56.2998 -51.2998 -95.9502 -121.34 -95.9502h-67.3896v52.1504h66.4805c32.0996 0 54.5898 18.2197 54.5898 44.71c0 25.5801 -22.5801 44.71 -55.6797 44.71h-25.5098
l-11.1299 13.04l20.04 76.7402h-11.8096v617.74h-213.02v82.2598h513.77v-82.2598h-213.02v-617.74z" />
    <glyph glyph-name="uni0218" unicode="&#x218;" horiz-adv-x="597" 
d="M304.21 -8.91992c-154.12 0 -258.341 86.7393 -258.341 224.609h89.5703c0 -87.0703 70.8301 -138.69 167.86 -138.69c87.7598 0 157.33 46.6201 157.33 120.771c0 81.8496 -83.0098 101.109 -173.85 122.379c-108.08 25.7402 -227.65 54.3906 -227.65 194.07
c0 120.86 93.3896 194.69 238.26 194.69c145.24 0 233.9 -80.5596 233.9 -207.34h-86.8301c0 77.7998 -63.4902 123.25 -148.9 123.25c-85.0303 0 -148.69 -40.5303 -148.69 -106.95c0 -76.8496 80.4502 -96.1094 170.2 -117.289
c110.09 -26.7305 234.04 -56.29 234.04 -201.89c0 -132.25 -107.51 -207.61 -246.899 -207.61zM273.219 -240.311l-0.600586 40.1895c26.8604 6.7002 42.1602 29.2705 42.1602 59.9209h-45.8096v79.8896h87.9199v-73.2402c0 -52.3398 -35.5596 -98.1494 -83.6699 -106.76z
" />
    <glyph glyph-name="uni021A" unicode="&#x21a;" horiz-adv-x="556" 
d="M21.0801 700h513.77v-82.2598h-213.02v-617.74h-87.7305v617.74h-213.02v82.2598zM233.96 -55.75h87.9297v-73.2402c0 -52.3398 -35.5596 -98.1494 -83.6699 -106.76l-0.610352 40.2002c26.8604 6.7002 42.1602 29.2598 42.1602 59.9102h-45.8096v79.8896z" />
    <glyph glyph-name="K.ss01" horiz-adv-x="619" 
d="M95.5703 0v700h87.7402v-700h-87.7402zM304.63 363.83l320.911 -363.829h-119.21l-313.08 356.52v10.5596l291.56 332.92h114.64z" />
    <glyph glyph-name="a" unicode="a" horiz-adv-x="699" 
d="M546.03 540l67.6699 -0.000976562v-540h-70.4004l-8.96973 81.8203c-49.79 -58.1299 -124.21 -93.6494 -211.89 -93.6494c-159.65 0 -279.48 121 -279.48 281.82c0 161.74 119.83 281.83 279.48 281.83c88.3301 0 163.2 -35.7803 212.99 -94.5801zM328.84 70.4395
c114.5 0 198.04 84.71 198.04 199.56s-83.54 199.56 -198.04 199.56c-114.33 0 -199.04 -85.8896 -199.04 -199.56c0 -113.76 84.71 -199.56 199.04 -199.56z" />
    <glyph glyph-name="aacute" unicode="&#xe1;" horiz-adv-x="699" 
d="M447.36 755.44l-91.1211 -152h-66.9297l67.4004 152h90.6504zM546.029 540l67.6699 -0.000976562v-540h-70.4004l-8.96973 81.8203c-49.79 -58.1299 -124.21 -93.6494 -211.89 -93.6494c-159.65 0 -279.48 121 -279.48 281.82c0 161.74 119.83 281.83 279.48 281.83
c88.3301 0 163.2 -35.7803 212.99 -94.5801zM328.839 70.4395c114.5 0 198.04 84.71 198.04 199.56s-83.54 199.56 -198.04 199.56c-114.33 0 -199.04 -85.8896 -199.04 -199.56c0 -113.76 84.71 -199.56 199.04 -199.56z" />
    <glyph glyph-name="abreve" unicode="&#x103;" horiz-adv-x="699" 
d="M338.21 598.35c-95.7695 0 -159.891 59.6504 -159.891 157.091h66.75v-2.83008c0 -62.0596 37.3096 -96.6396 93.1494 -96.6396c55.9199 0 91.3203 34.5801 91.3203 96.6396v2.83008h68.5703c0 -97.4404 -64.1299 -157.091 -159.899 -157.091zM546.028 540
l67.6699 -0.000976562v-540h-70.4004l-8.96973 81.8203c-49.79 -58.1299 -124.21 -93.6494 -211.89 -93.6494c-159.65 0 -279.48 121 -279.48 281.82c0 161.74 119.83 281.83 279.48 281.83c88.3301 0 163.2 -35.7803 212.99 -94.5801zM328.838 70.4395
c114.5 0 198.04 84.71 198.04 199.56s-83.54 199.56 -198.04 199.56c-114.33 0 -199.04 -85.8896 -199.04 -199.56c0 -113.76 84.71 -199.56 199.04 -199.56z" />
    <glyph glyph-name="acircumflex" unicode="&#xe2;" horiz-adv-x="699" 
d="M338.79 704.3l-91.8496 -100.86h-75.2197l118.35 152h97.1201l119.35 -152h-75.2305zM546.03 539.999l67.6699 -0.000976562v-540h-70.4004l-8.96973 81.8203c-49.79 -58.1299 -124.21 -93.6494 -211.89 -93.6494c-159.65 0 -279.48 121 -279.48 281.82
c0 161.74 119.83 281.83 279.48 281.83c88.3301 0 163.2 -35.7803 212.99 -94.5801zM328.84 70.4385c114.5 0 198.04 84.71 198.04 199.56s-83.54 199.56 -198.04 199.56c-114.33 0 -199.04 -85.8896 -199.04 -199.56c0 -113.76 84.71 -199.56 199.04 -199.56z" />
    <glyph glyph-name="adieresis" unicode="&#xe4;" horiz-adv-x="699" 
d="M287.99 730.99v-97.4902h-97.5303v97.4902h97.5303zM485.05 730.99v-97.4902h-97.5303v97.4902h97.5303zM546.02 540l67.6699 -0.000976562v-540h-70.4004l-8.96973 81.8203c-49.79 -58.1299 -124.21 -93.6494 -211.89 -93.6494c-159.65 0 -279.48 121 -279.48 281.82
c0 161.74 119.83 281.83 279.48 281.83c88.3301 0 163.2 -35.7803 212.99 -94.5801zM328.829 70.4395c114.5 0 198.04 84.71 198.04 199.56s-83.54 199.56 -198.04 199.56c-114.33 0 -199.04 -85.8896 -199.04 -199.56c0 -113.76 84.71 -199.56 199.04 -199.56z" />
    <glyph glyph-name="agrave" unicode="&#xe0;" horiz-adv-x="699" 
d="M379.59 603.44h-66.9209l-91.1299 152h90.6504zM546.029 540l67.6699 -0.000976562v-540h-70.4004l-8.96973 81.8203c-49.79 -58.1299 -124.21 -93.6494 -211.89 -93.6494c-159.65 0 -279.48 121 -279.48 281.82c0 161.74 119.83 281.83 279.48 281.83
c88.3301 0 163.2 -35.7803 212.99 -94.5801zM328.839 70.4395c114.5 0 198.04 84.71 198.04 199.56s-83.54 199.56 -198.04 199.56c-114.33 0 -199.04 -85.8896 -199.04 -199.56c0 -113.76 84.71 -199.56 199.04 -199.56z" />
    <glyph glyph-name="amacron" unicode="&#x101;" horiz-adv-x="699" 
d="M494.21 716.25v-67.6602h-313v67.6602h313zM546.02 540l67.6699 -0.000976562v-540h-70.4004l-8.96973 81.8203c-49.79 -58.1299 -124.21 -93.6494 -211.89 -93.6494c-159.65 0 -279.48 121 -279.48 281.82c0 161.74 119.83 281.83 279.48 281.83
c88.3301 0 163.2 -35.7803 212.99 -94.5801zM328.829 70.4395c114.5 0 198.04 84.71 198.04 199.56s-83.54 199.56 -198.04 199.56c-114.33 0 -199.04 -85.8896 -199.04 -199.56c0 -113.76 84.71 -199.56 199.04 -199.56z" />
    <glyph glyph-name="aogonek" unicode="&#x105;" horiz-adv-x="699" 
d="M580.44 -169.03c17.7305 0 34.4697 2.91895 52.1201 9.73926v-49.5c-23.1201 -13.1201 -49.9902 -18.7705 -74.9404 -18.7705c-65.6504 0 -116.681 37.9102 -116.681 100.03c0 63.8301 38.1201 115.021 99.8506 150.32l-6.46973 59.0303
c-49.79 -58.1299 -124.21 -93.6494 -211.88 -93.6494c-159.66 0 -279.48 121 -279.48 281.83c0 161.74 119.82 281.82 279.48 281.82c88.3301 0 163.2 -35.7803 212.99 -94.5801l10.5898 82.7598h67.6699v-540c-65.5703 -20.4404 -106.92 -62.75 -106.92 -107.45
c0 -39.7002 30.5303 -61.5801 73.6699 -61.5801zM328.819 70.4385c114.5 0 198.04 84.71 198.04 199.56s-83.54 199.56 -198.04 199.56c-114.32 0 -199.04 -85.8896 -199.04 -199.56c0 -113.76 84.7197 -199.56 199.04 -199.56z" />
    <glyph glyph-name="aring" unicode="&#xe5;" horiz-adv-x="699" 
d="M338.21 589.61c-66.9502 0 -114.08 45.21 -114.08 107.51c0 63.21 47.1299 107.51 114.08 107.51s114.08 -44.2998 114.08 -107.51c0 -62.2998 -47.1299 -107.51 -114.08 -107.51zM338.21 757.051c-36.2305 0 -61.9307 -23.79 -61.9307 -59.9297
c0 -35.2197 25.7002 -59.0098 61.9307 -59.0098s61.9307 23.79 61.9307 59.0098c0 36.1396 -25.7002 59.9297 -61.9307 59.9297zM546.02 540.001l67.6699 -0.000976562v-540h-70.4004l-8.96973 81.8203c-49.79 -58.1299 -124.21 -93.6494 -211.89 -93.6494
c-159.65 0 -279.48 121 -279.48 281.82c0 161.74 119.83 281.83 279.48 281.83c88.3301 0 163.2 -35.7803 212.99 -94.5801zM328.829 70.4404c114.5 0 198.04 84.71 198.04 199.56s-83.54 199.56 -198.04 199.56c-114.33 0 -199.04 -85.8896 -199.04 -199.56
c0 -113.76 84.71 -199.56 199.04 -199.56z" />
    <glyph glyph-name="atilde" unicode="&#xe3;" horiz-adv-x="699" 
d="M215.41 625.58l0.00195312 -10.9912h-52.1504v12.8301c0 72.8604 36.3896 120.25 96.9893 120.25c43.6904 0 67.5107 -22.1299 89.8203 -45.2295c18.2197 -18.8398 34.3994 -33.5801 59.4893 -33.5801c27.1396 0 44.8398 24.96 44.8398 63.5303v9h53.0596v-10.8203
c0 -72.8604 -37.2998 -120.25 -96.9902 -120.25c-46.25 0 -72.7305 23.8604 -95.9502 46.7803c-18.4902 17.2803 -32.8398 31.1104 -53.3594 31.1104c-26.1396 0 -45.75 -25.0498 -45.75 -62.6299zM546.022 540.009l67.6699 -0.000976562v-540h-70.4004l-8.96973 81.8203
c-49.79 -58.1299 -124.21 -93.6494 -211.89 -93.6494c-159.65 0 -279.48 121 -279.48 281.82c0 161.74 119.83 281.83 279.48 281.83c88.3301 0 163.2 -35.7803 212.99 -94.5801zM328.832 70.4482c114.5 0 198.04 84.71 198.04 199.56s-83.54 199.56 -198.04 199.56
c-114.33 0 -199.04 -85.8896 -199.04 -199.56c0 -113.76 84.71 -199.56 199.04 -199.56z" />
    <glyph glyph-name="ae" unicode="&#xe6;" horiz-adv-x="1107" 
d="M1065.25 269.52c0 -11.1201 -0.90918 -21.4209 -1.8291 -32.5508h-461.26c13.3301 -99.1299 87.1299 -164.71 190.96 -164.71c73.7998 0 134.819 33.0996 168.129 92.25h89.6504c-45.7002 -111.3 -140.65 -176.34 -257.78 -176.34
c-80.9502 0 -151.44 35.3896 -199.23 93.04l-4.83984 -83.04h-62.1904l-3.92969 73.8301c-48.4004 -51.7803 -117.24 -82.9102 -196.851 -82.9102c-161.47 0 -283.12 121 -283.12 280.91s120.74 280.91 283.12 280.91c79.8799 0 148.92 -31.3398 197.34 -83.4502
l4.34961 74.3604h62.1904l4.23047 -83.1602c47.79 57.1904 118.14 92.1602 198.93 92.1602c157.48 0 272.131 -121.74 272.131 -281.3zM793.121 471.299c-99.0703 0 -171.74 -62.6699 -189.13 -156.63h376.7c-16.7402 94.7197 -90.5303 156.63 -187.57 156.63z
M326.081 71.3486c114.24 0 196.22 83.5 196.22 198.65c0 115.76 -81.7197 198.649 -196.22 198.649c-113.41 0 -196.3 -84.0703 -196.3 -198.65c0 -114.68 82.8896 -198.649 196.3 -198.649z" />
    <glyph glyph-name="aeacute" unicode="&#x1fd;" horiz-adv-x="1107" 
d="M672.95 755.44l-91.1309 -152h-66.9199l67.4004 152h90.6504zM1065.25 269.521c0 -11.1201 -0.90918 -21.4209 -1.8291 -32.5508h-461.26c13.3301 -99.1299 87.1299 -164.71 190.96 -164.71c73.7998 0 134.819 33.0996 168.129 92.25h89.6504
c-45.7002 -111.3 -140.65 -176.34 -257.78 -176.34c-80.9502 0 -151.44 35.3896 -199.23 93.04l-4.83984 -83.04h-62.1904l-3.92969 73.8301c-48.4004 -51.7803 -117.24 -82.9102 -196.851 -82.9102c-161.47 0 -283.12 121 -283.12 280.91s120.74 280.91 283.12 280.91
c79.8799 0 148.92 -31.3398 197.34 -83.4502l4.34961 74.3604h62.1904l4.23047 -83.1602c47.79 57.1904 118.14 92.1602 198.93 92.1602c157.48 0 272.131 -121.74 272.131 -281.3zM793.12 471.3c-99.0703 0 -171.74 -62.6699 -189.13 -156.63h376.7
c-16.7402 94.7197 -90.5303 156.63 -187.57 156.63zM326.08 71.3496c114.24 0 196.22 83.5 196.22 198.65c0 115.76 -81.7197 198.649 -196.22 198.649c-113.41 0 -196.3 -84.0703 -196.3 -198.65c0 -114.68 82.8896 -198.649 196.3 -198.649z" />
    <glyph glyph-name="b" unicode="b" horiz-adv-x="692" 
d="M370.61 551.83c162.74 0 278.49 -120.079 278.49 -281.819c0 -160.82 -115.74 -281.82 -278.48 -281.82c-84.4902 0 -157.45 33.5 -207.62 88.6797l-11.5 -76.8604h-65.8398v732.74h85v-261.18c49.7998 50.2402 119.67 80.2598 199.95 80.2598zM364.23 70.4512
c114.5 0 198.04 84.71 198.04 199.56s-83.54 199.56 -198.04 199.56c-114.33 0 -199.04 -85.7998 -199.04 -199.56c0 -112.76 84.71 -199.56 199.04 -199.56z" />
    <glyph glyph-name="c" unicode="c" horiz-adv-x="620" 
d="M323.52 -11.8203c-159.65 0 -280.562 121 -280.562 281.82c0 161 120.83 281.83 280.57 281.83c128.77 0 229.81 -76.7803 262.51 -193.851h-84.1797c-31.79 69.2695 -98.7998 111.579 -178.34 111.579c-110.85 0 -193.739 -86.71 -193.739 -199.56
c0 -112.76 83.8896 -199.56 193.739 -199.56c79.4502 0 144.641 42.2197 177.601 114.41h86c-32.96 -119.16 -136 -196.67 -263.6 -196.67z" />
    <glyph glyph-name="cacute" unicode="&#x107;" horiz-adv-x="620" 
d="M273.45 603.44l67.4092 152h90.6504l-91.1299 -152h-66.9297zM323.529 -11.8193c-159.65 0 -280.562 121 -280.562 281.82c0 161 120.83 281.83 280.57 281.83c128.77 0 229.81 -76.7803 262.51 -193.851h-84.1797c-31.79 69.2695 -98.7998 111.579 -178.34 111.579
c-110.85 0 -193.739 -86.71 -193.739 -199.56c0 -112.76 83.8896 -199.56 193.739 -199.56c79.4502 0 144.641 42.2197 177.601 114.41h86c-32.96 -119.16 -136 -196.67 -263.6 -196.67z" />
    <glyph glyph-name="ccaron" unicode="&#x10d;" horiz-adv-x="620" 
d="M414.54 755.44h75.2197l-119.35 -152h-97.1201l-118.35 152h75.2197l91.8604 -100.86zM323.52 -11.8193c-159.65 0 -280.562 121 -280.562 281.82c0 161 120.83 281.83 280.57 281.83c128.77 0 229.81 -76.7803 262.51 -193.851h-84.1797
c-31.79 69.2695 -98.7998 111.579 -178.34 111.579c-110.85 0 -193.739 -86.71 -193.739 -199.56c0 -112.76 83.8896 -199.56 193.739 -199.56c79.4502 0 144.641 42.2197 177.601 114.41h86c-32.96 -119.16 -136 -196.67 -263.6 -196.67z" />
    <glyph glyph-name="ccedilla" unicode="&#xe7;" horiz-adv-x="620" 
d="M587.13 184.85c-31.5303 -113.99 -127.192 -189.848 -247.122 -196.228l-8.41992 -30.9404c55.9004 -6.54004 94.1504 -43.0205 94.1504 -93.9902c0 -56.2998 -44 -95.04 -111.3 -95.04h-73.7803v49.4102h63.7402c34.8398 0 58.2402 19.96 58.2402 48.3604
c0 28.3096 -23.4902 47.4492 -58.4102 47.4492h-25.5098l-9.2998 9.38965l17.4805 67.0898c-141.15 16.96 -243.931 131.38 -243.931 279.649c0 161 120.83 281.83 280.57 281.83c128.77 0 229.81 -76.7803 262.51 -193.851h-84.1797
c-31.79 69.2695 -98.7998 111.579 -178.34 111.579c-110.85 0 -193.739 -86.71 -193.739 -199.56c0 -112.76 83.8896 -199.56 193.739 -199.56c79.4502 0 144.641 42.2197 177.601 114.41h86z" />
    <glyph glyph-name="ccircumflex" unicode="&#x109;" horiz-adv-x="620" 
d="M490.68 603.44h-75.2295l-92.5195 100.86l-91.8604 -100.86h-75.2197l118.35 152h97.1299zM323.521 -11.8193c-159.65 0 -280.562 121 -280.562 281.82c0 161 120.83 281.83 280.57 281.83c128.77 0 229.81 -76.7803 262.51 -193.851h-84.1797
c-31.79 69.2695 -98.7998 111.579 -178.34 111.579c-110.85 0 -193.739 -86.71 -193.739 -199.56c0 -112.76 83.8896 -199.56 193.739 -199.56c79.4502 0 144.641 42.2197 177.601 114.41h86c-32.96 -119.16 -136 -196.67 -263.6 -196.67z" />
    <glyph glyph-name="cdotaccent" unicode="&#x10b;" horiz-adv-x="620" 
d="M276.33 633.5v97.4902h92.0498v-97.4902h-92.0498zM323.53 -11.8193c-159.65 0 -280.562 121 -280.562 281.82c0 161 120.83 281.83 280.57 281.83c128.77 0 229.81 -76.7803 262.51 -193.851h-84.1797c-31.79 69.2695 -98.7998 111.579 -178.34 111.579
c-110.85 0 -193.739 -86.71 -193.739 -199.56c0 -112.76 83.8896 -199.56 193.739 -199.56c79.4502 0 144.641 42.2197 177.601 114.41h86c-32.96 -119.16 -136 -196.67 -263.6 -196.67z" />
    <glyph glyph-name="d" unicode="d" horiz-adv-x="692" 
d="M521.39 732.74l85.0098 -0.00976562v-732.74h-65.8398l-11.4502 76.7402c-50.0898 -55.1104 -122.97 -88.5605 -207.58 -88.5605c-162.39 0 -278.56 121 -278.56 281.82c0 161.74 116.17 281.83 278.56 281.83c80.3604 0 150.141 -29.9502 199.86 -80.0801v261z
M327.93 70.4307c114.5 0 198.95 86.5391 198.95 199.559c0 113.94 -84.4502 199.561 -198.95 199.561c-114.32 0 -198.12 -84.8896 -198.12 -199.56c0 -114.59 83.7998 -199.56 198.12 -199.56z" />
    <glyph glyph-name="eth" unicode="&#xf0;" horiz-adv-x="646" 
d="M388.88 712.14c129.87 -80.9697 200.539 -230.83 201.239 -428.38c0 -176.2 -109.43 -294.67 -273.949 -294.67c-160.04 0 -272.21 109.26 -272.21 264.56c0 152.56 114.91 260 262.17 260c69.2197 0 137.81 -25.0596 186.51 -71.0898
c-21.5596 97.3096 -78.9297 171.17 -160.41 215.689l-114.07 -108.54l-37.2002 36.3799l99.9902 95.1504c-46.1299 16.6201 -97.8994 25.3301 -153.789 25.3604v73.1299c80.9805 -0.0195312 152.36 -14.5098 213.311 -41.8398l70.0996 66.71l36.29 -37.29zM316.169 67.6992
c108.33 0 188.95 80.6201 188.95 186.86c-1 108.41 -82.7998 186.86 -188.95 186.86c-109.41 0 -189.95 -80.6201 -189.95 -186.86s80.6299 -186.86 189.95 -186.86z" />
    <glyph glyph-name="dcaron" unicode="&#x10f;" horiz-adv-x="692" 
d="M521.39 471.74l0.00976562 260.99h85v-732.74h-65.8398l-11.4502 76.7402c-50.0898 -55.1104 -122.97 -88.5605 -207.58 -88.5605c-162.39 0 -278.56 121 -278.56 281.82c0 161.74 116.17 281.83 278.56 281.83c80.3604 0 150.141 -29.9502 199.86 -80.0801z
M664.239 732.73h87.9307v-73.2402c0 -51.8096 -35.46 -98.0596 -84.1904 -106.59v40.9004c26.5996 6.34961 41.7197 29 41.7197 59.04h-45.46v79.8896zM327.93 70.4307c114.5 0 198.95 86.5391 198.95 199.559c0 113.94 -84.4502 199.561 -198.95 199.561
c-114.32 0 -198.12 -84.8896 -198.12 -199.56c0 -114.59 83.7998 -199.56 198.12 -199.56z" />
    <glyph glyph-name="dcroat" unicode="&#x111;" horiz-adv-x="692" 
d="M686.18 665.33l0.00976562 -71.3193h-79.79v-594.01h-65.8398l-11.4502 76.7402c-50.0898 -55.1104 -122.97 -88.5605 -207.58 -88.5605c-162.39 0 -278.56 121 -278.56 281.82c0 161.74 116.17 281.83 278.56 281.83c80.3604 0 150.141 -29.9502 199.86 -80.0801v122.27
h-199.8v71.3096h199.8v67.4102h85v-67.4102h79.79zM327.93 70.4404c114.5 0 198.95 86.5391 198.95 199.559c0 113.94 -84.4502 199.561 -198.95 199.561c-114.32 0 -198.12 -84.8896 -198.12 -199.56c0 -114.59 83.7998 -199.56 198.12 -199.56z" />
    <glyph glyph-name="e" unicode="e" horiz-adv-x="632" 
d="M590.56 267.79c0 -10.21 -0.90918 -20.5107 -1.81934 -30.7207h-460.36c13.3604 -100.01 87.7803 -165.71 190.061 -165.71c74.71 0 134.81 34.9297 168.119 93.25h89.6504c-45.7002 -111.39 -140.65 -176.43 -257.771 -176.43c-156.65 0 -275.391 121 -275.391 281.91
c0 160.74 118.74 281.74 275.391 281.74c163.86 0 272.12 -126.3 272.12 -284.04zM318.44 471.389c-98.0596 0 -170.529 -61.7002 -188.109 -155.71h375.02c-18.25 96.1104 -91.3398 155.71 -186.91 155.71z" />
    <glyph glyph-name="eacute" unicode="&#xe9;" horiz-adv-x="632" 
d="M425.5 755.44l-91.1211 -152h-66.9297l67.4004 152h90.6504zM590.569 267.79c0 -10.21 -0.90918 -20.5107 -1.81934 -30.7207h-460.36c13.3604 -100.01 87.7803 -165.71 190.061 -165.71c74.71 0 134.81 34.9297 168.119 93.25h89.6504
c-45.7002 -111.39 -140.65 -176.43 -257.771 -176.43c-156.65 0 -275.391 121 -275.391 281.91c0 160.74 118.74 281.74 275.391 281.74c163.86 0 272.12 -126.3 272.12 -284.04zM318.45 471.389c-98.0596 0 -170.529 -61.7002 -188.109 -155.71h375.02
c-18.25 96.1104 -91.3398 155.71 -186.91 155.71z" />
    <glyph glyph-name="ebreve" unicode="&#x115;" horiz-adv-x="632" 
d="M316.35 598.35c-95.7803 0 -159.891 59.6504 -159.891 157.091h66.75v-2.83008c0 -62.0596 37.3096 -96.6396 93.1494 -96.6396c55.9199 0 91.3203 34.5801 91.3203 96.6396v2.83008h68.5703c0 -97.4404 -64.1299 -157.091 -159.899 -157.091zM590.579 267.79
c0 -10.21 -0.90918 -20.5107 -1.81934 -30.7207h-460.36c13.3604 -100.01 87.7803 -165.71 190.061 -165.71c74.71 0 134.81 34.9297 168.119 93.25h89.6504c-45.7002 -111.39 -140.65 -176.43 -257.771 -176.43c-156.65 0 -275.391 121 -275.391 281.91
c0 160.74 118.74 281.74 275.391 281.74c163.86 0 272.12 -126.3 272.12 -284.04zM318.46 471.389c-98.0596 0 -170.529 -61.7002 -188.109 -155.71h375.02c-18.25 96.1104 -91.3398 155.71 -186.91 155.71z" />
    <glyph glyph-name="ecaron" unicode="&#x11b;" horiz-adv-x="632" 
d="M364.41 603.44h-97.1201l-118.35 152h75.2197l91.8604 -100.86l92.5195 100.86h75.2197zM590.56 267.79c0 -10.21 -0.90918 -20.5107 -1.81934 -30.7207h-460.36c13.3604 -100.01 87.7803 -165.71 190.061 -165.71c74.71 0 134.81 34.9297 168.119 93.25h89.6504
c-45.7002 -111.39 -140.65 -176.43 -257.771 -176.43c-156.65 0 -275.391 121 -275.391 281.91c0 160.74 118.74 281.74 275.391 281.74c163.86 0 272.12 -126.3 272.12 -284.04zM318.44 471.389c-98.0596 0 -170.529 -61.7002 -188.109 -155.71h375.02
c-18.25 96.1104 -91.3398 155.71 -186.91 155.71z" />
    <glyph glyph-name="ecircumflex" unicode="&#xea;" horiz-adv-x="632" 
d="M316.93 704.3l-91.8594 -100.86h-75.2197l118.35 152h97.1299l119.35 -152h-75.2305zM590.561 267.789c0 -10.21 -0.90918 -20.5107 -1.81934 -30.7207h-460.36c13.3604 -100.01 87.7803 -165.71 190.061 -165.71c74.71 0 134.81 34.9297 168.119 93.25h89.6504
c-45.7002 -111.39 -140.65 -176.43 -257.771 -176.43c-156.65 0 -275.391 121 -275.391 281.91c0 160.74 118.74 281.74 275.391 281.74c163.86 0 272.12 -126.3 272.12 -284.04zM318.441 471.388c-98.0596 0 -170.529 -61.7002 -188.109 -155.71h375.02
c-18.25 96.1104 -91.3398 155.71 -186.91 155.71z" />
    <glyph glyph-name="edieresis" unicode="&#xeb;" horiz-adv-x="632" 
d="M266.13 730.99v-97.4902h-97.5303v97.4902h97.5303zM463.189 730.99v-97.4902h-97.5303v97.4902h97.5303zM590.569 267.79c0 -10.21 -0.90918 -20.5107 -1.81934 -30.7207h-460.36c13.3604 -100.01 87.7803 -165.71 190.061 -165.71
c74.71 0 134.81 34.9297 168.119 93.25h89.6504c-45.7002 -111.39 -140.65 -176.43 -257.771 -176.43c-156.65 0 -275.391 121 -275.391 281.91c0 160.74 118.74 281.74 275.391 281.74c163.86 0 272.12 -126.3 272.12 -284.04zM318.45 471.389
c-98.0596 0 -170.529 -61.7002 -188.109 -155.71h375.02c-18.25 96.1104 -91.3398 155.71 -186.91 155.71z" />
    <glyph glyph-name="edotaccent" unicode="&#x117;" horiz-adv-x="632" 
d="M362.38 730.99v-97.4902h-92.0498v97.4902h92.0498zM590.57 267.79c0 -10.21 -0.90918 -20.5107 -1.81934 -30.7207h-460.36c13.3604 -100.01 87.7803 -165.71 190.061 -165.71c74.71 0 134.81 34.9297 168.119 93.25h89.6504
c-45.7002 -111.39 -140.65 -176.43 -257.771 -176.43c-156.65 0 -275.391 121 -275.391 281.91c0 160.74 118.74 281.74 275.391 281.74c163.86 0 272.12 -126.3 272.12 -284.04zM318.451 471.389c-98.0596 0 -170.529 -61.7002 -188.109 -155.71h375.02
c-18.25 96.1104 -91.3398 155.71 -186.91 155.71z" />
    <glyph glyph-name="egrave" unicode="&#xe8;" horiz-adv-x="632" 
d="M357.73 603.44h-66.9209l-91.1299 152h90.6504zM590.569 267.79c0 -10.21 -0.90918 -20.5107 -1.81934 -30.7207h-460.36c13.3604 -100.01 87.7803 -165.71 190.061 -165.71c74.71 0 134.81 34.9297 168.119 93.25h89.6504
c-45.7002 -111.39 -140.65 -176.43 -257.771 -176.43c-156.65 0 -275.391 121 -275.391 281.91c0 160.74 118.74 281.74 275.391 281.74c163.86 0 272.12 -126.3 272.12 -284.04zM318.45 471.389c-98.0596 0 -170.529 -61.7002 -188.109 -155.71h375.02
c-18.25 96.1104 -91.3398 155.71 -186.91 155.71z" />
    <glyph glyph-name="emacron" unicode="&#x113;" horiz-adv-x="632" 
d="M472.35 716.25v-67.6602h-313v67.6602h313zM590.56 267.79c0 -10.21 -0.90918 -20.5107 -1.81934 -30.7207h-460.36c13.3604 -100.01 87.7803 -165.71 190.061 -165.71c74.71 0 134.81 34.9297 168.119 93.25h89.6504c-45.7002 -111.39 -140.65 -176.43 -257.771 -176.43
c-156.65 0 -275.391 121 -275.391 281.91c0 160.74 118.74 281.74 275.391 281.74c163.86 0 272.12 -126.3 272.12 -284.04zM318.44 471.389c-98.0596 0 -170.529 -61.7002 -188.109 -155.71h375.02c-18.25 96.1104 -91.3398 155.71 -186.91 155.71z" />
    <glyph glyph-name="eogonek" unicode="&#x119;" horiz-adv-x="634" 
d="M592.38 276c0 -12.9502 -0.913086 -25.9805 -2.7334 -38.9307h-460.58c13.4102 -98.96 88.29 -165.71 191.19 -165.71c73.7998 0 132.99 34 167.21 93.2402h89.6504c-27.3096 -67.3203 -76.3594 -118.23 -146.18 -153.65
c-59.1797 -30.4805 -90.4893 -76.4404 -90.4893 -116.58c0 -39.7002 27.79 -63.4004 73.6602 -63.4004c17.7402 0 35.3906 2.91992 52.1309 9.74023v-48.5898c-21.2998 -12.21 -48.1699 -19.6797 -74.0303 -19.6797c-69.2998 0 -116.689 40.6504 -116.689 99.1201
c0 40.21 22.8301 85.3896 57.9502 117.55c-3.95996 -0.0195312 -8.32031 -0.0195312 -13.21 -0.0195312c-157.56 0 -276.3 121.91 -276.3 281.91c0 158.91 118.74 279.91 276.3 279.91c162.04 0 272.12 -127.21 272.12 -274.91zM320.257 471.39
c-99.1797 0 -175.079 -63.29 -189.31 -155.71h375.68c-17.54 94.6104 -90.1396 155.71 -186.37 155.71z" />
    <glyph glyph-name="f" unicode="f" horiz-adv-x="387" 
d="M374.46 536.35l-0.00976562 -71.2998h-165.5v-465.04h-85v465.04h-106.4v71.3096h106.4v43.8203c0 115.31 52.3896 172.17 173.18 172.17h76.4102v-68.5801h-60.9004c-76.46 0 -106.42 -29.0498 -106.42 -105.42v-42h168.24z" />
    <glyph glyph-name="g" unicode="g" horiz-adv-x="674" 
d="M531.89 540l56.7207 -0.0224609v-464.47c0 -174.09 -100.47 -280.09 -264.77 -280.09c-132.43 0 -226.29 68.9502 -255.82 183.55h85c24.0498 -67.54 92.0996 -105.85 170.81 -105.85c108.02 0 181.59 71.71 181.59 191.44v33.0098
c-48.3896 -50.0498 -117.42 -80.3193 -196.72 -80.3193c-149.91 0 -265.65 115.83 -265.65 266.83c0 150.91 115.83 267.74 265.66 267.74c86.3096 0 160.93 -36.6699 209.689 -95.8096zM317.841 98.5879c108.24 0 186.69 78.7197 186.69 185.479
c0 107.59 -78.54 186.39 -186.69 186.39c-108.24 0 -187.95 -79.8896 -187.95 -186.39c0 -105.68 79.71 -185.479 187.95 -185.479z" />
    <glyph glyph-name="gbreve" unicode="&#x11f;" horiz-adv-x="674" 
d="M321.09 598.35c-95.7695 0 -159.891 59.6504 -159.891 157.091h66.75v-2.83008c0 -62.0596 37.3096 -96.6396 93.1494 -96.6396c55.9199 0 91.3203 34.5801 91.3203 96.6396v2.83008h68.5703c0 -97.4404 -64.1299 -157.091 -159.899 -157.091zM531.898 540
l56.7207 -0.0224609v-464.47c0 -174.09 -100.47 -280.09 -264.77 -280.09c-132.43 0 -226.29 68.9502 -255.82 183.55h85c24.0498 -67.54 92.0996 -105.85 170.81 -105.85c108.02 0 181.59 71.71 181.59 191.44v33.0098
c-48.3896 -50.0498 -117.42 -80.3193 -196.72 -80.3193c-149.91 0 -265.65 115.83 -265.65 266.83c0 150.91 115.83 267.74 265.66 267.74c86.3096 0 160.93 -36.6699 209.689 -95.8096zM317.85 98.5879c108.24 0 186.69 78.7197 186.69 185.479
c0 107.59 -78.54 186.39 -186.69 186.39c-108.24 0 -187.95 -79.8896 -187.95 -186.39c0 -105.68 79.71 -185.479 187.95 -185.479z" />
    <glyph glyph-name="gcircumflex" unicode="&#x11d;" horiz-adv-x="674" 
d="M321.67 704.3l-91.8496 -100.86h-75.2197l118.35 152h97.1201l119.35 -152h-75.2305zM531.9 539.999l56.7207 -0.0224609v-464.47c0 -174.09 -100.47 -280.09 -264.77 -280.09c-132.43 0 -226.29 68.9502 -255.82 183.55h85
c24.0498 -67.54 92.0996 -105.85 170.81 -105.85c108.02 0 181.59 71.71 181.59 191.44v33.0098c-48.3896 -50.0498 -117.42 -80.3193 -196.72 -80.3193c-149.91 0 -265.65 115.83 -265.65 266.83c0 150.91 115.83 267.74 265.66 267.74
c86.3096 0 160.93 -36.6699 209.689 -95.8096zM317.852 98.5869c108.24 0 186.69 78.7197 186.69 185.479c0 107.59 -78.54 186.39 -186.69 186.39c-108.24 0 -187.95 -79.8896 -187.95 -186.39c0 -105.68 79.71 -185.479 187.95 -185.479z" />
    <glyph glyph-name="gdotaccent" unicode="&#x121;" horiz-adv-x="674" 
d="M367.11 730.99v-97.4902h-92.0498v97.4902h92.0498zM531.891 540l56.7207 -0.0224609v-464.47c0 -174.09 -100.47 -280.09 -264.77 -280.09c-132.43 0 -226.29 68.9502 -255.82 183.55h85c24.0498 -67.54 92.0996 -105.85 170.81 -105.85
c108.02 0 181.59 71.71 181.59 191.44v33.0098c-48.3896 -50.0498 -117.42 -80.3193 -196.72 -80.3193c-149.91 0 -265.65 115.83 -265.65 266.83c0 150.91 115.83 267.74 265.66 267.74c86.3096 0 160.93 -36.6699 209.689 -95.8096zM317.842 98.5879
c108.24 0 186.69 78.7197 186.69 185.479c0 107.59 -78.54 186.39 -186.69 186.39c-108.24 0 -187.95 -79.8896 -187.95 -186.39c0 -105.68 79.71 -185.479 187.95 -185.479z" />
    <glyph glyph-name="h" unicode="h" horiz-adv-x="642" 
d="M355.99 551.82c128.26 0 208.43 -88.1709 208.43 -228.351v-323.47h-85v303.4c0 109.54 -51.4502 170.72 -145.34 170.72c-92.3604 0 -163.42 -78.1797 -163.42 -179.5v-294.62h-85v732.73h85v-266.22c41.46 53.4199 107 85.3096 185.33 85.3096z" />
    <glyph glyph-name="hbar" unicode="&#x127;" horiz-adv-x="642" 
d="M355.99 551.82c128.26 0 208.43 -88.1699 208.43 -228.35v-323.47h-85v303.4c0 109.54 -51.4502 170.72 -145.34 170.72c-92.3604 0 -163.42 -78.1797 -163.42 -179.5v-294.62h-85v594.01h-93.8799v71.3096h93.8799v67.4102h85v-67.4102h185.71v-71.3096h-185.71v-127.5
c41.46 53.4199 107 85.3096 185.33 85.3096z" />
    <glyph glyph-name="hcircumflex" unicode="&#x125;" horiz-adv-x="642" 
d="M219.44 795.86l-92.3711 94.0703l-91.0996 -94.0703h-75.2197l118.35 142h97.1201l118.44 -142h-75.2197zM355.989 551.82c128.26 0 208.43 -88.1709 208.43 -228.351v-323.47h-85v303.4c0 109.54 -51.4502 170.72 -145.34 170.72
c-92.3604 0 -163.42 -78.1797 -163.42 -179.5v-294.62h-85v732.73h85v-266.22c41.46 53.4199 107 85.3096 185.33 85.3096z" />
    <glyph glyph-name="i" unicode="i" horiz-adv-x="256" 
d="M82.1396 633.5v97.4902h92.0498v-97.4902h-92.0498zM85.6699 0v540h85v-540h-85z" />
    <glyph glyph-name="dotlessi" unicode="&#x131;" horiz-adv-x="256" 
d="M85.6602 0v540h85v-540h-85z" />
    <glyph glyph-name="iacute" unicode="&#xed;" horiz-adv-x="256" 
d="M90.79 603.44l49.1299 152h88.8301l-70.1299 -152h-67.8301zM85.6602 0v540h85v-540h-85z" />
    <glyph glyph-name="ibreve" unicode="&#x12d;" horiz-adv-x="256" 
d="M129.07 598.35c-89.7695 0 -149.899 59.6504 -149.899 157.091h66.75v-2.83008c0 -62.0596 33.3096 -96.6396 83.1494 -96.6396c49.9297 0 81.3301 34.5801 81.3301 96.6396v2.83008h68.5703c0 -97.4404 -60.1201 -157.091 -149.9 -157.091zM85.6602 -0v540h85v-540h-85z
" />
    <glyph glyph-name="icircumflex" unicode="&#xee;" horiz-adv-x="256" 
d="M171.75 755.44l103.61 -152h-71.5801l-76.0303 100.08l-76.04 -100.08h-70.6602l103.61 152h87.0898zM85.6602 0v540h85v-540h-85z" />
    <glyph glyph-name="idieresis" unicode="&#xef;" horiz-adv-x="256" 
d="M8.75977 633.41v97.4902h86.4404v-97.4902h-86.4404zM160.25 632.5v97.4805h86.4404v-97.4805h-86.4404zM85.6602 0v540h85v-540h-85z" />
    <glyph glyph-name="igrave" unicode="&#xec;" horiz-adv-x="256" 
d="M160.88 603.44h-67.8301l-70.1299 152h88.8301zM85.6602 0v540h85v-540h-85z" />
    <glyph glyph-name="ij" unicode="&#x133;" horiz-adv-x="576" 
d="M82.1396 633.5v97.4902h92.0498v-97.4902h-92.0498zM402.229 633.5v97.4902h92.0498v-97.4902h-92.0498zM85.6699 0v540h85v-540h-85zM265.27 -192.74l-0.00976562 77.7012h32.25c68.9297 0 107.33 39.3096 107.33 108.149v546.89h85v-553.27
c0 -107.78 -71.7695 -179.471 -180.46 -179.471h-44.1104z" />
    <glyph glyph-name="imacron" unicode="&#x12b;" horiz-adv-x="256" 
d="M5.16992 648.58v67.6699h245.98v-67.6699h-245.98zM85.6602 0v540h85v-540h-85z" />
    <glyph glyph-name="iogonek" unicode="&#x12f;" horiz-adv-x="256" 
d="M174.27 730.98v-97.4805h-92.0498v97.4805h92.0498zM138.409 -169.03c17.7402 0 34.4707 2.91992 52.1211 9.74023v-49.5c-23.1201 -13.1201 -49.9805 -18.7705 -74.9307 -18.7705c-65.6504 0 -116.69 37.9102 -116.69 100.03c0 49.0801 32.8096 96.5205 86.8398 130.86
v536.67h85v-528.48l0.910156 -11.5195c-65.5596 -20.4404 -106.909 -62.75 -106.909 -107.45c0 -39.7002 30.5195 -61.5801 73.6592 -61.5801z" />
    <glyph glyph-name="itilde" unicode="&#x129;" horiz-adv-x="256" 
d="M199.6 607.57c-42.2998 0 -66.2178 26.1816 -87.2979 48.7012c-16.4404 16.8799 -30.1406 32.8398 -50.1904 32.8398c-22.2305 0 -36.1904 -17.75 -36.1904 -47.1104v-24.6904h-55.7998v20.1299c0 69.21 27.0898 115.68 86.5098 115.68
c44.3096 0 67.3096 -26.2598 87.4795 -48.7793c15.5195 -17.79 30.0498 -33.6699 50.0098 -33.6699c21.4004 0 35.2803 17.6602 35.2803 48.9404v21.7695h55.7998v-18.1201c0 -73.7803 -30.7402 -115.69 -85.6006 -115.69zM85.6611 0.00195312v540h85v-540h-85z" />
    <glyph glyph-name="j" unicode="j" horiz-adv-x="268" 
d="M95.0498 633.5v97.4902h92.0498v-97.4902h-92.0498zM-41.9102 -192.729l-0.00976562 77.7012h32.25c68.9297 0 107.33 39.3096 107.33 108.149v546.89h85v-553.27c0 -107.78 -71.7695 -179.471 -180.46 -179.471h-44.1104z" />
    <glyph glyph-name="jcircumflex" unicode="&#x135;" horiz-adv-x="268" 
d="M181.92 755.44l103.62 -152h-71.5801l-76.04 100.08l-76.0303 -100.08h-70.6699l103.62 152h87.0801zM97.6602 -0.5l0.000976562 540.501h85v-545.07c0 -108.68 -72.6904 -180.37 -180.46 -180.37h-42.9404v77.7002h30.1602c68.9297 0 108.239 39.3096 108.239 107.239z
" />
    <glyph glyph-name="k" unicode="k" horiz-adv-x="553" 
d="M441.97 0l-184.939 242.239h-77.25v-242.24h-85v732.73h85v-411.88h78.5l166.43 219.15h103.6l-196.93 -258.9l216.93 -281.1h-106.34z" />
    <glyph glyph-name="kgreenlandic" unicode="&#x138;" horiz-adv-x="540" 
d="M432.85 0l-184.949 242.24h-77.25v-242.24h-85v540h85v-219.15h78.5098l166.5 219.15h103.6l-197 -258.91l216.93 -281.09h-106.34z" />
    <glyph glyph-name="l" unicode="l" horiz-adv-x="256" 
d="M85.6602 0v732.73h85v-732.73h-85z" />
    <glyph glyph-name="lacute" unicode="&#x13a;" horiz-adv-x="256" 
d="M86.3496 811.26l72.8301 142h90.6602l-96.5703 -142h-66.9199zM85.6602 -0v732.73h85v-732.73h-85z" />
    <glyph glyph-name="lcaron" unicode="&#x13e;" horiz-adv-x="256" 
d="M85.6602 0v732.73h85v-732.73h-85zM235.88 552.91v40.9004c26.6104 6.34961 41.7305 29 41.7305 59.04h-45.46v79.8799h87.9199v-73.2305c0 -51.8203 -35.46 -98.0703 -84.1904 -106.59z" />
    <glyph glyph-name="ldot" unicode="&#x140;" horiz-adv-x="346" 
d="M85.6602 0v732.73h85v-732.73h-85zM252.15 308.32v106.23h97.5195v-106.23h-97.5195z" />
    <glyph glyph-name="lslash" unicode="&#x142;" horiz-adv-x="256" 
d="M271.67 531.71v-79.6992l-101.01 -58.7598v-393.25h-85v343.81l-101.1 -58.7998v79.7002l101.1 58.7998v309.22h85v-259.78z" />
    <glyph glyph-name="m" unicode="m" horiz-adv-x="950" 
d="M682.44 551.82c114.29 0 189.856 -85.8193 189.856 -206.439v-345.38h-84.9102l-0.0898438 318.92c0 97.0996 -45.0996 155.199 -122.199 155.199c-78.7695 0 -143.989 -75.96 -144.079 -174.93v-299.19h-83.1699v318.92c0 97.2803 -45.0195 155.2 -123.109 155.2
c-78.7695 0 -143.989 -75.96 -144.079 -174.93v-299.19h-85v540h61.2803l13.9297 -74.0703c41.29 53.6299 104.71 85.8896 173.03 85.8896c76.6201 0 135.69 -39.4102 165.561 -102.38c40.0596 63.4404 108.569 102.381 182.979 102.381z" />
    <glyph glyph-name="n" unicode="n" horiz-adv-x="642" 
d="M355.99 551.82c128.26 0 208.43 -96.3809 208.43 -228.351v-323.47h-85v303.4c0 109.54 -51.4502 170.72 -145.34 170.72c-92.3604 0 -163.42 -78.1797 -163.42 -179.5v-294.62h-85v540h60.3604l16.5498 -84.6396c40.7402 60.1104 109.78 96.46 193.42 96.46z" />
    <glyph glyph-name="nacute" unicode="&#x144;" horiz-adv-x="642" 
d="M437.62 755.44l-91.1211 -152h-66.9297l67.4004 152h90.6504zM355.989 551.82c128.26 0 208.43 -96.3809 208.43 -228.351v-323.47h-85v303.4c0 109.54 -51.4502 170.72 -145.34 170.72c-92.3604 0 -163.42 -78.1797 -163.42 -179.5v-294.62h-85v540h60.3604
l16.5498 -84.6396c40.7402 60.1104 109.78 96.46 193.42 96.46z" />
    <glyph glyph-name="ncaron" unicode="&#x148;" horiz-adv-x="642" 
d="M376.53 603.44h-97.1201l-118.35 152h75.2197l91.8604 -100.87l92.5195 100.87h75.2305zM355.99 551.82c128.26 0 208.43 -96.3809 208.43 -228.351v-323.47h-85v303.4c0 109.54 -51.4502 170.72 -145.34 170.72c-92.3604 0 -163.42 -78.1797 -163.42 -179.5v-294.62h-85
v540h60.3604l16.5498 -84.6396c40.7402 60.1104 109.78 96.46 193.42 96.46z" />
    <glyph glyph-name="eng" unicode="&#x14b;" horiz-adv-x="642" 
d="M355.99 550.91c128.26 0 208.431 -88.1709 208.431 -228.351v-321.91c0 -118.56 -73.9102 -193.39 -192.47 -193.39h-31.0801v77.7002h19.2197c74.1396 0 119.33 46.0996 119.33 120.25v297.27c0 110.46 -51.4502 171.64 -145.34 171.64
c-92.3604 0 -163.42 -79.0996 -163.42 -180.409v-293.71h-85v540h60.3604l16.7998 -85.1797c40.7695 59.8799 109.699 96.0898 193.169 96.0898z" />
    <glyph glyph-name="ntilde" unicode="&#xf1;" horiz-adv-x="642" 
d="M205.67 625.57l0.00195312 -11h-52.1504v12.8301c0 72.8604 36.3896 120.25 96.9893 120.25c43.6904 0 67.5107 -22.1299 89.8203 -45.2295c18.2305 -18.8398 34.4102 -33.5703 59.4902 -33.5703c27.1396 0 44.8398 24.96 44.8398 63.5303v9h53.0596v-10.8203
c0 -72.8604 -37.2998 -120.25 -96.9902 -120.25c-46.2402 0 -72.7207 23.8604 -95.9404 46.79c-18.4902 17.2695 -32.8398 31.0996 -53.3701 31.0996c-26.1396 0 -45.75 -25.0498 -45.75 -62.6299zM355.992 551.82c128.26 0 208.43 -96.3809 208.43 -228.351v-323.47h-85
v303.4c0 109.54 -51.4502 170.72 -145.34 170.72c-92.3604 0 -163.42 -78.1797 -163.42 -179.5v-294.62h-85v540h60.3604l16.5498 -84.6396c40.7402 60.1104 109.78 96.46 193.42 96.46z" />
    <glyph glyph-name="o" unicode="o" horiz-adv-x="659" 
d="M329.26 -11.8203c-163.56 0 -286.3 120 -286.3 281.82c0 162.83 122.74 281.83 286.3 281.83c163.65 0 286.301 -120 286.301 -281.83c0 -161.82 -122.65 -281.82 -286.301 -281.82zM329.26 70.4395c115.59 0 199.489 83.959 199.489 199.549
s-83.8896 199.57 -199.479 199.57s-199.479 -83.8896 -199.479 -199.56c0 -115.59 83.9697 -199.56 199.47 -199.56z" />
    <glyph glyph-name="oacute" unicode="&#xf3;" horiz-adv-x="659" 
d="M280.36 603.44l67.4092 152h90.6504l-91.1299 -152h-66.9297zM329.27 -11.8193c-163.56 0 -286.3 120 -286.3 281.82c0 162.83 122.74 281.83 286.3 281.83c163.65 0 286.301 -120 286.301 -281.83c0 -161.82 -122.65 -281.82 -286.301 -281.82zM329.27 70.4404
c115.59 0 199.489 83.959 199.489 199.549s-83.8896 199.57 -199.479 199.57s-199.479 -83.8896 -199.479 -199.56c0 -115.59 83.9697 -199.56 199.47 -199.56z" />
    <glyph glyph-name="obreve" unicode="&#x14f;" horiz-adv-x="659" 
d="M329.26 598.35c-95.7695 0 -159.9 59.6504 -159.9 157.091h66.75v-2.83008c0 -62.0596 37.3096 -96.6396 93.1494 -96.6396c55.9297 0 91.3301 34.5801 91.3301 96.6396v2.83008h68.5703c0 -97.4404 -64.1299 -157.091 -159.899 -157.091zM329.259 -11.8203
c-163.56 0 -286.3 120 -286.3 281.82c0 162.83 122.74 281.83 286.3 281.83c163.65 0 286.301 -120 286.301 -281.83c0 -161.82 -122.65 -281.82 -286.301 -281.82zM329.259 70.4395c115.59 0 199.489 83.959 199.489 199.549s-83.8896 199.57 -199.479 199.57
s-199.479 -83.8896 -199.479 -199.56c0 -115.59 83.9697 -199.56 199.47 -199.56z" />
    <glyph glyph-name="ocircumflex" unicode="&#xf4;" horiz-adv-x="659" 
d="M497.59 603.44h-75.2197l-92.5195 100.86l-91.8604 -100.86h-75.2197l118.35 152h97.1201zM329.271 -11.8193c-163.56 0 -286.3 120 -286.3 281.82c0 162.83 122.74 281.83 286.3 281.83c163.65 0 286.301 -120 286.301 -281.83
c0 -161.82 -122.65 -281.82 -286.301 -281.82zM329.271 70.4404c115.59 0 199.489 83.959 199.489 199.549s-83.8896 199.57 -199.479 199.57s-199.479 -83.8896 -199.479 -199.56c0 -115.59 83.9697 -199.56 199.47 -199.56z" />
    <glyph glyph-name="odieresis" unicode="&#xf6;" horiz-adv-x="659" 
d="M181.51 633.5v97.4902h97.5303v-97.4902h-97.5303zM378.569 633.5v97.4902h97.5303v-97.4902h-97.5303zM329.26 -11.8193c-163.56 0 -286.3 120 -286.3 281.82c0 162.83 122.74 281.83 286.3 281.83c163.65 0 286.301 -120 286.301 -281.83
c0 -161.82 -122.65 -281.82 -286.301 -281.82zM329.26 70.4404c115.59 0 199.489 83.959 199.489 199.549s-83.8896 199.57 -199.479 199.57s-199.479 -83.8896 -199.479 -199.56c0 -115.59 83.9697 -199.56 199.47 -199.56z" />
    <glyph glyph-name="ograve" unicode="&#xf2;" horiz-adv-x="659" 
d="M370.64 603.44h-66.9209l-91.1299 152h90.6504zM329.269 -11.8193c-163.56 0 -286.3 120 -286.3 281.82c0 162.83 122.74 281.83 286.3 281.83c163.65 0 286.301 -120 286.301 -281.83c0 -161.82 -122.65 -281.82 -286.301 -281.82zM329.269 70.4404
c115.59 0 199.489 83.959 199.489 199.549s-83.8896 199.57 -199.479 199.57s-199.479 -83.8896 -199.479 -199.56c0 -115.59 83.9697 -199.56 199.47 -199.56z" />
    <glyph glyph-name="ohungarumlaut" unicode="&#x151;" horiz-adv-x="659" 
d="M202.03 603.44l62.8301 152h86.0898l-83.8203 -152h-65.0996zM377.221 603.44l76.5195 152h83.3496l-96.5996 -152h-63.2695zM329.25 -11.8193c-163.56 0 -286.3 120 -286.3 281.82c0 162.83 122.74 281.83 286.3 281.83c163.65 0 286.301 -120 286.301 -281.83
c0 -161.82 -122.65 -281.82 -286.301 -281.82zM329.25 70.4404c115.59 0 199.489 83.959 199.489 199.549s-83.8896 199.57 -199.479 199.57s-199.479 -83.8896 -199.479 -199.56c0 -115.59 83.9697 -199.56 199.47 -199.56z" />
    <glyph glyph-name="omacron" unicode="&#x14d;" horiz-adv-x="659" 
d="M172.26 648.59v67.6602h313v-67.6602h-313zM329.26 -11.8203c-163.56 0 -286.3 120 -286.3 281.82c0 162.83 122.74 281.83 286.3 281.83c163.65 0 286.301 -120 286.301 -281.83c0 -161.82 -122.65 -281.82 -286.301 -281.82zM329.26 70.4395
c115.59 0 199.489 83.959 199.489 199.549s-83.8896 199.57 -199.479 199.57s-199.479 -83.8896 -199.479 -199.56c0 -115.59 83.9697 -199.56 199.47 -199.56z" />
    <glyph glyph-name="oslash" unicode="&#xf8;" horiz-adv-x="660" 
d="M492.81 503.59c75.7002 -48.9902 123.788 -133.43 123.788 -233.59c0 -159.83 -119.74 -278.74 -280.3 -278.74c-40.79 0 -78.71 7.44043 -112.91 21.8506l-41.2402 -74.1104h-78.6201l57.0898 101.9c-72.8496 49.0801 -118.659 131.47 -118.659 229.18
c0 159.83 121.65 279.65 282.301 279.65c37.0703 0 72.4502 -6.86035 104.37 -19.3008l37.9004 70.5703h78.6201zM324.258 472.031c-116.32 0 -199.13 -85.6201 -199.13 -201.95c0 -67.6104 26.3203 -124.811 74.5605 -161.28l192.72 351.73
c-20.8701 7.12988 -44.0303 11.5 -68.1504 11.5zM336.298 68.9609c114.41 0 198.03 84.71 198.03 201.04c0 70 -30.5801 127.72 -80.6797 163.21l-192.83 -349.81c22.9697 -9.2002 48.0498 -14.4404 75.4795 -14.4404z" />
    <glyph glyph-name="oslashacute" unicode="&#x1ff;" horiz-adv-x="660" 
d="M438.89 755.44l-91.1309 -152h-66.9297l67.4102 152h90.6504zM492.809 503.591c75.7002 -48.9902 123.788 -133.43 123.788 -233.59c0 -159.83 -119.74 -278.74 -280.3 -278.74c-40.79 0 -78.71 7.44043 -112.91 21.8506l-41.2402 -74.1104h-78.6201l57.0898 101.9
c-72.8496 49.0801 -118.659 131.47 -118.659 229.18c0 159.83 121.65 279.65 282.301 279.65c37.0703 0 72.4502 -6.86035 104.37 -19.3008l37.9004 70.5703h78.6201zM324.257 472.032c-116.32 0 -199.13 -85.6201 -199.13 -201.95
c0 -67.6104 26.3203 -124.811 74.5605 -161.28l192.72 351.73c-20.8701 7.12988 -44.0303 11.5 -68.1504 11.5zM336.297 68.9619c114.41 0 198.03 84.71 198.03 201.04c0 70 -30.5801 127.72 -80.6797 163.21l-192.83 -349.81
c22.9697 -9.2002 48.0498 -14.4404 75.4795 -14.4404z" />
    <glyph glyph-name="otilde" unicode="&#xf5;" horiz-adv-x="659" 
d="M401.52 610.31c-46.25 0 -72.7393 23.8691 -95.959 46.7891c-18.4902 17.2803 -32.8398 31.1104 -53.3594 31.1104c-26.1396 0 -45.75 -25.0498 -45.75 -62.6299v-11h-52.1504v12.8301c0 72.8604 36.3896 120.25 96.9893 120.25
c43.6904 0 67.5107 -22.1299 89.8203 -45.2295c18.2305 -18.8398 34.4102 -33.5801 59.5 -33.5801c27.1396 0 44.8398 24.96 44.8398 63.5303v9h53.0596v-10.8203c0 -72.8604 -37.2998 -120.25 -96.9902 -120.25zM329.251 -11.8213c-163.56 0 -286.3 120 -286.3 281.82
c0 162.83 122.74 281.83 286.3 281.83c163.65 0 286.301 -120 286.301 -281.83c0 -161.82 -122.65 -281.82 -286.301 -281.82zM329.251 70.4385c115.59 0 199.489 83.959 199.489 199.549s-83.8896 199.57 -199.479 199.57s-199.479 -83.8896 -199.479 -199.56
c0 -115.59 83.9697 -199.56 199.47 -199.56z" />
    <glyph glyph-name="oe" unicode="&#x153;" horiz-adv-x="1114" 
d="M1072.6 269.61c0 -11.1201 -0.898438 -21.4199 -1.81836 -32.5498h-460.35c13.3096 -99.21 87.0293 -164.8 190.049 -164.8c73.7998 0 134.819 33.0996 168.129 92.3398h89.6504c-45.7002 -111.39 -140.65 -176.43 -257.78 -176.43
c-100.91 0 -186.11 51.7998 -233.2 132.17c-48.0303 -80.1797 -135.141 -131.25 -238.921 -131.25c-162.65 0 -285.391 119.99 -285.391 280.91c0 162.82 122.74 281.82 285.391 281.82c103.83 0 190.97 -51.1104 238.97 -131.61
c47.1104 80.25 132.271 131.61 233.141 131.61c157.48 0 272.131 -121.73 272.131 -282.211zM800.481 472.301c-98.3896 0 -171.01 -62.8096 -188.27 -157.54h375.8c-16.8799 95.54 -90.4199 157.54 -187.53 157.54zM328.361 70.4404
c113.76 0 197.648 83.9688 197.648 199.559c0 115.58 -83.8896 199.561 -197.649 199.561c-114.68 0 -198.569 -83.8896 -198.569 -199.56c0 -115.59 83.9805 -199.56 198.57 -199.56z" />
    <glyph glyph-name="p" unicode="p" horiz-adv-x="693" 
d="M372.44 551.83c160.91 0 277.551 -120.09 277.551 -281.83c0 -160.82 -116.65 -281.82 -277.561 -281.82c-81.21 0 -152 31.6699 -201.77 84.1396v-265.06h-85v732.74h58.54l16.9297 -82.5498c50.0498 58.6797 124.76 94.3799 211.31 94.3799zM366.041 70.4404
c114.5 0 198.04 84.7197 198.04 199.569s-83.54 199.56 -198.04 199.56c-114.32 0 -199.03 -85.7998 -199.03 -199.56c0 -113.68 84.71 -199.569 199.03 -199.569z" />
    <glyph glyph-name="thorn" unicode="&#xfe;" horiz-adv-x="694" 
d="M372.44 550.91c160.91 0 277.561 -120.09 277.561 -280.91c0 -160.83 -116.65 -281.83 -277.561 -281.83c-81.2197 0 -152.01 31.6699 -201.779 84.1504v-265.06h-85v925.47h85v-265.49c49.7695 52.2402 120.56 83.6699 201.779 83.6699zM366.051 70.4404
c114.5 0 198.03 84.709 198.03 199.559c0 113.94 -83.5303 198.65 -198.03 198.65c-114.33 0 -199.04 -85.7998 -199.04 -198.649c0 -113.68 84.71 -199.56 199.04 -199.56z" />
    <glyph glyph-name="q" unicode="q" horiz-adv-x="693" 
d="M548.76 540l58.54 0.00976562v-732.74h-85v264.88c-49.7002 -52.3701 -120.391 -83.9697 -201.69 -83.9697c-160.56 0 -277.649 121 -277.649 281.82c0 161.74 117.09 281.83 277.649 281.83c86.6201 0 161.2 -35.5996 211.17 -94.1396zM327 70.4502
c114.5 0 198.95 85.6182 198.95 199.559s-84.4502 199.561 -198.95 199.561c-114.32 0 -198.12 -84.8896 -198.12 -199.56c0 -114.59 83.7998 -199.56 198.12 -199.56z" />
    <glyph glyph-name="r" unicode="r" horiz-adv-x="386" 
d="M332.42 542.82l47.8291 0.000976562v-80.4404h-55.1299c-98.8301 0 -154.46 -64.0596 -154.46 -168.979v-293.4h-85v540h60.3604l13.8203 -82.21c38.2197 55.2197 94.8398 85.0293 172.58 85.0293z" />
    <glyph glyph-name="racute" unicode="&#x155;" horiz-adv-x="386" 
d="M339.89 756.35l-91.1309 -152h-66.9199l67.4004 152h90.6504zM332.419 542.819l47.8291 0.000976562v-80.4404h-55.1299c-98.8301 0 -154.46 -64.0596 -154.46 -168.979v-293.4h-85v540h60.3604l13.8203 -82.21c38.2197 55.2197 94.8398 85.0293 172.58 85.0293z" />
    <glyph glyph-name="rcaron" unicode="&#x159;" horiz-adv-x="386" 
d="M278.8 604.35h-97.1309l-118.35 152h75.2305l91.8496 -100.87l92.5195 100.87h75.2305zM159.839 457.79c38.2197 55.2197 94.8389 85.0303 172.579 85.0303h47.8301v-80.4404h-55.1299c-98.8301 0 -154.46 -64.0596 -154.46 -168.979v-293.4h-85v540h60.3604z" />
    <glyph glyph-name="s" unicode="s" horiz-adv-x="513" 
d="M256.56 -11.8203c-128.12 0 -211.17 68.792 -215.7 177.392h83.1797c4.51953 -64.1904 59.75 -98.7607 135.25 -98.7607c73.8496 0 126.859 31.2695 126.859 84.1592c0 63.0303 -66.7998 75.5498 -139.899 87.8994c-92.1699 16 -195.3 34.7402 -195.3 156.641
c0 93.04 81.4805 156.34 203.431 156.34c122.04 0 200.34 -65.04 203.6 -166.9h-80.4404c-3.25977 58.3604 -49.0996 91.0205 -124.989 91.0205c-73.0596 0 -119.329 -30.9297 -119.329 -77.7295c0 -57.1504 62.0996 -67.5 134.199 -78.9404
c93.1797 -15.0898 202.83 -32.3496 202.83 -164.689c0 -100.95 -85.4805 -166.431 -213.69 -166.431z" />
    <glyph glyph-name="sacute" unicode="&#x15b;" horiz-adv-x="513" 
d="M206.66 603.44l67.4092 152h90.6504l-91.1299 -152h-66.9297zM256.569 -11.8193c-128.12 0 -211.17 68.792 -215.7 177.392h83.1797c4.51953 -64.1904 59.75 -98.7607 135.25 -98.7607c73.8496 0 126.859 31.2695 126.859 84.1592
c0 63.0303 -66.7998 75.5498 -139.899 87.8994c-92.1699 16 -195.3 34.7402 -195.3 156.641c0 93.04 81.4805 156.34 203.431 156.34c122.04 0 200.34 -65.04 203.6 -166.9h-80.4404c-3.25977 58.3604 -49.0996 91.0205 -124.989 91.0205
c-73.0596 0 -119.329 -30.9297 -119.329 -77.7295c0 -57.1504 62.0996 -67.5 134.199 -78.9404c93.1797 -15.0898 202.83 -32.3496 202.83 -164.689c0 -100.95 -85.4805 -166.431 -213.69 -166.431z" />
    <glyph glyph-name="scaron" unicode="&#x161;" horiz-adv-x="513" 
d="M347.75 755.44h75.2295l-119.35 -152h-97.1299l-118.35 152h75.2197l91.8604 -100.86zM256.569 -11.8193c-128.12 0 -211.17 68.792 -215.7 177.392h83.1797c4.51953 -64.1904 59.75 -98.7607 135.25 -98.7607c73.8496 0 126.859 31.2695 126.859 84.1592
c0 63.0303 -66.7998 75.5498 -139.899 87.8994c-92.1699 16 -195.3 34.7402 -195.3 156.641c0 93.04 81.4805 156.34 203.431 156.34c122.04 0 200.34 -65.04 203.6 -166.9h-80.4404c-3.25977 58.3604 -49.0996 91.0205 -124.989 91.0205
c-73.0596 0 -119.329 -30.9297 -119.329 -77.7295c0 -57.1504 62.0996 -67.5 134.199 -78.9404c93.1797 -15.0898 202.83 -32.3496 202.83 -164.689c0 -100.95 -85.4805 -166.431 -213.69 -166.431z" />
    <glyph glyph-name="scedilla" unicode="&#x15f;" horiz-adv-x="513" 
d="M470.25 154.6c0 -92.9297 -72.4424 -155.768 -183.962 -165.178l-10.3799 -38.1201c55.9004 -6.54004 94.1504 -43.0205 94.1504 -93.9902c0 -56.2998 -44 -95.04 -111.3 -95.04h-73.7695v49.4102h63.7402c34.8398 0 58.2402 19.96 58.2402 48.3604
c0 28.3096 -23.4902 47.4492 -58.4199 47.4492h-25.5098l-9.2998 9.38965l18.7998 72.1396c-114.41 8.12012 -187.44 74.8799 -191.681 176.54h83.1797c4.51953 -64.1904 59.75 -98.7607 135.25 -98.7607c73.8496 0 126.859 31.2695 126.859 84.1592
c0 63.0303 -66.7998 75.5498 -139.899 87.8994c-92.1699 16 -195.3 34.7402 -195.3 156.641c0 93.04 81.4805 156.34 203.431 156.34c122.04 0 200.34 -65.04 203.6 -166.9h-80.4404c-3.25977 58.3604 -49.0996 91.0205 -124.989 91.0205
c-73.0596 0 -119.329 -30.9297 -119.329 -77.7295c0 -57.1504 62.0996 -67.5 134.199 -78.9404c93.1797 -15.0898 202.83 -32.3496 202.83 -164.689z" />
    <glyph glyph-name="scircumflex" unicode="&#x15d;" horiz-adv-x="513" 
d="M423.89 603.44h-75.2197l-92.5195 100.86l-91.8604 -100.86h-75.2197l118.35 152h97.1201zM256.57 -11.8193c-128.12 0 -211.17 68.792 -215.7 177.392h83.1797c4.51953 -64.1904 59.75 -98.7607 135.25 -98.7607c73.8496 0 126.859 31.2695 126.859 84.1592
c0 63.0303 -66.7998 75.5498 -139.899 87.8994c-92.1699 16 -195.3 34.7402 -195.3 156.641c0 93.04 81.4805 156.34 203.431 156.34c122.04 0 200.34 -65.04 203.6 -166.9h-80.4404c-3.25977 58.3604 -49.0996 91.0205 -124.989 91.0205
c-73.0596 0 -119.329 -30.9297 -119.329 -77.7295c0 -57.1504 62.0996 -67.5 134.199 -78.9404c93.1797 -15.0898 202.83 -32.3496 202.83 -164.689c0 -100.95 -85.4805 -166.431 -213.69 -166.431z" />
    <glyph glyph-name="germandbls" unicode="&#xdf;" horiz-adv-x="611" 
d="M456.64 386.39c68.6602 -27.9902 109.081 -93.3906 109.081 -179.66c0 -123 -95.3496 -206.73 -237.14 -206.73h-71.6797v82.2598h71.6797c91.9102 0 153.97 53.1904 153.97 131.771c0 75.1904 -59.6104 128.29 -146.7 128.29h-69.8604v79.5303h59.8203
c76.9502 0 133.21 50.54 133.21 121.94c0 70.3203 -57.9199 119.94 -138.37 119.94c-94.4102 0 -149.99 -60.6201 -149.99 -163.96v-499.77h-85v499.77c0 154.14 87.04 245.31 234.99 245.31c124.77 0 216.069 -83.9102 216.069 -196.73
c0 -69.79 -31.0898 -130.89 -80.0801 -161.96z" />
    <glyph glyph-name="longs" unicode="&#x17f;" horiz-adv-x="276" 
d="M85.6602 0v588.13c0 92.6602 52.04 144.601 146.6 144.601h93.9404v-77.6904h-69.2998c-59.3701 0 -86.2402 -26.8799 -86.2402 -85.1602v-569.88h-85z" />
    <glyph glyph-name="t" unicode="t" horiz-adv-x="396" 
d="M309.37 78.6104l59.001 -0.000976562v-78.6104h-69.9502c-115.98 0 -187.591 71.6904 -187.591 188.761v274.45h-95.0303v15.21l166.73 175.9h13.3096v-114.32h169.36v-76.79h-169.36v-271.71c0 -72.6699 40.04 -112.89 113.53 -112.89z" />
    <glyph glyph-name="tbar" unicode="&#x167;" horiz-adv-x="411" 
d="M320.62 78.6104l59 -0.000976562v-78.6104h-69.9502c-115.98 0 -187.58 71.6904 -187.58 188.761v51.8398h-95.3301v76.79h95.3301v145.82h-95.04v15.21l166.73 175.9h13.3096v-114.32h169.36v-76.79h-169.36v-145.82h167.9v-76.79h-167.9v-49.0996
c0 -72.6699 40.04 -112.89 113.53 -112.89z" />
    <glyph glyph-name="tcaron" unicode="&#x165;" horiz-adv-x="398" 
d="M373.45 732.73h87.9199v-73.2305c0 -52.3398 -35.5498 -98.1494 -83.6602 -106.77l-0.610352 40.21c26.8604 6.7002 42.1602 29.2598 42.1602 59.9102h-45.8096v79.8799zM193.12 191.5c0 -72.6699 40.0498 -112.89 113.54 -112.89h59v-78.6104h-69.9502
c-115.99 0 -187.59 71.6904 -187.59 188.761v274.45h-95.04v13.3896l168.57 177.72h11.4697v-114.32h158.41v-76.79h-158.41v-271.71z" />
    <glyph glyph-name="u" unicode="u" horiz-adv-x="632" 
d="M315.91 -11.8301c-145.21 0 -239.432 94.7393 -239.432 239.649v312.18h85v-298.49c0 -106.06 59.1104 -171.069 154.431 -171.069c96.2402 0 154.431 65.9199 154.431 171.07v298.49h84.9902v-312.18c0 -144.91 -93.29 -239.65 -239.42 -239.65z" />
    <glyph glyph-name="uacute" unicode="&#xfa;" horiz-adv-x="632" 
d="M267.01 603.44l67.3994 152h90.6504l-91.1201 -152h-66.9297zM315.909 -11.8291c-145.21 0 -239.432 94.7393 -239.432 239.649v312.18h85v-298.49c0 -106.06 59.1104 -171.069 154.431 -171.069c96.2402 0 154.431 65.9199 154.431 171.07v298.49h84.9902v-312.18
c0 -144.91 -93.29 -239.65 -239.42 -239.65z" />
    <glyph glyph-name="ubreve" unicode="&#x16d;" horiz-adv-x="632" 
d="M315.91 598.35c-95.7695 0 -159.9 59.6504 -159.9 157.091h66.75v-2.83008c0 -62.0596 37.3096 -96.6396 93.1494 -96.6396c55.9199 0 91.3301 34.5801 91.3301 96.6396v2.83008h68.5703c0 -97.4404 -64.1299 -157.091 -159.899 -157.091zM315.909 -11.8301
c-145.21 0 -239.432 94.7393 -239.432 239.649v312.18h85v-298.49c0 -106.06 59.1104 -171.069 154.431 -171.069c96.2402 0 154.431 65.9199 154.431 171.07v298.49h84.9902v-312.18c0 -144.91 -93.29 -239.65 -239.42 -239.65z" />
    <glyph glyph-name="ucircumflex" unicode="&#xfb;" horiz-adv-x="632" 
d="M484.24 603.44h-75.2305l-92.5195 100.86l-91.8604 -100.86h-75.2197l118.35 152h97.1201zM315.91 -11.8291c-145.21 0 -239.432 94.7393 -239.432 239.649v312.18h85v-298.49c0 -106.06 59.1104 -171.069 154.431 -171.069c96.2402 0 154.431 65.9199 154.431 171.07
v298.49h84.9902v-312.18c0 -144.91 -93.29 -239.65 -239.42 -239.65z" />
    <glyph glyph-name="udieresis" unicode="&#xfc;" horiz-adv-x="632" 
d="M168.16 633.5v97.4902h97.5303v-97.4902h-97.5303zM365.22 633.5v97.4902h97.5195v-97.4902h-97.5195zM315.91 -11.8193c-145.21 0 -239.421 94.7393 -239.421 239.649v312.18h85v-298.49c0 -106.06 59.0996 -171.069 154.42 -171.069
c96.2402 0 154.431 65.9199 154.431 171.07v298.49h85v-312.18c0 -144.91 -93.2998 -239.65 -239.43 -239.65z" />
    <glyph glyph-name="ugrave" unicode="&#xf9;" horiz-adv-x="632" 
d="M357.29 603.44h-66.9297l-91.1201 152h90.6396zM315.91 -11.8291c-145.21 0 -239.432 94.7393 -239.432 239.649v312.18h85v-298.49c0 -106.06 59.1104 -171.069 154.431 -171.069c96.2402 0 154.431 65.9199 154.431 171.07v298.49h84.9902v-312.18
c0 -144.91 -93.29 -239.65 -239.42 -239.65z" />
    <glyph glyph-name="uhungarumlaut" unicode="&#x171;" horiz-adv-x="632" 
d="M188.67 603.44l62.8398 152h86.0898l-83.8301 -152h-65.0996zM363.87 603.44l76.5303 152h83.3496l-96.5996 -152h-63.2803zM315.91 -11.8291c-145.21 0 -239.432 94.7393 -239.432 239.649v312.18h85v-298.49c0 -106.06 59.1104 -171.069 154.431 -171.069
c96.2402 0 154.431 65.9199 154.431 171.07v298.49h84.9902v-312.18c0 -144.91 -93.29 -239.65 -239.42 -239.65z" />
    <glyph glyph-name="umacron" unicode="&#x16b;" horiz-adv-x="632" 
d="M158.91 648.58v67.6699h313v-67.6699h-313zM315.91 -11.8301c-145.21 0 -239.432 94.7393 -239.432 239.649v312.18h85v-298.49c0 -106.06 59.1104 -171.069 154.431 -171.069c96.2402 0 154.431 65.9199 154.431 171.07v298.49h84.9902v-312.18
c0 -144.91 -93.29 -239.65 -239.42 -239.65z" />
    <glyph glyph-name="uni0123" unicode="&#x123;" horiz-adv-x="674" 
d="M364.55 712.04l0.0195312 -79.8896h-87.9297v73.2402c0 52.3398 35.5498 98.1494 83.6602 106.76l0.610352 -40.2002c-26.8096 -6.5498 -41.8896 -29.2002 -42.3701 -59.9102h46.0098zM531.909 540l56.7207 -0.0224609v-464.47
c0 -174.09 -100.47 -280.09 -264.77 -280.09c-132.43 0 -226.29 68.9502 -255.82 183.55h85c24.0498 -67.54 92.0996 -105.85 170.81 -105.85c108.02 0 181.59 71.71 181.59 191.44v33.0098c-48.3896 -50.0498 -117.42 -80.3193 -196.72 -80.3193
c-149.91 0 -265.65 115.83 -265.65 266.83c0 150.91 115.83 267.74 265.66 267.74c86.3096 0 160.93 -36.6699 209.689 -95.8096zM317.86 98.5879c108.24 0 186.69 78.7197 186.69 185.479c0 107.59 -78.54 186.39 -186.69 186.39
c-108.24 0 -187.95 -79.8896 -187.95 -186.39c0 -105.68 79.71 -185.479 187.95 -185.479z" />
    <glyph glyph-name="uni0137" unicode="&#x137;" horiz-adv-x="553" 
d="M331.38 281.1l216.931 -281.101h-106.34l-184.94 242.24h-77.25v-242.24h-85v732.73h85v-411.88h78.5l166.43 219.15h103.6zM241.771 -135.641l0.00976562 79.8896h87.9297v-73.2402c0 -51.8096 -35.4697 -98.0596 -84.1895 -106.59v40.9004
c26.5996 6.34961 41.7197 29 41.7197 59.04h-45.4697z" />
    <glyph glyph-name="uni013C" unicode="&#x13c;" horiz-adv-x="256" 
d="M85.6602 0v732.73h85v-732.73h-85zM87.4404 -235.579l-0.0107422 40.9004c26.6104 6.34961 41.7305 29 41.7305 59.04h-45.46v79.8896h87.9199v-73.2402c0 -51.8096 -35.46 -98.0596 -84.1797 -106.59z" />
    <glyph glyph-name="uni0146" unicode="&#x146;" horiz-adv-x="642" 
d="M355.99 551.82c128.26 0 208.43 -96.3809 208.43 -228.351v-323.47h-85v303.4c0 109.54 -51.4502 170.72 -145.34 170.72c-92.3604 0 -163.42 -78.1797 -163.42 -179.5v-294.62h-85v540h60.3604l16.5498 -84.6396c40.7402 60.1104 109.78 96.46 193.42 96.46z
M277.71 -135.641v79.8896h87.9199v-73.2402c0 -51.8096 -35.46 -98.0596 -84.1797 -106.59v40.9004c26.5996 6.34961 41.7197 29 41.7197 59.04h-45.46z" />
    <glyph glyph-name="uni0157" unicode="&#x157;" horiz-adv-x="386" 
d="M332.42 542.82l47.8291 0.000976562v-80.4404h-55.1299c-98.8301 0 -154.46 -64.0596 -154.46 -168.979v-293.4h-85v540h60.3604l13.8203 -82.21c38.2197 55.2197 94.8398 85.0293 172.58 85.0293zM84.6094 -135.639v79.8896h87.9199v-73.2402
c0 -51.8096 -35.46 -98.0596 -84.1797 -106.59v40.9004c26.5996 6.34961 41.7197 29 41.7197 59.04h-45.46z" />
    <glyph glyph-name="uni0163" unicode="&#x163;" horiz-adv-x="394" 
d="M273.43 -42.3301c55.9004 -6.54004 94.1494 -43.0186 94.1494 -93.9785c0 -56.2998 -44 -95.04 -111.29 -95.04h-73.7803v49.4102h63.7402c34.8301 0 58.2402 19.96 58.2402 48.3604c0 28.3096 -23.4902 47.4492 -58.4199 47.4492h-25.5098l-9.2998 9.38965
l22.0596 84.6699c-78.7197 21.6396 -125.2 86.5098 -125.2 180.83v274.45h-95.04v13.3896l168.57 177.72h11.4697v-114.32h170.28v-76.79h-170.28v-271.71c0 -72.6699 40.0498 -112.89 113.54 -112.89h59.9102v-78.6104h-70.8604
c-3.61035 0 -7.16992 0.0703125 -10.6895 0.200195z" />
    <glyph glyph-name="uni0219" unicode="&#x219;" horiz-adv-x="513" 
d="M256.56 -11.8203c-128.12 0 -211.17 68.792 -215.7 177.392h83.1797c4.51953 -64.1904 59.75 -98.7607 135.25 -98.7607c73.8496 0 126.859 31.2695 126.859 84.1592c0 63.0303 -66.7998 75.5498 -139.899 87.8994c-92.1699 16 -195.3 34.7402 -195.3 156.641
c0 93.04 81.4805 156.34 203.431 156.34c122.04 0 200.34 -65.04 203.6 -166.9h-80.4404c-3.25977 58.3604 -49.0996 91.0205 -124.989 91.0205c-73.0596 0 -119.329 -30.9297 -119.329 -77.7295c0 -57.1504 62.0996 -67.5 134.199 -78.9404
c93.1797 -15.0898 202.83 -32.3496 202.83 -164.689c0 -100.95 -85.4805 -166.431 -213.69 -166.431zM230.3 -241.948l-0.00976562 40.8896c26.5996 6.34961 41.7197 29 41.7197 59.04h-45.46v79.8896h87.9297v-73.2402c0 -51.8096 -35.46 -98.0596 -84.1797 -106.579z" />
    <glyph glyph-name="uni021B" unicode="&#x21b;" horiz-adv-x="396" 
d="M309.37 78.6104l59.001 -0.000976562v-78.6104h-69.9502c-115.98 0 -187.591 71.6904 -187.591 188.761v274.45h-95.0303v15.21l166.73 175.9h13.3096v-114.32h169.36v-76.79h-169.36v-271.71c0 -72.6699 40.04 -112.89 113.53 -112.89zM199.951 -135.641v79.8896
h87.9199v-73.2402c0 -51.8096 -35.46 -98.0596 -84.1904 -106.59v40.9004c26.6104 6.34961 41.7305 29 41.7305 59.04h-45.46z" />
    <glyph glyph-name="uogonek" unicode="&#x173;" horiz-adv-x="631" 
d="M469.42 540l85 -0.000976562v-311.26c0 -99.6699 -43.2197 -169.89 -134.569 -216.88c-52.5303 -26.9502 -86.75 -70.5205 -86.75 -112.921c0 -40.6201 30.5195 -63.4102 74.5693 -63.4102c16.9199 0 33.6504 3.83008 51.2207 9.74023v-50.4102
c-23.1299 -12.21 -49.0801 -17.8604 -73.1201 -17.8604c-64.6504 0 -116.681 37.8203 -116.681 102.771c0 41.54 19.0801 82.1904 44.1396 109.511c-3.08008 -0.129883 -6.13965 -0.189453 -9.17969 -0.189453c-129.7 0 -227.57 101.12 -227.57 241.47v309.44h85v-299.4
c0 -105.15 58.1904 -169.25 153.521 -169.25c95.3203 0 154.42 64.0996 154.42 169.25v299.4z" />
    <glyph glyph-name="uring" unicode="&#x16f;" horiz-adv-x="632" 
d="M315.91 589.61c-66.9502 0 -114.07 45.21 -114.07 107.51c0 63.21 47.1201 107.51 114.07 107.51s114.08 -44.2998 114.08 -107.51c0 -62.2998 -47.1299 -107.51 -114.08 -107.51zM315.91 638.11c36.2305 0 61.9209 23.79 61.9209 59.0098
c0 36.1396 -25.6904 59.9297 -61.9209 59.9297s-61.9307 -23.79 -61.9307 -59.9297c0 -35.2197 25.7002 -59.0098 61.9307 -59.0098zM315.91 -11.8301c-145.21 0 -239.432 94.7393 -239.432 239.649v312.18h85v-298.49c0 -106.06 59.1104 -171.069 154.431 -171.069
c96.2402 0 154.431 65.9199 154.431 171.07v298.49h84.9902v-312.18c0 -144.91 -93.29 -239.65 -239.42 -239.65z" />
    <glyph glyph-name="utilde" unicode="&#x169;" horiz-adv-x="632" 
d="M388.17 610.31c-46.25 0 -72.7188 23.8604 -95.9492 46.79c-18.4902 17.2695 -32.8398 31.0996 -53.3594 31.0996c-26.1396 0 -45.75 -25.0498 -45.75 -62.6299v-11h-52.1504v12.8301c0 72.8604 36.3896 120.25 96.9893 120.25
c43.6904 0 67.5107 -22.1299 89.8203 -45.2295c18.2305 -18.8398 34.4004 -33.5703 59.4902 -33.5703c27.1396 0 44.8398 24.96 44.8398 63.5303v9h53.0596v-10.8203c0 -72.8604 -37.2998 -120.25 -96.9902 -120.25zM315.911 -11.8301
c-145.21 0 -239.432 94.7393 -239.432 239.649v312.18h85v-298.49c0 -106.06 59.1104 -171.069 154.431 -171.069c96.2402 0 154.431 65.9199 154.431 171.07v298.49h84.9902v-312.18c0 -144.91 -93.29 -239.65 -239.42 -239.65z" />
    <glyph glyph-name="v" unicode="v" horiz-adv-x="572" 
d="M466.9 540h86.9092l-227.66 -540h-77.3496l-233.58 540h88.7402l183.36 -429.56z" />
    <glyph glyph-name="w" unicode="w" horiz-adv-x="849" 
d="M743.95 540h86.001l-183.97 -540h-69.1299l-152.65 367.93l-152.49 -367.93h-69.1396l-182.44 540h88.7402l134.25 -398l165.67 389.77h30.8096l166.47 -393.18z" />
    <glyph glyph-name="wacute" unicode="&#x1e83;" horiz-adv-x="849" 
d="M531.06 755.44l-91.1211 -152h-66.9297l67.4004 152h90.6504zM743.948 540h86.001l-183.97 -540h-69.1299l-152.65 367.93l-152.49 -367.93h-69.1396l-182.44 540h88.7402l134.25 -398l165.67 389.77h30.8096l166.47 -393.18z" />
    <glyph glyph-name="wcircumflex" unicode="&#x175;" horiz-adv-x="849" 
d="M422.49 704.3l-91.8604 -100.86h-75.2197l118.35 152h97.1201l119.36 -152h-75.2305zM743.95 539.999h86.001l-183.97 -540h-69.1299l-152.65 367.93l-152.49 -367.93h-69.1396l-182.44 540h88.7402l134.25 -398l165.67 389.77h30.8096l166.47 -393.18z" />
    <glyph glyph-name="wdieresis" unicode="&#x1e85;" horiz-adv-x="849" 
d="M274.16 633.5v97.4902h97.5195v-97.4902h-97.5195zM471.22 633.5v97.4902h97.5195v-97.4902h-97.5195zM743.95 540l86.001 -0.000976562l-183.96 -540h-69.1396l-152.65 367.93l-152.49 -367.93h-69.1396l-182.44 540h88.7402l134.25 -398l165.67 389.78h30.8096
l166.47 -393.18z" />
    <glyph glyph-name="wgrave" unicode="&#x1e81;" horiz-adv-x="849" 
d="M463.29 603.44h-66.9307l-91.1299 152h90.6504zM743.949 540h86.001l-183.97 -540h-69.1299l-152.65 367.93l-152.49 -367.93h-69.1396l-182.44 540h88.7402l134.25 -398l165.67 389.77h30.8096l166.47 -393.18z" />
    <glyph glyph-name="x" unicode="x" horiz-adv-x="513" 
d="M506.71 0h-95.3008l-154.9 224.96l-155.43 -224.96h-93.4697l197.98 280.66l-181.45 259.34h95.2998l137.96 -199.59l140.22 199.59h93.4805l-183.33 -255.52z" />
    <glyph glyph-name="y" unicode="y" horiz-adv-x="586" 
d="M480.46 540l90.5605 0.000976562l-257.36 -562.33c-58.21 -127.9 -109.6 -170.41 -211.5 -170.41h-50.8604v76.79h43.5596c72.2598 0 97.75 22.0898 141.19 112.31l19.4297 40.46l-240.26 503.18h92.4805l192 -408.73z" />
    <glyph glyph-name="yacute" unicode="&#xfd;" horiz-adv-x="586" 
d="M404.62 755.44l-91.1211 -152h-66.9297l67.4004 152h90.6504zM480.459 540l90.5605 0.000976562l-257.36 -562.33c-58.21 -127.9 -109.6 -170.41 -211.5 -170.41h-50.8604v76.79h43.5596c72.2598 0 97.75 22.0898 141.19 112.31l19.4297 40.46l-240.26 503.18h92.4805
l192 -408.73z" />
    <glyph glyph-name="ycircumflex" unicode="&#x177;" horiz-adv-x="586" 
d="M296.05 704.3l-91.8486 -100.86h-75.2305l118.35 152h97.1299l119.35 -152h-75.2305zM480.461 539.999l90.5605 0.000976562l-257.36 -562.33c-58.21 -127.9 -109.6 -170.41 -211.5 -170.41h-50.8604v76.79h43.5596c72.2598 0 97.75 22.0898 141.19 112.31l19.4297 40.46
l-240.26 503.18h92.4805l192 -408.73z" />
    <glyph glyph-name="ydieresis" unicode="&#xff;" horiz-adv-x="586" 
d="M147.73 633.5v97.4902h97.5303v-97.4902h-97.5303zM344.79 633.5v97.4902h97.5303v-97.4902h-97.5303zM480.47 540l90.5498 0.000976562l-257.36 -562.33c-58.21 -127.9 -109.6 -170.41 -211.5 -170.41h-50.8604v76.79h43.5596c72.2598 0 97.75 22.0898 141.19 112.31
l19.4404 40.46l-240.26 503.18h92.4805l192 -408.72z" />
    <glyph glyph-name="ygrave" unicode="&#x1ef3;" horiz-adv-x="586" 
d="M336.85 603.44h-66.9307l-91.1201 152h90.6504zM480.459 540l90.5605 0.000976562l-257.36 -562.33c-58.21 -127.9 -109.6 -170.41 -211.5 -170.41h-50.8604v76.79h43.5596c72.2598 0 97.75 22.0898 141.19 112.31l19.4297 40.46l-240.26 503.18h92.4805l192 -408.73z
" />
    <glyph glyph-name="z" unicode="z" horiz-adv-x="481" 
d="M161.99 79.5195l286.469 -0.000976562v-79.5195h-423.38v12.5596l286.57 448.82h-267.83v78.6201h402.94v-14.2998z" />
    <glyph glyph-name="zacute" unicode="&#x17a;" horiz-adv-x="481" 
d="M358.01 755.44l-91.1309 -152h-66.9199l67.4004 152h90.6504zM161.989 79.5205l286.469 -0.000976562v-79.5195h-423.38v12.5596l286.57 448.82h-267.83v78.6201h402.94v-14.2998z" />
    <glyph glyph-name="zcaron" unicode="&#x17e;" horiz-adv-x="481" 
d="M296.92 603.44h-97.1201l-118.35 152h75.2197l91.8604 -100.87l92.5195 100.87h75.2197zM161.99 79.5205l286.469 -0.000976562v-79.5195h-423.38v12.5596l286.57 448.82h-267.83v78.6201h402.94v-14.2998z" />
    <glyph glyph-name="zdotaccent" unicode="&#x17c;" horiz-adv-x="481" 
d="M294.88 730.98v-97.4805h-92.0498v97.4805h92.0498zM161.99 79.5195l286.469 -0.000976562v-79.5195h-423.38v12.5596l286.57 448.82h-267.83v78.6201h402.94v-14.2998z" />
    <glyph glyph-name="germandbls.calt" horiz-adv-x="688" 
d="M450.45 447.63c117.99 -14.8301 192.03 -94.999 192.03 -216.599c0 -134.38 -97.6504 -231.03 -255.12 -231.03h-92.4805v85h92.4805c99.0195 0 165.56 60.1904 165.56 146.03c0 86.4199 -66.4502 146.34 -165.3 146.34h-67.6602v18.04l127.33 220.5h-115.68
c-101.11 0 -155.48 -53.3604 -155.48 -154.471v-461.44h-87.7305v470.56c0 142.7 86.7402 229.44 229.521 229.44h268.3v-16.21z" />
    <glyph glyph-name="i.loclTRK" horiz-adv-x="256" 
d="M82.1396 633.5v97.4805h92.0498v-97.4805h-92.0498zM85.6592 0v540h85v-540h-85z" />
    <glyph glyph-name="k.ss01" horiz-adv-x="521" 
d="M85.6602 0v732.73h85v-732.73h-85zM287.03 281.301l237.68 -281.3h-109.16l-227.6 276.17v8.91016l213.07 254.92h106.43z" />
    <glyph glyph-name="ordfeminine" unicode="&#xaa;" horiz-adv-x="461" 
d="M344.27 707.17l43.9395 -0.000976562v-335.43h-45.7598l-6.7002 53.79c-29.9199 -35.4297 -74.29 -57.5293 -125.88 -57.5293c-92 0 -164.91 76 -164.91 172c0 94.9102 72.9102 170.91 164.91 170.91c51.9902 0 96.6406 -22.4502 126.57 -58.1807zM216.259 421.059
c64.8398 0 114.32 50.75 114.32 118.94c0 67.0996 -49.4805 118.76 -114.32 118.76c-65.8398 0 -115.5 -52.6602 -115.5 -118.76c0 -67.1904 50.5703 -118.94 115.5 -118.94z" />
    <glyph glyph-name="ordmasculine" unicode="&#xba;" horiz-adv-x="439" 
d="M219.96 368c-100 0 -176 73 -176 171s76 171 176 171s175 -73 175 -171s-75 -171 -175 -171zM219.96 421.06c69.3604 0 119.2 49.75 119.2 117.94s-49.8398 117.94 -119.2 117.94s-119.29 -49.75 -119.29 -117.94s49.9297 -117.94 119.29 -117.94z" />
    <glyph glyph-name="uni0410" unicode="&#x410;" horiz-adv-x="697" 
d="M584.64 0l-69.4609 167.63h-336.4l-68.4297 -167.63h-93.2998l286.4 700h81.9102l294.4 -700h-95.1201zM345.648 579.17l-134.14 -331.1h270.68z" />
    <glyph glyph-name="uni0411" unicode="&#x411;" horiz-adv-x="613" 
d="M351.38 433.02c130.66 0 223.48 -90.3906 223.48 -215.511c0 -126.12 -94.8301 -217.51 -225.561 -217.51h-253.73v700h428.73v-83.1797h-340.99v-183.8h168.07zM342.91 85.9082c82.6699 0 142.39 55.3594 142.39 131.6s-58.6299 129.601 -141.22 129.601h-160.77v-261.2
h159.6z" />
    <glyph glyph-name="uni0412" unicode="&#x412;" horiz-adv-x="645" 
d="M483.32 363.11c64.7598 -27.75 104.46 -93.9102 104.46 -170.45c0 -108.56 -91.6904 -192.649 -212.04 -192.649h-280.16v700h276.51c114.48 0 197.341 -76.7402 197.341 -178.78c0 -62.75 -33.5703 -127.15 -86.1104 -158.12zM479.87 509.38
c0 59.54 -48.1006 104.72 -109.641 104.72h-187.83v-209.71h188.44c62.1904 0 109.03 46.71 109.03 104.99zM374.789 86.8291c69.9805 0 122.521 48.8105 122.521 115.87c0 65.9697 -52.4502 115.77 -122.08 115.77h-192.83v-231.64h192.39z" />
    <glyph glyph-name="uni0413" unicode="&#x413;" horiz-adv-x="492" 
d="M471.12 700v-82.2598h-287.81v-617.74h-87.7402v700h375.55z" />
    <glyph glyph-name="uni0403" unicode="&#x403;" horiz-adv-x="492" 
d="M378.85 920.52l-96.5605 -142h-66.9297l72.8398 142h90.6504zM471.119 700v-82.2598h-287.81v-617.74h-87.7402v700h375.55z" />
    <glyph glyph-name="uni0490" unicode="&#x490;" horiz-adv-x="492" 
d="M388.86 805h82.2598v-187.26h-287.81v-617.74h-87.7402v700h293.29v105z" />
    <glyph glyph-name="uni0414" unicode="&#x414;" horiz-adv-x="756" 
d="M639.46 82.2598h72.6982v-225.4h-81.3496v143.14h-526.86v-143.14h-81.3496v225.4h54.7305c67.4805 42.2803 82.6807 132.45 124.541 617.74h437.59v-617.74zM282.639 617.74c-28.2402 -367.43 -48.2295 -482.051 -106.68 -535.48h374.85v535.48h-268.17z" />
    <glyph glyph-name="uni0415" unicode="&#x415;" horiz-adv-x="553" 
d="M183.31 84.0801h319.64v-84.0801h-407.38v700h396.38v-83.1797h-308.64v-216.36h282.64v-81.3496h-282.64v-235.03z" />
    <glyph glyph-name="uni0401" unicode="&#x401;" horiz-adv-x="553" 
d="M134.29 788.03v97.4902h97.5195v-97.4902h-97.5195zM351.45 788.03v97.4902h97.5303v-97.4902h-97.5303zM183.311 84.0908h319.64v-84.0898h-407.38v700h396.38v-83.1699h-308.64v-216.36h282.64v-81.3496h-282.64v-235.03z" />
    <glyph glyph-name="uni0416" unicode="&#x416;" horiz-adv-x="958" 
d="M845.7 0l-237.318 320.67h-85v-320.67h-88.6396v320.67h-85l-237.32 -320.67h-110.9l270.17 364.57l-244.08 335.43h107.25l215.41 -297.06h84.4697v297.06h88.6396v-297.06h84.46l215.42 297.06h106.34l-243.2 -335.39l270.2 -364.61h-110.9z" />
    <glyph glyph-name="uni0417" unicode="&#x417;" horiz-adv-x="575" 
d="M420.47 369.65c60.3398 -30.8701 99.6309 -97.6289 99.6309 -172.989c0 -119.74 -102.12 -207.48 -240.98 -207.48c-133.6 0 -230.72 84.9502 -237.42 206.9h85.9102c7.7002 -74.71 68.6299 -124.63 151.52 -124.63c89.8896 0 154.159 53.4502 154.159 128.86
c0 75.3604 -55.4004 128.63 -132.71 128.63h-81.0098v76.79h81.0098c69.4004 0 118.71 47.5703 118.71 112.58c0 67.7998 -57.0996 113.899 -140.159 113.899c-73.3604 0 -131.2 -45.6602 -140.99 -110.2h-84.0898c8.87988 110.95 103.09 189.73 225.08 189.73
c130.86 0 225.16 -79.21 225.16 -190.69c0 -64.9102 -32.6504 -122.521 -83.8203 -151.4z" />
    <glyph glyph-name="uni0418" unicode="&#x418;" horiz-adv-x="738" 
d="M579.24 700h63.6602v-700h-87.7402v532.79l-398.66 -532.79h-60.9297v700h87.7402v-528.85z" />
    <glyph glyph-name="uni0419" unicode="&#x419;" horiz-adv-x="738" 
d="M222.7 812.63v66.75h284.08v-66.75h-284.08zM579.24 700h63.6602v-700h-87.7402v532.79l-398.66 -532.79h-60.9297v700h87.7402v-528.84z" />
    <glyph glyph-name="uni041A" unicode="&#x41a;" horiz-adv-x="635" 
d="M522.72 0l-246.199 320.67h-93.21v-320.67h-87.7402v700h87.7402v-297.06h92.75l224.22 297.06h111.82l-256.04 -336.67l279.39 -363.33h-112.73z" />
    <glyph glyph-name="uni041B" unicode="&#x41b;" horiz-adv-x="738" 
d="M209.52 700l432.8 -0.000976562v-700h-87.7402v617.74h-264.18l-33.6201 -396.77c-12.5596 -148.11 -83.3291 -221.88 -211.06 -221.88h-28.4199v86.8203h27.5098c74.1904 0 114.41 43.2197 122.41 132.41z" />
    <glyph glyph-name="uni041C" unicode="&#x41c;" horiz-adv-x="957" 
d="M912.11 0h-89.5615l-90.96 546.76l-241.34 -528.93h-23.5098l-241.41 528.32l-91.8096 -546.15h-89.5596l117.79 700h84.6504l231.17 -513.72l232.19 513.72h86.4697z" />
    <glyph glyph-name="uni041D" unicode="&#x41d;" horiz-adv-x="729" 
d="M545.6 700h87.7305v-700h-87.7305v318.11h-362.29v-318.11h-87.7402v700h87.7402v-297.8h362.29v297.8z" />
    <glyph glyph-name="uni041E" unicode="&#x41e;" horiz-adv-x="829" 
d="M414.26 -11.8203c-211.82 0 -366.301 155 -366.301 361.74c0 206.82 154.48 361.91 366.301 361.91c211.83 0 366.3 -155 366.3 -361.91c0 -206.83 -154.47 -361.74 -366.3 -361.74zM414.26 74.0898c159.2 0 276.74 117.97 276.74 275.819
c0 157.94 -117.54 276 -276.74 276s-276.74 -119.06 -276.74 -276c0 -156.85 117.54 -275.819 276.74 -275.819z" />
    <glyph glyph-name="uni041F" unicode="&#x41f;" horiz-adv-x="701" 
d="M95.5703 700h509.98v-700h-88.6504v617.74h-333.59v-617.74h-87.7402v700z" />
    <glyph glyph-name="uni0420" unicode="&#x420;" horiz-adv-x="610" 
d="M346.56 700c132.04 0 232.34 -95.2998 232.34 -224.17c0 -128.03 -99.2998 -224.25 -232.34 -224.25h-163.25v-251.58h-87.7402v700h250.99zM342 336.58c85.8799 0 147.33 59.2803 147.33 139.25c0 79.8896 -61.4502 139.17 -147.33 139.17h-158.69v-278.42h158.69z" />
    <glyph glyph-name="uni0421" unicode="&#x421;" horiz-adv-x="776" 
d="M406.7 -10.9102c-208.09 0 -358.728 150.907 -358.728 360.817s150.74 361 358.74 361c161.95 0 291.72 -96.4297 331.77 -247.5h-89.6504c-37.2305 101.19 -127.33 161.591 -242.13 161.591c-156.2 0 -269.181 -114.06 -269.181 -275.079
c0 -161.03 112.89 -274.92 269.18 -274.92c117.89 0 209.17 64.4004 245.479 171.851h89.5596c-39.96 -158.25 -170 -257.76 -335.04 -257.76z" />
    <glyph glyph-name="uni0422" unicode="&#x422;" horiz-adv-x="556" 
d="M534.85 700v-82.2598h-213.02v-617.74h-87.7305v617.74h-213.02v82.2598h513.77z" />
    <glyph glyph-name="uni0423" unicode="&#x423;" horiz-adv-x="604" 
d="M502.2 700h94.21l-216.1 -484.31c-75.5303 -170.92 -132.511 -217.689 -259.621 -217.689h-32.5303v82.2598h39.8203c75.3496 0 104.77 22.6396 152.51 119.149l-267.62 500.59h100.69l212.4 -399.46z" />
    <glyph glyph-name="uni040E" unicode="&#x40e;" horiz-adv-x="604" 
d="M173 812.63v66.75h284.08v-66.75h-284.08zM502.2 700l94.2197 0.000976562l-216.1 -484.31c-75.5303 -170.91 -132.521 -217.69 -259.631 -217.69h-32.5303v82.2598h39.8203c75.3496 0 104.77 22.6396 152.51 119.159l-267.62 500.58h100.69l212.4 -399.46z" />
    <glyph glyph-name="uni0424" unicode="&#x424;" horiz-adv-x="871" 
d="M822.32 350.82c0 -188.47 -129.7 -352.079 -344.13 -361.319v-107.33h-85.9199v107.37c-213.13 9.70996 -344.31 173.13 -344.31 359.46c0 187.3 131.18 351.689 344.31 361.449v95.6396h85.9199v-95.5898c214.43 -9.2002 344.13 -172 344.13 -359.68zM478.19 73.751
c155 9.41992 254.56 132.391 254.56 276.16c0 142.98 -99.5596 265.99 -254.56 275.42v-551.58zM137.521 349.912c0 -143.41 100.1 -266.25 254.75 -276.1v551.46c-154.58 -9.84961 -254.75 -132.75 -254.75 -275.36z" />
    <glyph glyph-name="uni0425" unicode="&#x425;" horiz-adv-x="600" 
d="M592.59 0h-98.96l-193.29 296.08l-191.96 -296.08h-99.8604l237.96 366.66l-219.52 333.34h98.9502l175.02 -267.11l173.44 267.11h98.9502l-218.44 -336.27z" />
    <glyph glyph-name="uni0427" unicode="&#x427;" horiz-adv-x="639" 
d="M454.58 700h88.6504v-700h-88.6504v278.04c-56.3799 -21.9902 -111.05 -32.6807 -160.93 -32.6807c-144.09 0 -245.95 90.04 -245.95 249.73v204.91h88.6504v-198.53c0 -109.53 59.0996 -170.2 165.51 -170.2c43.9297 0 94.8398 12.1504 152.72 36.3809v332.35z" />
    <glyph glyph-name="uni0426" unicode="&#x426;" horiz-adv-x="716" 
d="M599.81 82.2598l71.7891 0.000976562v-225.4h-81.3496v143.14h-494.68v700h87.7402v-617.74h328.76v617.74h87.7402v-617.74z" />
    <glyph glyph-name="uni0428" unicode="&#x428;" horiz-adv-x="971" 
d="M788.16 700h87.7402v-700h-780.33v700h87.7402v-617.74h259.01v617.74h85.9102v-617.74h259.93v617.74z" />
    <glyph glyph-name="uni0429" unicode="&#x429;" horiz-adv-x="993" 
d="M875.9 82.2598l74.5195 0.000976562v-225.4h-81.3496v143.14h-773.5v700h87.7402v-617.74h259.01v617.74h85.9102v-617.74h259.93v617.74h87.7402v-617.74z" />
    <glyph glyph-name="uni040F" unicode="&#x40f;" horiz-adv-x="719" 
d="M623 700l-0.000976562 -700h-220.89v-140.4h-86.6504v140.4h-219.89v700h87.7402v-617.74h351.04v617.74h88.6504z" />
    <glyph glyph-name="uni042C" unicode="&#x42c;" horiz-adv-x="619" 
d="M351.82 451.15c136.69 0 235.08 -94.3906 235.08 -226.081c0 -129.77 -99.3896 -225.069 -235.08 -225.069h-256.25v700h87.7402v-248.85h168.51zM345.44 82.2598c88.6201 0 151.89 61.0996 151.89 143.72c0 83.6299 -63.2695 143.82 -151.89 143.82h-162.13v-287.54
h162.13z" />
    <glyph glyph-name="uni042A" unicode="&#x42a;" horiz-adv-x="701" 
d="M434.35 451.15c136.68 0 235.07 -94.3906 235.07 -226.081c0 -129.77 -99.3799 -225.069 -235.07 -225.069h-256.25v617.74h-160.75v82.2598h248.48v-248.85h168.52zM427.961 82.2598c88.6201 0 151.9 61.0996 151.9 143.72c0 83.6299 -63.2803 143.82 -151.9 143.82
h-162.13v-287.54h162.13z" />
    <glyph glyph-name="uni042B" unicode="&#x42b;" horiz-adv-x="875" 
d="M351.82 451.15c136.69 0 235.08 -94.3906 235.08 -226.081c0 -129.77 -99.3896 -225.069 -235.08 -225.069h-256.25v700h87.7402v-248.85h168.51zM691.57 699.999h87.7402v-700h-87.7402v700zM345.44 82.2588c88.6201 0 151.89 61.0996 151.89 143.72
c0 83.6299 -63.2695 143.82 -151.89 143.82h-162.13v-287.54h162.13z" />
    <glyph glyph-name="uni0409" unicode="&#x409;" horiz-adv-x="1077" 
d="M809.92 451.15c136.69 0 235.081 -94.3916 235.081 -226.082c0 -129.77 -99.3896 -225.069 -235.08 -225.069h-257.16v617.74h-264.18l-33.6201 -396.77c-13.4805 -148.11 -83.3408 -221.88 -211.061 -221.88h-26.5996v86.8203h27.5098
c74.1904 0 114.41 43.2197 122.41 132.41l44.1299 481.68h430.06v-248.85h168.51zM803.541 82.2588c87.71 0 151.9 61.0996 151.9 143.72c0 83.6299 -64.1904 143.82 -151.9 143.82h-162.13v-287.54h162.13z" />
    <glyph glyph-name="uni040A" unicode="&#x40a;" horiz-adv-x="1014" 
d="M756.79 419.67c137.73 0 226.68 -87.2998 226.68 -209.34c0 -122.94 -88.8604 -210.33 -226.681 -210.33h-253.47v331.94h-320.01v-331.94h-87.7402v700h87.7402v-284.89h320.01v284.89h87.7402v-280.33h165.73zM752.219 83.1699
c87.4199 0 141.689 49.9297 141.689 127.16c0 77.1504 -54.2695 126.17 -141.689 126.17h-161.16v-253.33h161.16z" />
    <glyph glyph-name="uni0405" unicode="&#x405;" horiz-adv-x="597" 
d="M304.21 -8.91992c-154.12 0 -258.341 86.7393 -258.341 224.609h89.5703c0 -87.0703 70.8301 -138.69 167.86 -138.69c87.7598 0 157.33 46.6201 157.33 120.771c0 81.8496 -83.0098 101.109 -173.85 122.379c-108.08 25.7402 -227.65 54.3906 -227.65 194.07
c0 120.86 93.3896 194.69 238.26 194.69c145.24 0 233.9 -80.5596 233.9 -207.34h-86.8301c0 77.7998 -63.4902 123.25 -148.9 123.25c-85.0303 0 -148.69 -40.5303 -148.69 -106.95c0 -76.8496 80.4502 -96.1094 170.2 -117.289
c110.09 -26.7305 234.04 -56.29 234.04 -201.89c0 -132.25 -107.51 -207.61 -246.899 -207.61z" />
    <glyph glyph-name="uni0404" unicode="&#x404;" horiz-adv-x="780" 
d="M659.52 246.94l87.75 -0.00195312c-41.1396 -159.25 -172.529 -258.77 -339.47 -258.77c-206.92 0 -359.83 154.91 -359.83 361.83c0 207.82 154.82 361.82 359.82 361.82c162.86 0 288.24 -92.5098 336.21 -247.67h-88.7402
c-43.3096 101.62 -132.59 160.851 -247.47 160.851c-140.83 0 -249.46 -95.7402 -268.28 -232.24h336.36v-81.3496h-336.93c17.0195 -138.79 125.67 -236.41 268.85 -236.41c118.97 0 212.51 64.4004 251.729 171.94z" />
    <glyph glyph-name="uni042D" unicode="&#x42d;" horiz-adv-x="780" 
d="M372.09 711.83c205 0 359.85 -153.977 359.85 -361.807c0 -206.91 -152.91 -361.82 -359.82 -361.82c-166.95 0 -298.34 99.5098 -339.479 258.76h87.7402c39.2197 -108.45 132.76 -172.851 251.729 -172.851c142.41 0 251.021 97.7197 267.95 237.319h-336.05v81.3496
h335.49c-18.7305 137.31 -127.33 233.149 -267.4 233.149c-114.89 0 -204.17 -59.2305 -247.479 -161.771h-88.7402c47.96 155.16 173.35 247.67 336.21 247.67z" />
    <glyph glyph-name="uni0406" unicode="&#x406;" horiz-adv-x="279" 
d="M95.5703 0v700h87.7402v-700h-87.7402z" />
    <glyph glyph-name="uni0407" unicode="&#x407;" horiz-adv-x="279" 
d="M25.5195 788.02v97.4902h88.4004v-97.4902h-88.4004zM165.789 788.02v97.4902h88.4004v-97.4902h-88.4004zM95.5693 -0v700h87.7402v-700h-87.7402z" />
    <glyph glyph-name="uni0408" unicode="&#x408;" horiz-adv-x="597" 
d="M269.86 -11.8301c-138.6 0 -242.25 102.74 -242.25 243.86v14.04h86.8301v-10.3799c0 -93.8896 65.6201 -161.609 155.42 -161.609c86.9697 0 152.6 67.7998 152.6 161.609v464.31h86.8301v-467.97c0 -141.12 -100.92 -243.86 -239.43 -243.86z" />
    <glyph glyph-name="uni040B" unicode="&#x40b;" horiz-adv-x="762" 
d="M472.12 460.03c138.27 0 239.779 -82.7295 239.779 -244.249v-215.78h-88.6504v206.66c0 116.93 -64.3096 170.199 -162.079 170.199c-40.6396 0 -87.9697 -9.79004 -138.42 -27.5703v-349.29h-88.6504v617.74h-213.02v82.2598h513.77v-82.2598h-212.1v-185.75
c52.1201 18.7002 102.84 28.04 149.37 28.04z" />
    <glyph glyph-name="uni042E" unicode="&#x42e;" horiz-adv-x="1046" 
d="M643.5 711.91c204.17 0 354.429 -153.08 354.429 -361.91c0 -209.74 -149.35 -361.83 -354.439 -361.83c-188.81 0 -332.989 133.29 -351.22 321.15h-108.96v-309.33h-87.7402v700h87.7402v-308.41h109.04c18.5098 187.39 161.79 320.33 351.15 320.33zM640.759 75.0098
c155.29 0 267.611 116.06 267.611 275s-112.41 276 -267.61 276c-152.29 0 -267.271 -117.8 -267.271 -276s114.89 -275 267.27 -275z" />
    <glyph glyph-name="uni042F" unicode="&#x42f;" horiz-adv-x="649" 
d="M283.51 700l269.899 -0.000976562v-700h-88.6504v272.11h-154.49l-162.27 -272.11h-103.43l171.06 282.96c-98.4697 25.9404 -161.93 103.381 -161.93 203.051c0 122.04 97.9502 213.99 229.811 213.99zM287.159 354.369l177.6 -0.000976562v262.45h-177.6
c-83.7998 0 -143.899 -54.0996 -143.899 -130.81c0 -76.6299 60.0098 -131.64 143.899 -131.64z" />
    <glyph glyph-name="uni0402" unicode="&#x402;" horiz-adv-x="739" 
d="M461.6 471.74c143.09 0 239.999 -96.9209 239.999 -240.921c0 -143.91 -97.8301 -239.91 -245.48 -239.91h-6.74023v85.9102h6.74023c96.8496 -0.910156 156.83 65.3701 156.83 154c0 89.5498 -60.8896 155 -157.739 155c-50.7598 0 -103.899 -22.9102 -137.939 -60.1797
v-325.64h-87.7402v617.74h-208.45v82.2598h508.29v-82.2598h-212.1v-192.84c40.7402 29.1699 90.6104 46.8398 144.33 46.8398z" />
    <glyph glyph-name="uni0414.loclBGR" horiz-adv-x="760" 
d="M668.63 82.2598h58.4502v-219.92h-81.3496v137.66h-531.86v-137.66h-81.3496v219.92h59.29l245.51 617.74h80.0898zM377.5 572.02l-194.23 -489.76h392.5z" />
    <glyph glyph-name="uni041B.loclBGR" horiz-adv-x="670" 
d="M650.58 0h-95.1211l-220.42 572.52l-222.43 -572.52h-92.3896l273.88 700h81.9102z" />
    <glyph glyph-name="uni0414.ss01" horiz-adv-x="760" 
d="M668.63 82.2598h58.4502v-219.92h-81.3496v137.66h-531.86v-137.66h-81.3496v219.92h59.29l245.51 617.74h80.0898zM377.5 572.02l-194.23 -489.76h392.5z" />
    <glyph glyph-name="uni0416.ss01" horiz-adv-x="921" 
d="M24.3496 700h114.551l267.72 -332.83v-10.5596l-289.07 -356.61h-119.11l298.25 364.18zM416.561 0v700h87.7402v-700h-87.7402zM624.141 364.19l298.281 -364.19h-119.11l-289.07 356.61v10.5596l267.72 332.83h114.55z" />
    <glyph glyph-name="uni041A.ss01" horiz-adv-x="619" 
d="M95.5703 0v700h87.7402v-700h-87.7402zM304.63 363.83l320.911 -363.829h-119.21l-313.08 356.52v10.5596l291.56 332.92h114.64z" />
    <glyph glyph-name="uni041B.ss01" horiz-adv-x="670" 
d="M650.58 0h-95.1211l-220.42 572.52l-222.43 -572.52h-92.3896l273.88 700h81.9102z" />
    <glyph glyph-name="uni0424.ss01" horiz-adv-x="812" 
d="M449.92 672.61c197.13 -8.20996 317.96 -153.86 317.96 -321.79c0 -166.92 -120.83 -310.66 -317.96 -319.78v-81.4404h-87.7305v81.4404c-196.22 9.12012 -318.14 153.86 -318.14 319.78c0 167.93 121.92 313.58 318.14 321.79v74.6104h87.7305v-74.6104zM133.61 350.82
c0 -128.05 91.9805 -233.391 229.49 -238.351v480.49c-137.51 -6.76953 -229.49 -114 -229.49 -242.14zM449.011 112.47c138.39 4.9502 228.399 110.211 228.399 238.351c0 129.14 -90.0098 235.39 -228.399 242.14v-480.49z" />
    <glyph glyph-name="uni0430" unicode="&#x430;" horiz-adv-x="699" 
d="M546.03 540l67.6699 -0.000976562v-540h-70.4004l-8.96973 81.8203c-49.79 -58.1299 -124.21 -93.6494 -211.89 -93.6494c-159.65 0 -279.48 121 -279.48 281.82c0 161.74 119.83 281.83 279.48 281.83c88.3301 0 163.2 -35.7803 212.99 -94.5801zM328.84 70.4395
c114.5 0 198.04 84.71 198.04 199.56s-83.54 199.56 -198.04 199.56c-114.33 0 -199.04 -85.8896 -199.04 -199.56c0 -113.76 84.71 -199.56 199.04 -199.56z" />
    <glyph glyph-name="uni0431" unicode="&#x431;" horiz-adv-x="658" 
d="M350.69 511.82c154.47 0 262.997 -107.521 262.997 -258.171c0 -155.21 -113.09 -265.479 -274.87 -265.479c-169.16 0 -277.68 115.65 -277.68 295.591c0 277.62 88.6104 399.59 335.101 458.76l159.55 38.2998v-84.1699l-157.47 -37.2998
c-139.22 -32.8398 -216.859 -103.95 -240.789 -225.271c47.9805 52.2002 112.181 77.7402 193.161 77.7402zM338.817 70.4395c107.42 0 188.04 78.79 188.04 183.21c0 104.41 -80.6201 184.12 -188.04 184.12c-108.5 0 -189.04 -78.7998 -189.04 -184.12
c0 -104.42 80.6299 -183.21 189.04 -183.21z" />
    <glyph glyph-name="uni0432" unicode="&#x432;" horiz-adv-x="574" 
d="M433.26 280.08c54.0596 -19.6396 89.8105 -69.5781 89.8105 -129.519c0 -85.9102 -71.5596 -150.561 -166.21 -150.561h-271.2v540h268.38c89.5596 0 151.029 -56.6504 151.029 -137.301c0 -54.0898 -28.1299 -100.91 -71.8096 -122.62zM420.98 388.102
c0 43.6201 -31.8291 72.3701 -78.8096 72.3701h-173.33v-143.84h173.33c47.7998 0 78.8096 28.8398 78.8096 71.4697zM346.821 80.4414c51.2402 0 88.5205 33.1797 88.5205 79.25c0 46.0596 -37.2803 79.25 -89.5205 79.25h-176.98v-158.5h177.98z" />
    <glyph glyph-name="uni0433" unicode="&#x433;" horiz-adv-x="439" 
d="M422.39 540l-0.000976562 -75.8799h-253.55v-464.12h-83.1797v540h336.73z" />
    <glyph glyph-name="uni0453" unicode="&#x453;" horiz-adv-x="439" 
d="M358.33 755.44l-91.1201 -152h-66.9297l67.4102 152h90.6396zM422.39 540l-0.000976562 -75.8799h-253.55v-464.12h-83.1797v540h336.73z" />
    <glyph glyph-name="uni0491" unicode="&#x491;" horiz-adv-x="439" 
d="M341.04 658.87h81.3496v-194.75h-253.55v-464.12h-83.1797v540h255.38v118.87z" />
    <glyph glyph-name="uni0434" unicode="&#x434;" horiz-adv-x="650" 
d="M537.94 80.4404l72.6914 -0.000976562v-223.58h-77.6904v143.14h-435.29v-143.14h-77.7002v223.58h58.3096c46.3604 40.46 56.71 101.95 85.5596 459.641h374.12v-459.64zM240.302 465.119c-18.1602 -263.84 -33.71 -340.229 -71.5996 -384.68h286.06v384.68h-214.46z
" />
    <glyph glyph-name="uni0435" unicode="&#x435;" horiz-adv-x="632" 
d="M590.56 267.79c0 -10.21 -0.90918 -20.5107 -1.81934 -30.7207h-460.36c13.3604 -100.01 87.7803 -165.71 190.061 -165.71c74.71 0 134.81 34.9297 168.119 93.25h89.6504c-45.7002 -111.39 -140.65 -176.43 -257.771 -176.43c-156.65 0 -275.391 121 -275.391 281.91
c0 160.74 118.74 281.74 275.391 281.74c163.86 0 272.12 -126.3 272.12 -284.04zM318.44 471.389c-98.0596 0 -170.529 -61.7002 -188.109 -155.71h375.02c-18.25 96.1104 -91.3398 155.71 -186.91 155.71z" />
    <glyph glyph-name="uni0451" unicode="&#x451;" horiz-adv-x="632" 
d="M266.13 730.99v-97.4902h-97.5303v97.4902h97.5303zM463.189 730.99v-97.4902h-97.5303v97.4902h97.5303zM590.569 267.79c0 -10.21 -0.90918 -20.5107 -1.81934 -30.7207h-460.36c13.3604 -100.01 87.7803 -165.71 190.061 -165.71
c74.71 0 134.81 34.9297 168.119 93.25h89.6504c-45.7002 -111.39 -140.65 -176.43 -257.771 -176.43c-156.65 0 -275.391 121 -275.391 281.91c0 160.74 118.74 281.74 275.391 281.74c163.86 0 272.12 -126.3 272.12 -284.04zM318.45 471.389
c-98.0596 0 -170.529 -61.7002 -188.109 -155.71h375.02c-18.25 96.1104 -91.3398 155.71 -186.91 155.71z" />
    <glyph glyph-name="uni0436" unicode="&#x436;" horiz-adv-x="804" 
d="M696.87 0l-181.461 242.24h-72.2402v-242.24h-82.2598v242.24h-72.25l-181.54 -242.24h-104.51l213.77 284.79l-193.77 255.21h99.04l167.51 -221.89h71.75v221.89h82.2598v-221.89h71.7402l167.44 221.89h99.04l-193.69 -255.2l213.69 -284.8h-104.52z" />
    <glyph glyph-name="uni0437" unicode="&#x437;" horiz-adv-x="488" 
d="M367.05 285.4c46.9697 -25.5996 73.9688 -72.4189 73.9688 -131.999c0 -97.3896 -86.3896 -165.21 -207.43 -165.21c-113.81 0 -194.109 63.5996 -204.069 161.319h77.7002c10.8799 -50.4902 58.6299 -80.8906 126.38 -80.8906c72.9805 0 124.25 37.2803 124.25 91.1699
c0 50.8398 -43.1396 88.2002 -103.89 88.2002h-79.54v69.4902h79.4502c55.8398 0 93.0703 30.9199 93.0703 76.6699c0 49.4502 -45.3604 82.7197 -112.9 82.7197c-59.9297 0 -102.85 -28.3096 -112.64 -74.0596h-77.7002c8.87988 89.25 87 149.03 192.16 149.03
c110.95 0 191.51 -63.8301 191.51 -151.311c0 -50.46 -21.3604 -91 -60.3203 -115.13z" />
    <glyph glyph-name="uni0438" unicode="&#x438;" horiz-adv-x="616" 
d="M483.19 540h47.2295v-540h-80.4297v385.95l-315.27 -385.95h-49.0596v540h81.3496v-383.29z" />
    <glyph glyph-name="uni0439" unicode="&#x439;" horiz-adv-x="616" 
d="M440.21 712.6v-64.0195h-262.43v64.0195h262.43zM483.19 540h47.2295v-540h-80.4297v385.95l-315.27 -385.95h-49.0596v540h81.3496v-383.29z" />
    <glyph glyph-name="uni045D" unicode="&#x45d;" horiz-adv-x="616" 
d="M350.37 603.44h-66.9209l-91.1299 152h90.6504zM483.189 540h47.2295v-540h-80.4297v385.95l-315.27 -385.95h-49.0596v540h81.3496v-383.29z" />
    <glyph glyph-name="uni043A" unicode="&#x43a;" horiz-adv-x="540" 
d="M432.85 0l-184.949 242.24h-77.25v-242.24h-85v540h85v-219.15h78.5098l166.5 219.15h103.6l-197 -258.91l216.93 -281.09h-106.34z" />
    <glyph glyph-name="uni045C" unicode="&#x45c;" horiz-adv-x="540" 
d="M404.36 755.44l-91.1211 -152h-66.9297l67.4004 152h90.6504zM432.85 0l-184.949 242.24h-77.25v-242.24h-85v540h85v-219.15h78.5098l166.5 219.15h103.6l-197 -258.91l216.93 -281.09h-106.34z" />
    <glyph glyph-name="uni043B" unicode="&#x43b;" horiz-adv-x="617" 
d="M177.52 540h353.98v-540h-84.0898v465.95h-198.47l-28.4199 -273.1c-14.8203 -144.38 -70.1602 -195.59 -186.8 -195.59h-14.8604v79.5195h19.4297c60.4404 0 91.6201 32.6201 99.9697 111.59z" />
    <glyph glyph-name="uni043C" unicode="&#x43c;" horiz-adv-x="796" 
d="M756.98 0l-82.2715 0.000976562l-76.9199 401.35l-190.85 -389.95h-18.9502l-190 390.06l-76.8496 -401.46h-82.2695l103.58 540h70.96l184.34 -377.72l184.7 377.72h70.96z" />
    <glyph glyph-name="uni043D" unicode="&#x43d;" horiz-adv-x="627" 
d="M457.99 540h83.1699v-540h-83.1699v239.32h-289.15v-239.32h-83.1797v540h83.1797v-221.15h289.15v221.15z" />
    <glyph glyph-name="uni043E" unicode="&#x43e;" horiz-adv-x="659" 
d="M329.26 -11.8203c-163.56 0 -286.3 120 -286.3 281.82c0 162.83 122.74 281.83 286.3 281.83c163.65 0 286.301 -120 286.301 -281.83c0 -161.82 -122.65 -281.82 -286.301 -281.82zM329.26 70.4395c115.59 0 199.489 83.959 199.489 199.549
s-83.8896 199.57 -199.479 199.57s-199.479 -83.8896 -199.479 -199.56c0 -115.59 83.9697 -199.56 199.47 -199.56z" />
    <glyph glyph-name="uni043F" unicode="&#x43f;" horiz-adv-x="630" 
d="M85.6602 540h458.67v-540h-84.0801v462.3h-289.59v-462.3h-85v540z" />
    <glyph glyph-name="uni0440" unicode="&#x440;" horiz-adv-x="693" 
d="M372.44 551.83c160.91 0 277.551 -120.09 277.551 -281.83c0 -160.82 -116.65 -281.82 -277.561 -281.82c-81.21 0 -152 31.6699 -201.77 84.1396v-265.06h-85v732.74h58.54l16.9297 -82.5498c50.0498 58.6797 124.76 94.3799 211.31 94.3799zM366.041 70.4404
c114.5 0 198.04 84.7197 198.04 199.569s-83.54 199.56 -198.04 199.56c-114.32 0 -199.03 -85.7998 -199.03 -199.56c0 -113.68 84.71 -199.569 199.03 -199.569z" />
    <glyph glyph-name="uni0441" unicode="&#x441;" horiz-adv-x="620" 
d="M323.52 -11.8203c-159.65 0 -280.562 121 -280.562 281.82c0 161 120.83 281.83 280.57 281.83c128.77 0 229.81 -76.7803 262.51 -193.851h-84.1797c-31.79 69.2695 -98.7998 111.579 -178.34 111.579c-110.85 0 -193.739 -86.71 -193.739 -199.56
c0 -112.76 83.8896 -199.56 193.739 -199.56c79.4502 0 144.641 42.2197 177.601 114.41h86c-32.96 -119.16 -136 -196.67 -263.6 -196.67z" />
    <glyph glyph-name="uni0442" unicode="&#x442;" horiz-adv-x="519" 
d="M501.86 540l-0.000976562 -76.79h-200.89v-463.21h-83.1699v463.21h-200.8v76.79h484.86z" />
    <glyph glyph-name="uni0443" unicode="&#x443;" horiz-adv-x="586" 
d="M480.46 540l90.5605 0.000976562l-257.36 -562.33c-58.21 -127.9 -109.6 -170.41 -211.5 -170.41h-50.8604v76.79h43.5596c72.2598 0 97.75 22.0898 141.19 112.31l19.4297 40.46l-240.26 503.18h92.4805l192 -408.73z" />
    <glyph glyph-name="uni045E" unicode="&#x45e;" horiz-adv-x="586" 
d="M164.26 648.58v64.0195h262.43v-64.0195h-262.43zM480.46 540l90.5605 0.000976562l-257.36 -562.33c-58.21 -127.9 -109.6 -170.41 -211.5 -170.41h-50.8604v76.79h43.5596c72.2598 0 97.75 22.0898 141.19 112.31l19.4297 40.46l-240.26 503.18h92.4805l192 -408.73z
" />
    <glyph glyph-name="uni0444" unicode="&#x444;" horiz-adv-x="732" 
d="M688.94 268.17c0 -160.94 -118.391 -273.731 -280.49 -279.741v-158.43h-85v158.43c-162.11 6.00977 -280.49 118.8 -280.49 279.74c0 161.72 119.21 277.2 280.49 283.391v151.17h85v-151.17c161.28 -6.13965 280.49 -120.779 280.49 -283.39zM127.05 269.089
c0 -110.89 80.4189 -190.67 196.399 -196.49v394.78c-115.18 -5.99023 -196.399 -87.5205 -196.399 -198.29zM408.449 72.6084c115.17 5.91992 196.4 86.499 196.4 196.479c0 110.74 -82.0303 192.26 -196.4 198.29v-394.77z" />
    <glyph glyph-name="uni0445" unicode="&#x445;" horiz-adv-x="513" 
d="M506.71 0h-95.3008l-154.9 224.96l-155.43 -224.96h-93.4697l197.98 280.66l-181.45 259.34h95.2998l137.96 -199.59l140.22 199.59h93.4805l-183.33 -255.52z" />
    <glyph glyph-name="uni0447" unicode="&#x447;" horiz-adv-x="550" 
d="M382.54 540l82.2607 0.000976562v-540h-82.2598v206.59c-39.1904 -15.0898 -83.9209 -23.8799 -128.331 -23.8799c-125.77 0 -213.6 75.5996 -213.6 210.989v146.3h83.1699v-139.92c0 -86.4502 48.9297 -135.11 136.819 -135.11
c40.8398 0 86.1201 11.3604 121.94 29.4502v245.58z" />
    <glyph glyph-name="uni0446" unicode="&#x446;" horiz-adv-x="638" 
d="M526.07 78.6104h74.5312v-221.75h-77.7002v143.14h-437.24v540h83.1797v-461.39h274.06v461.39h83.1699v-461.39z" />
    <glyph glyph-name="uni0448" unicode="&#x448;" horiz-adv-x="844" 
d="M674.07 540h84.0898v-540h-672.5v540h83.1797v-461.39h212.4v461.39h81.3398v-461.39h211.49v461.39z" />
    <glyph glyph-name="uni0449" unicode="&#x449;" horiz-adv-x="870" 
d="M758.16 78.6104h74.5303v-221.75h-77.71v143.14h-669.32v540h83.1797v-461.39h212.4v461.39h81.3398v-461.39h211.49v461.39h84.0898v-461.39z" />
    <glyph glyph-name="uni045F" unicode="&#x45f;" horiz-adv-x="630" 
d="M544.73 540l0.000976562 -540h-188.36v-140.4h-81.3496v140.4h-189.36v540h83.1797v-461.39h292.72v461.39h83.1699z" />
    <glyph glyph-name="uni044C" unicode="&#x44c;" horiz-adv-x="526" 
d="M303.09 369.76c113.51 0 193.16 -75.3896 193.16 -185.34c0 -109.12 -79.6504 -184.42 -193.16 -184.42h-217.43v540h83.1797v-170.24h134.25zM292.13 75.8701c70.2803 0 117.28 44.0098 117.28 108.55c0 64.4502 -47 109.45 -117.28 109.45h-123.29v-218h123.29z" />
    <glyph glyph-name="uni044A" unicode="&#x44a;" horiz-adv-x="618" 
d="M395.61 369.76c113.51 0 193.16 -75.3896 193.16 -185.34c0 -109.12 -79.6504 -184.42 -193.16 -184.42h-217.42v465.95h-160.28v74.0498h243.45v-170.24h134.25zM384.66 75.8701c70.2803 0 117.28 44.0098 117.28 108.55c0 64.4502 -47 109.45 -117.28 109.45h-123.3
v-218h123.3z" />
    <glyph glyph-name="uni044B" unicode="&#x44b;" horiz-adv-x="765" 
d="M303.09 369.76c113.51 0 193.16 -75.3896 193.16 -185.34c0 -109.12 -79.6504 -184.42 -193.16 -184.42h-217.43v540h83.1797v-170.24h134.25zM593.91 540h85v-540h-85v540zM292.13 75.8701c70.2803 0 117.28 44.0098 117.28 108.55c0 64.4502 -47 109.45 -117.28 109.45
h-123.29v-218h123.29z" />
    <glyph glyph-name="uni0459" unicode="&#x459;" horiz-adv-x="871" 
d="M649.61 366.11c112.6 0 192.25 -74.4805 192.25 -183.511c0 -108.21 -79.6504 -182.6 -192.25 -182.6h-218.34v465.95h-180.61l-28.3096 -272.19c-14.8301 -144.37 -70.1602 -195.59 -186.8 -195.59h-16.6904v77.7002h21.25c60.3604 0 91.6299 32.5303 99.9795 111.59
l39.2598 352.54h332.36v-173.89h137.9zM641.4 71.3105c69.3604 0 117.29 44.9209 117.29 111.291c0 66.2695 -47.9297 112.199 -117.29 112.199h-129.69v-223.49h129.69z" />
    <glyph glyph-name="uni045A" unicode="&#x45a;" horiz-adv-x="855" 
d="M639.26 356.01c113.6 0 185.641 -71.9502 185.641 -177.55c0 -106.51 -72.04 -178.46 -185.64 -178.46h-213.9v250.02h-256.52v-250.02h-83.1797v540h83.1797v-210.45h256.52v210.45h83.1797v-183.99h130.72zM627.4 77.7002c68.1797 0 110.67 38.4902 110.67 100.76
c0 61.3604 -42.4902 99.8506 -110.67 99.8506h-118.86v-200.61h118.86z" />
    <glyph glyph-name="uni0455" unicode="&#x455;" horiz-adv-x="513" 
d="M256.56 -11.8203c-128.12 0 -211.17 68.792 -215.7 177.392h83.1797c4.51953 -64.1904 59.75 -98.7607 135.25 -98.7607c73.8496 0 126.859 31.2695 126.859 84.1592c0 63.0303 -66.7998 75.5498 -139.899 87.8994c-92.1699 16 -195.3 34.7402 -195.3 156.641
c0 93.04 81.4805 156.34 203.431 156.34c122.04 0 200.34 -65.04 203.6 -166.9h-80.4404c-3.25977 58.3604 -49.0996 91.0205 -124.989 91.0205c-73.0596 0 -119.329 -30.9297 -119.329 -77.7295c0 -57.1504 62.0996 -67.5 134.199 -78.9404
c93.1797 -15.0898 202.83 -32.3496 202.83 -164.689c0 -100.95 -85.4805 -166.431 -213.69 -166.431z" />
    <glyph glyph-name="uni0454" unicode="&#x454;" horiz-adv-x="623" 
d="M507.21 195.69l84.1797 0.0117188c-31.2598 -123.04 -136.74 -207.521 -267.04 -207.521c-159.56 0 -281.39 123 -281.39 283.82c0 158.91 120.83 279.82 281.39 279.82c129.3 0 233.78 -80.4805 265.04 -200.61h-82.3496
c-28.5303 74.8896 -99.7207 124.729 -183.61 124.729c-104 0 -181.3 -69.4199 -196.42 -168.66h244.29v-70.4004h-244.57c14.5303 -100.59 92.9707 -171.92 196.711 -171.92c84.8896 0 156.25 51.0996 183.77 130.729z" />
    <glyph glyph-name="uni044D" unicode="&#x44d;" horiz-adv-x="623" 
d="M299.09 551.83c160.56 0 281.379 -120.922 281.379 -279.832c0 -160.82 -121.82 -283.82 -281.38 -283.82c-130.3 0 -235.78 84.4805 -267.04 207.521h84.1699c27.5303 -79.6299 98.8906 -130.729 183.78 -130.729c103.74 0 182.181 71.3301 196.711 171.92h-244.57
v70.4004h244.29c-15.1201 99.2402 -92.4199 168.66 -196.42 168.66c-83.8896 0 -155.08 -49.8398 -183.61 -124.729h-82.3496c31.2598 120.13 135.74 200.61 265.04 200.61z" />
    <glyph glyph-name="uni0456" unicode="&#x456;" horiz-adv-x="256" 
d="M82.1396 633.5v97.4902h92.0498v-97.4902h-92.0498zM85.6699 0v540h85v-540h-85z" />
    <glyph glyph-name="uni0457" unicode="&#x457;" horiz-adv-x="256" 
d="M8.75977 633.41v97.4902h86.4404v-97.4902h-86.4404zM160.25 632.5v97.4805h86.4404v-97.4805h-86.4404zM85.6602 0v540h85v-540h-85z" />
    <glyph glyph-name="uni0458" unicode="&#x458;" horiz-adv-x="268" 
d="M95.0498 633.5v97.4902h92.0498v-97.4902h-92.0498zM-41.9102 -192.729l-0.00976562 77.7012h32.25c68.9297 0 107.33 39.3096 107.33 108.149v546.89h85v-553.27c0 -107.78 -71.7695 -179.471 -180.46 -179.471h-44.1104z" />
    <glyph glyph-name="uni045B" unicode="&#x45b;" horiz-adv-x="642" 
d="M355.99 551.82c128.26 0 208.43 -88.1699 208.43 -228.35v-323.47h-85v303.4c0 109.54 -51.4502 170.72 -145.34 170.72c-92.3604 0 -163.42 -78.1797 -163.42 -179.5v-294.62h-85v594.01h-93.8799v71.3096h93.8799v67.4102h85v-67.4102h185.71v-71.3096h-185.71v-127.5
c41.46 53.4199 107 85.3096 185.33 85.3096z" />
    <glyph glyph-name="uni044E" unicode="&#x44e;" horiz-adv-x="857" 
d="M537.9 551.82c158.65 0 276.559 -120.078 276.559 -282.729c0 -161.83 -117 -280.92 -276.56 -280.92c-146.58 0 -257.28 100.39 -274.431 242.06h-92.8096v-231.32h-85v541.09h85v-230.24h93.0303c17.9004 141.67 129.011 242.06 274.211 242.06zM537.898 70.4424
c108.85 0 189.729 84.8799 189.729 198.649c0 114.67 -81.8799 200.47 -189.729 200.47c-108.94 0 -189.91 -85.7998 -189.91 -200.47c0 -113.77 80.9697 -198.649 189.91 -198.649z" />
    <glyph glyph-name="uni044F" unicode="&#x44f;" horiz-adv-x="560" 
d="M226.73 540l247.859 0.000976562v-539.91h-83.1797v206.53h-135.64l-127.9 -206.62h-94.2998l135.87 219.11c-70.9297 21.8496 -115.92 80.1895 -115.92 154.199c0 96.2998 73.3896 166.689 173.21 166.689zM233.51 288.891h157.901v168.84h-157.38
c-56.2305 0 -93.6807 -34.2695 -93.6807 -84.4199c0 -50.0596 37.2695 -84.4199 93.1592 -84.4199z" />
    <glyph glyph-name="uni0452" unicode="&#x452;" horiz-adv-x="642" 
d="M355.99 550.91c128.26 0 208.431 -88.1699 208.431 -228.35v-319.18c0 -116.73 -76.6504 -193.381 -193.381 -193.381h-30.1699v78.6104h18.2998c74.1504 0 120.25 46.0996 120.25 120.25v293.62c0 110.46 -51.4502 171.64 -145.34 171.64
c-92.3604 0 -163.42 -79.0996 -163.42 -180.409v-293.71h-85v594.01h-95.7002v71.3096h95.7002v67.4102h85v-67.4102h183.89v-71.3096h-183.89v-124.71c41.46 51.0195 107 81.6094 185.33 81.6094z" />
    <glyph glyph-name="uni0432.loclBGR" horiz-adv-x="623" 
d="M467.8 385.32c71.0195 -35.9199 110.701 -107.85 110.701 -183.67c0 -127.74 -111.34 -212.561 -252.34 -212.561c-158.65 0 -252.771 105 -252.771 285.88v192.07c0 176.22 95.5098 278.04 251.25 278.04c131.09 0 228.39 -78.8203 228.39 -195.561
c0 -65.46 -30.5703 -129.1 -85.2305 -164.199zM324.631 662.82c-104.02 0 -168.08 -64.791 -168.08 -195.781v-45.0996h176.49c84.79 0 141.36 49.1904 141.36 122.11c0 71.4102 -59.3604 118.771 -149.771 118.771zM326.14 71.3486
c100.33 0 167.341 55.1895 167.341 136.689c0 80.2695 -62.4902 133.46 -155.891 133.46h-181.05v-66.54c0 -134.64 60.8398 -203.609 169.6 -203.609z" />
    <glyph glyph-name="uni0433.loclBGR" horiz-adv-x="515" 
d="M257.65 -7.65039c-130.21 0 -216.69 63.3887 -216.69 160.419c0 122.86 106.91 143.78 201.09 160.78c74.0098 14.2598 139.02 26.6094 139.02 85.5898c0 45.71 -47.1904 76.5498 -121.25 76.5498c-78.3203 0 -123.42 -33.8398 -123.42 -95.7295h-76.79
c0 107.39 79.6504 169.77 199.301 169.77c121.12 0 202.601 -61.3799 202.601 -150.59c0 -120.08 -102.39 -138.99 -193.739 -155.99c-75.0098 -13.3496 -142.72 -25.8799 -142.72 -90.3799c0 -48.9697 53.0996 -79.0693 132.6 -79.0693
c83.6699 0 133.77 36.9199 133.77 101.25h81.3496c0 -115.39 -86.3896 -182.6 -215.12 -182.6z" />
    <glyph glyph-name="uni0434.loclBGR" horiz-adv-x="674" 
d="M531.89 540l56.7207 -0.0224609v-464.47c0 -174.09 -100.47 -280.09 -264.77 -280.09c-132.43 0 -226.29 68.9502 -255.82 183.55h85c24.0498 -67.54 92.0996 -105.85 170.81 -105.85c108.02 0 181.59 71.71 181.59 191.44v33.0098
c-48.3896 -50.0498 -117.42 -80.3193 -196.72 -80.3193c-149.91 0 -265.65 115.83 -265.65 266.83c0 150.91 115.83 267.74 265.66 267.74c86.3096 0 160.93 -36.6699 209.689 -95.8096zM317.841 98.5879c108.24 0 186.69 78.7197 186.69 185.479
c0 107.59 -78.54 186.39 -186.69 186.39c-108.24 0 -187.95 -79.8896 -187.95 -186.39c0 -105.68 79.71 -185.479 187.95 -185.479z" />
    <glyph glyph-name="uni0436.loclBGR" horiz-adv-x="781" 
d="M675.22 0l-172.691 242.24h-71.0098v-242.24h-82.2598v242.24h-71.0195l-172.77 -242.24h-102.77l201.2 282.61l-181.2 257.39h97.2998l158.81 -221.89h70.4502v416.89h82.2598v-416.89h70.4404l158.74 221.89h97.2998l-181.12 -257.39l201.12 -282.61h-102.78z" />
    <glyph glyph-name="uni0437.loclBGR" horiz-adv-x="568" 
d="M424.97 193.42c62.3096 -31.8701 102.838 -101.188 102.838 -181.418c0 -127.82 -103.04 -217.471 -246.43 -217.471c-136.77 0 -235.68 83.04 -248.29 203.82h85c12.6104 -71.7998 78.1504 -121.55 163.301 -121.55c93.2402 0 160.51 58.8398 160.51 141.6
c0 74.5801 -57.0498 130.21 -136.189 130.21h-99.8896l-0.910156 81.3496h100.63c63.6602 0 110.71 50.0596 110.71 117.369c0 71.4102 -58.4502 121.33 -140.86 121.33c-78.71 0 -136.99 -47.4902 -145.78 -117.03h-82.2598c7.87988 118.51 100.35 199.29 228.04 199.29
c130.65 0 226.771 -83.3896 226.771 -198.13c0 -65.8301 -29.6699 -125.25 -77.1895 -159.37z" />
    <glyph glyph-name="uni0438.loclBGR" horiz-adv-x="642" 
d="M471.16 540h85v-540h-63.0996l-14.6299 83.4404c-40.8301 -59.3896 -109.521 -95.2695 -192.601 -95.2695c-128.26 0 -208.43 96.3896 -208.43 228.35v323.48h85v-303.4c0 -109.54 50.54 -170.73 145.34 -170.73c92.3604 0 163.42 78.1904 163.42 179.5v294.63z" />
    <glyph glyph-name="uni0439.loclBGR" horiz-adv-x="642" 
d="M455.69 712.6v-64.0195h-262.43v64.0195h262.43zM471.16 540h85v-540h-63.0996l-14.6299 83.4404c-40.8301 -59.3896 -109.521 -95.2695 -192.601 -95.2695c-128.26 0 -208.43 96.3896 -208.43 228.35v323.48h85v-303.4c0 -109.54 50.54 -170.73 145.34 -170.73
c92.3604 0 163.42 78.1904 163.42 179.5v294.63z" />
    <glyph glyph-name="uni043A.loclBGR" horiz-adv-x="553" 
d="M441.97 0l-184.939 242.239h-77.25v-242.24h-85v732.73h85v-411.88h78.5l166.43 219.15h103.6l-196.93 -258.9l216.93 -281.1h-106.34z" />
    <glyph glyph-name="uni043B.loclBGR" horiz-adv-x="535" 
d="M514.85 0h-86.9092l-159.97 425.09l-163.75 -425.09h-85.0801l210.31 540h76.2598z" />
    <glyph glyph-name="uni043F.loclBGR" horiz-adv-x="642" 
d="M355.99 551.82c128.26 0 208.43 -96.3809 208.43 -228.351v-323.47h-85v303.4c0 109.54 -51.4502 170.72 -145.34 170.72c-92.3604 0 -163.42 -78.1797 -163.42 -179.5v-294.62h-85v540h60.3604l16.5498 -84.6396c40.7402 60.1104 109.78 96.46 193.42 96.46z" />
    <glyph glyph-name="uni0442.loclBGR" horiz-adv-x="950" 
d="M682.44 551.82c114.29 0 189.856 -85.8193 189.856 -206.439v-345.38h-84.9102l-0.0898438 318.92c0 97.0996 -45.0996 155.199 -122.199 155.199c-78.7695 0 -143.989 -75.96 -144.079 -174.93v-299.19h-83.1699v318.92c0 97.2803 -45.0195 155.2 -123.109 155.2
c-78.7695 0 -143.989 -75.96 -144.079 -174.93v-299.19h-85v540h61.2803l13.9297 -74.0703c41.29 53.6299 104.71 85.8896 173.03 85.8896c76.6201 0 135.69 -39.4102 165.561 -102.38c40.0596 63.4404 108.569 102.381 182.979 102.381z" />
    <glyph glyph-name="uni0446.loclBGR" horiz-adv-x="675" 
d="M556.16 169.41c0 -77.5303 31.1689 -112.698 98.959 -112.698v-199.85h-78.6104v150.18c-44.7695 6.91992 -73.7998 34.3496 -87.6797 81.3994c-43.5596 -59.7002 -115.529 -100.271 -202.999 -100.271c-128.26 0 -208.43 95.4805 -208.43 227.44v324.39h85v-302.49
c0 -110.45 51.4502 -171.641 145.34 -171.641c92.3604 0 163.42 79.0996 163.42 180.42v293.71h85v-370.59z" />
    <glyph glyph-name="uni0448.loclBGR" horiz-adv-x="949" 
d="M778.12 540l85.0098 -0.00390625v-540h-63.0996l-12.5596 72.3096c-41.3096 -52.5801 -104.1 -84.1396 -171.659 -84.1396c-76.6299 0 -135.7 39.4102 -165.57 102.38c-40.0498 -63.4297 -108.56 -102.38 -182.97 -102.38c-114.3 0 -189.859 85.8301 -189.859 206.44
v345.39h84.9102l0.0898438 -318.93c0.0800781 -97.0996 45.0996 -155.199 122.199 -155.199c78.7598 0 143.99 75.96 144.07 174.94v299.19h83.1797v-318.93c0 -97.2695 45 -155.199 123.1 -155.199c77.8496 0 143.069 75.96 143.159 174.94v299.19z" />
    <glyph glyph-name="uni0449.loclBGR" horiz-adv-x="983" 
d="M864.04 169.41c0 -79.3496 33.0098 -112.705 98.0498 -112.705v-199.85h-77.7002v149.58c-42.5195 7.2002 -72.7197 33.1602 -87.6494 73.9004c-40.8203 -57.2402 -108.12 -92.1699 -180.93 -92.1699c-76.6299 0 -135.7 39.4102 -165.57 102.38
c-40.0498 -63.4297 -108.56 -102.38 -182.97 -102.38c-114.3 0 -189.859 85.8301 -189.859 206.44v345.39h84.9102l0.0898438 -318.93c0.0800781 -97.0996 45.0996 -155.199 122.199 -155.199c78.7598 0 143.99 75.96 144.07 174.94v299.19h83.1797v-318.93
c0 -97.2695 45 -155.199 123.1 -155.199c78.7598 0 144.08 75.96 144.08 174.94v299.19h85v-370.59z" />
    <glyph glyph-name="uni044E.loclBGR" horiz-adv-x="858" 
d="M537.46 551.82c159.56 0 277.48 -120.079 277.48 -282.729c0 -161.83 -117 -280.92 -277.48 -280.92c-147.42 0 -258.18 100.39 -275.34 242.06h-91.46v-231.32h-85v733.82h85v-422.97h91.6797c17.9102 141.67 129.09 242.06 275.12 242.06zM537.461 70.4414
c109.76 0 190.649 84.8799 190.649 198.649c0 114.67 -81.8896 200.47 -190.649 200.47c-109.85 0 -190.83 -85.7998 -190.83 -200.47c0 -113.77 80.9805 -198.649 190.83 -198.649z" />
    <glyph glyph-name="uni0436.ss01" horiz-adv-x="782" 
d="M17.5195 540h100.86l214.94 -256.74v-8.91016l-234.94 -274.35h-100.86l237.13 281.53zM349.7 0v540h82.2598v-540h-82.2598zM546.98 281.57l237.16 -281.57h-100.87l-234.93 274.35v8.91016l214.93 256.74h100.87z" />
    <glyph glyph-name="uni043A.ss01" horiz-adv-x="523" 
d="M85.6602 0v540h85v-540h-85zM287.24 281.95l240.21 -281.95h-102.78l-231.25 276.17v8.91016l216.73 254.92h97.2998z" />
    <glyph glyph-name="uni0432.ss02" horiz-adv-x="623" 
d="M467.8 385.32c71.0195 -35.9199 110.701 -107.85 110.701 -183.67c0 -127.74 -111.34 -212.561 -252.34 -212.561c-158.65 0 -252.771 105 -252.771 285.88v192.07c0 176.22 95.5098 278.04 251.25 278.04c131.09 0 228.39 -78.8203 228.39 -195.561
c0 -65.46 -30.5703 -129.1 -85.2305 -164.199zM324.631 662.82c-104.02 0 -168.08 -64.791 -168.08 -195.781v-45.0996h176.49c84.79 0 141.36 49.1904 141.36 122.11c0 71.4102 -59.3604 118.771 -149.771 118.771zM326.14 71.3486
c100.33 0 167.341 55.1895 167.341 136.689c0 80.2695 -62.4902 133.46 -155.891 133.46h-181.05v-66.54c0 -134.64 60.8398 -203.609 169.6 -203.609z" />
    <glyph glyph-name="uni0433.ss02" horiz-adv-x="515" 
d="M257.65 -7.65039c-130.21 0 -216.69 63.3887 -216.69 160.419c0 122.86 106.91 143.78 201.09 160.78c74.0098 14.2598 139.02 26.6094 139.02 85.5898c0 45.71 -47.1904 76.5498 -121.25 76.5498c-78.3203 0 -123.42 -33.8398 -123.42 -95.7295h-76.79
c0 107.39 79.6504 169.77 199.301 169.77c121.12 0 202.601 -61.3799 202.601 -150.59c0 -120.08 -102.39 -138.99 -193.739 -155.99c-75.0098 -13.3496 -142.72 -25.8799 -142.72 -90.3799c0 -48.9697 53.0996 -79.0693 132.6 -79.0693
c83.6699 0 133.77 36.9199 133.77 101.25h81.3496c0 -115.39 -86.3896 -182.6 -215.12 -182.6z" />
    <glyph glyph-name="uni0434.ss02" horiz-adv-x="674" 
d="M531.89 540l56.7207 -0.0224609v-464.47c0 -174.09 -100.47 -280.09 -264.77 -280.09c-132.43 0 -226.29 68.9502 -255.82 183.55h85c24.0498 -67.54 92.0996 -105.85 170.81 -105.85c108.02 0 181.59 71.71 181.59 191.44v33.0098
c-48.3896 -50.0498 -117.42 -80.3193 -196.72 -80.3193c-149.91 0 -265.65 115.83 -265.65 266.83c0 150.91 115.83 267.74 265.66 267.74c86.3096 0 160.93 -36.6699 209.689 -95.8096zM317.841 98.5879c108.24 0 186.69 78.7197 186.69 185.479
c0 107.59 -78.54 186.39 -186.69 186.39c-108.24 0 -187.95 -79.8896 -187.95 -186.39c0 -105.68 79.71 -185.479 187.95 -185.479z" />
    <glyph glyph-name="uni0436.ss02" horiz-adv-x="781" 
d="M675.22 0l-172.691 242.24h-71.0098v-242.24h-82.2598v242.24h-71.0195l-172.77 -242.24h-102.77l201.2 282.61l-181.2 257.39h97.2998l158.81 -221.89h70.4502v416.89h82.2598v-416.89h70.4404l158.74 221.89h97.2998l-181.12 -257.39l201.12 -282.61h-102.78z" />
    <glyph glyph-name="uni0437.ss02" horiz-adv-x="568" 
d="M424.97 193.42c62.3096 -31.8701 102.838 -101.188 102.838 -181.418c0 -127.82 -103.04 -217.471 -246.43 -217.471c-136.77 0 -235.68 83.04 -248.29 203.82h85c12.6104 -71.7998 78.1504 -121.55 163.301 -121.55c93.2402 0 160.51 58.8398 160.51 141.6
c0 74.5801 -57.0498 130.21 -136.189 130.21h-99.8896l-0.910156 81.3496h100.63c63.6602 0 110.71 50.0596 110.71 117.369c0 71.4102 -58.4502 121.33 -140.86 121.33c-78.71 0 -136.99 -47.4902 -145.78 -117.03h-82.2598c7.87988 118.51 100.35 199.29 228.04 199.29
c130.65 0 226.771 -83.3896 226.771 -198.13c0 -65.8301 -29.6699 -125.25 -77.1895 -159.37z" />
    <glyph glyph-name="uni0438.ss02" horiz-adv-x="642" 
d="M471.16 540h85v-540h-63.0996l-14.6299 83.4404c-40.8301 -59.3896 -109.521 -95.2695 -192.601 -95.2695c-128.26 0 -208.43 96.3896 -208.43 228.35v323.48h85v-303.4c0 -109.54 50.54 -170.73 145.34 -170.73c92.3604 0 163.42 78.1904 163.42 179.5v294.63z" />
    <glyph glyph-name="uni0439.ss02" horiz-adv-x="642" 
d="M455.69 712.6v-64.0195h-262.43v64.0195h262.43zM471.16 540h85v-540h-63.0996l-14.6299 83.4404c-40.8301 -59.3896 -109.521 -95.2695 -192.601 -95.2695c-128.26 0 -208.43 96.3896 -208.43 228.35v323.48h85v-303.4c0 -109.54 50.54 -170.73 145.34 -170.73
c92.3604 0 163.42 78.1904 163.42 179.5v294.63z" />
    <glyph glyph-name="uni043A.ss02" horiz-adv-x="553" 
d="M441.97 0l-184.939 242.239h-77.25v-242.24h-85v732.73h85v-411.88h78.5l166.43 219.15h103.6l-196.93 -258.9l216.93 -281.1h-106.34z" />
    <glyph glyph-name="uni043B.ss02" horiz-adv-x="535" 
d="M514.85 0h-86.9092l-159.97 425.09l-163.75 -425.09h-85.0801l210.31 540h76.2598z" />
    <glyph glyph-name="uni043F.ss02" horiz-adv-x="642" 
d="M355.99 551.82c128.26 0 208.43 -96.3809 208.43 -228.351v-323.47h-85v303.4c0 109.54 -51.4502 170.72 -145.34 170.72c-92.3604 0 -163.42 -78.1797 -163.42 -179.5v-294.62h-85v540h60.3604l16.5498 -84.6396c40.7402 60.1104 109.78 96.46 193.42 96.46z" />
    <glyph glyph-name="uni0442.ss02" horiz-adv-x="950" 
d="M682.44 551.82c114.29 0 189.856 -85.8193 189.856 -206.439v-345.38h-84.9102l-0.0898438 318.92c0 97.0996 -45.0996 155.199 -122.199 155.199c-78.7695 0 -143.989 -75.96 -144.079 -174.93v-299.19h-83.1699v318.92c0 97.2803 -45.0195 155.2 -123.109 155.2
c-78.7695 0 -143.989 -75.96 -144.079 -174.93v-299.19h-85v540h61.2803l13.9297 -74.0703c41.29 53.6299 104.71 85.8896 173.03 85.8896c76.6201 0 135.69 -39.4102 165.561 -102.38c40.0596 63.4404 108.569 102.381 182.979 102.381z" />
    <glyph glyph-name="uni0446.ss02" horiz-adv-x="675" 
d="M556.16 169.41c0 -77.5303 31.1689 -112.698 98.959 -112.698v-199.85h-78.6104v150.18c-44.7695 6.91992 -73.7998 34.3496 -87.6797 81.3994c-43.5596 -59.7002 -115.529 -100.271 -202.999 -100.271c-128.26 0 -208.43 95.4805 -208.43 227.44v324.39h85v-302.49
c0 -110.45 51.4502 -171.641 145.34 -171.641c92.3604 0 163.42 79.0996 163.42 180.42v293.71h85v-370.59z" />
    <glyph glyph-name="uni0448.ss02" horiz-adv-x="949" 
d="M778.12 540l85.0098 -0.00390625v-540h-63.0996l-12.5596 72.3096c-41.3096 -52.5801 -104.1 -84.1396 -171.659 -84.1396c-76.6299 0 -135.7 39.4102 -165.57 102.38c-40.0498 -63.4297 -108.56 -102.38 -182.97 -102.38c-114.3 0 -189.859 85.8301 -189.859 206.44
v345.39h84.9102l0.0898438 -318.93c0.0800781 -97.0996 45.0996 -155.199 122.199 -155.199c78.7598 0 143.99 75.96 144.07 174.94v299.19h83.1797v-318.93c0 -97.2695 45 -155.199 123.1 -155.199c77.8496 0 143.069 75.96 143.159 174.94v299.19z" />
    <glyph glyph-name="uni0449.ss02" horiz-adv-x="983" 
d="M864.04 169.41c0 -79.3496 33.0098 -112.705 98.0498 -112.705v-199.85h-77.7002v149.58c-42.5195 7.2002 -72.7197 33.1602 -87.6494 73.9004c-40.8203 -57.2402 -108.12 -92.1699 -180.93 -92.1699c-76.6299 0 -135.7 39.4102 -165.57 102.38
c-40.0498 -63.4297 -108.56 -102.38 -182.97 -102.38c-114.3 0 -189.859 85.8301 -189.859 206.44v345.39h84.9102l0.0898438 -318.93c0.0800781 -97.0996 45.0996 -155.199 122.199 -155.199c78.7598 0 143.99 75.96 144.07 174.94v299.19h83.1797v-318.93
c0 -97.2695 45 -155.199 123.1 -155.199c78.7598 0 144.08 75.96 144.08 174.94v299.19h85v-370.59z" />
    <glyph glyph-name="uni044E.ss02" horiz-adv-x="858" 
d="M537.46 551.82c159.56 0 277.48 -120.079 277.48 -282.729c0 -161.83 -117 -280.92 -277.48 -280.92c-147.42 0 -258.18 100.39 -275.34 242.06h-91.46v-231.32h-85v733.82h85v-422.97h91.6797c17.9102 141.67 129.09 242.06 275.12 242.06zM537.461 70.4414
c109.76 0 190.649 84.8799 190.649 198.649c0 114.67 -81.8896 200.47 -190.649 200.47c-109.85 0 -190.83 -85.7998 -190.83 -200.47c0 -113.77 80.9805 -198.649 190.83 -198.649z" />
    <glyph glyph-name="uni0436.ss03" horiz-adv-x="783" 
d="M350.61 0v732.73h82.2598v-732.73h-82.2598zM18.4404 540h100.86l214.94 -256.74v-8.91016l-234.94 -274.35h-101.78l237.59 282.07zM548.351 282.12l237.609 -282.12h-101.77l-234.94 274.35v8.91016l214.94 256.74h100.86z" />
    <glyph glyph-name="uni043A.ss03" horiz-adv-x="521" 
d="M85.6602 0v732.73h85v-732.73h-85zM287.03 281.301l237.68 -281.3h-109.16l-227.6 276.17v8.91016l213.07 254.92h106.43z" />
    <glyph glyph-name="Alpha" unicode="&#x391;" horiz-adv-x="697" 
d="M584.64 0l-69.4609 167.63h-336.4l-68.4297 -167.63h-93.2998l286.4 700h81.9102l294.4 -700h-95.1201zM345.648 579.17l-134.14 -331.1h270.68z" />
    <glyph glyph-name="Beta" unicode="&#x392;" horiz-adv-x="645" 
d="M483.32 363.11c64.7598 -27.75 104.46 -93.9102 104.46 -170.45c0 -108.56 -91.6904 -192.649 -212.04 -192.649h-280.16v700h276.51c114.48 0 197.341 -76.7402 197.341 -178.78c0 -62.75 -33.5703 -127.15 -86.1104 -158.12zM479.87 509.38
c0 59.54 -48.1006 104.72 -109.641 104.72h-187.83v-209.71h188.44c62.1904 0 109.03 46.71 109.03 104.99zM374.789 86.8291c69.9805 0 122.521 48.8105 122.521 115.87c0 65.9697 -52.4502 115.77 -122.08 115.77h-192.83v-231.64h192.39z" />
    <glyph glyph-name="Gamma" unicode="&#x393;" horiz-adv-x="492" 
d="M471.12 700v-82.2598h-287.81v-617.74h-87.7402v700h375.55z" />
    <glyph glyph-name="uni0394" unicode="&#x394;" horiz-adv-x="697" 
d="M383.54 700l298.7 -700h-663.19l287.7 700h76.79zM345.721 572.32l-195.22 -490.06h394.58z" />
    <glyph glyph-name="Epsilon" unicode="&#x395;" horiz-adv-x="553" 
d="M183.31 84.0801h319.64v-84.0801h-407.38v700h396.38v-83.1797h-308.64v-216.36h282.64v-81.3496h-282.64v-235.03z" />
    <glyph glyph-name="Zeta" unicode="&#x396;" horiz-adv-x="563" 
d="M165.62 82.2598h371.102v-82.2598h-510.9v15.1201l361.56 602.62h-345.73v82.2598h484.29v-16.7803z" />
    <glyph glyph-name="Eta" unicode="&#x397;" horiz-adv-x="729" 
d="M545.6 700h87.7305v-700h-87.7305v318.11h-362.29v-318.11h-87.7402v700h87.7402v-297.8h362.29v297.8z" />
    <glyph glyph-name="Theta" unicode="&#x398;" horiz-adv-x="829" 
d="M414.26 -11.8301c-209.09 0 -366.3 155 -366.3 360.83c0 206.82 157.21 362.82 366.3 362.82c210 0 366.3 -155 366.3 -362.82c0 -206.83 -156.3 -360.83 -366.3 -360.83zM414.26 74.0801c157.37 0 276.74 117.98 276.74 275.83c0 157.94 -119.37 276 -276.74 276
c-157.38 0 -276.74 -119.06 -276.74 -276c0 -157.76 111.15 -275.83 276.74 -275.83zM221.569 308.41v85h382.2v-85h-382.2z" />
    <glyph glyph-name="Iota" unicode="&#x399;" horiz-adv-x="279" 
d="M95.5703 0v700h87.7402v-700h-87.7402z" />
    <glyph glyph-name="Kappa" unicode="&#x39a;" horiz-adv-x="635" 
d="M522.72 0l-246.199 320.67h-93.21v-320.67h-87.7402v700h87.7402v-297.06h92.75l224.22 297.06h111.82l-256.04 -336.67l279.39 -363.33h-112.73z" />
    <glyph glyph-name="Lambda" unicode="&#x39b;" horiz-adv-x="671" 
d="M650.58 0h-95.1211l-220.42 572.52l-222.43 -572.52h-92.3896l273.88 700h81.9102z" />
    <glyph glyph-name="Mu" unicode="&#x39c;" horiz-adv-x="957" 
d="M912.11 0h-89.5615l-90.96 546.76l-241.34 -528.93h-23.5098l-241.41 528.32l-91.8096 -546.15h-89.5596l117.79 700h84.6504l231.17 -513.72l232.19 513.72h86.4697z" />
    <glyph glyph-name="Nu" unicode="&#x39d;" horiz-adv-x="749" 
d="M567.9 700h85.9102v-700h-73.96l-398.37 546.29v-546.29h-85.9102v700h79.4404l392.89 -539.92v539.92z" />
    <glyph glyph-name="Xi" unicode="&#x39e;" horiz-adv-x="561" 
d="M56.5596 614.08v85.9199h449.04v-85.9199h-449.04zM95.5596 319.11v84.0898h371.04v-84.0898h-371.04zM48.5596 0v86.8203h464.04v-86.8203h-464.04z" />
    <glyph glyph-name="Omicron" unicode="&#x39f;" horiz-adv-x="829" 
d="M414.26 -11.8203c-211.82 0 -366.301 155 -366.301 361.74c0 206.82 154.48 361.91 366.301 361.91c211.83 0 366.3 -155 366.3 -361.91c0 -206.83 -154.47 -361.74 -366.3 -361.74zM414.26 74.0898c159.2 0 276.74 117.97 276.74 275.819
c0 157.94 -117.54 276 -276.74 276s-276.74 -119.06 -276.74 -276c0 -156.85 117.54 -275.819 276.74 -275.819z" />
    <glyph glyph-name="Pi" unicode="&#x3a0;" horiz-adv-x="701" 
d="M95.5703 700h509.98v-700h-88.6504v617.74h-333.59v-617.74h-87.7402v700z" />
    <glyph glyph-name="Rho" unicode="&#x3a1;" horiz-adv-x="610" 
d="M346.56 700c132.04 0 232.34 -95.2998 232.34 -224.17c0 -128.03 -99.2998 -224.25 -232.34 -224.25h-163.25v-251.58h-87.7402v700h250.99zM342 336.58c85.8799 0 147.33 59.2803 147.33 139.25c0 79.8896 -61.4502 139.17 -147.33 139.17h-158.69v-278.42h158.69z" />
    <glyph glyph-name="Sigma" unicode="&#x3a3;" horiz-adv-x="561" 
d="M176.45 82.2598l347.851 -0.000976562v-82.2598h-502.6v20.21l245.81 334.73l-239.81 324.85v20.21h487.6v-82.2598h-332.79l189.31 -256v-14.3896z" />
    <glyph glyph-name="Tau" unicode="&#x3a4;" horiz-adv-x="556" 
d="M534.85 700v-82.2598h-213.02v-617.74h-87.7305v617.74h-213.02v82.2598h513.77z" />
    <glyph glyph-name="Upsilon" unicode="&#x3a5;" horiz-adv-x="658" 
d="M632.5 700l-258.488 -420.87v-279.13h-90.4805v279.23l-256.4 420.77h96.1299l206.02 -338.07l207.09 338.07h96.1299z" />
    <glyph glyph-name="Phi" unicode="&#x3a6;" horiz-adv-x="812" 
d="M449.92 672.61c197.13 -8.20996 317.96 -153.86 317.96 -321.79c0 -166.92 -120.83 -310.66 -317.96 -319.78v-81.4404h-87.7305v81.4404c-196.22 9.12012 -318.14 153.86 -318.14 319.78c0 167.93 121.92 313.58 318.14 321.79v74.6104h87.7305v-74.6104zM133.61 350.82
c0 -128.05 91.9805 -233.391 229.49 -238.351v480.49c-137.51 -6.76953 -229.49 -114 -229.49 -242.14zM449.011 112.47c138.39 4.9502 228.399 110.211 228.399 238.351c0 129.14 -90.0098 235.39 -228.399 242.14v-480.49z" />
    <glyph glyph-name="Chi" unicode="&#x3a7;" horiz-adv-x="600" 
d="M592.59 0h-98.96l-193.29 296.08l-191.96 -296.08h-99.8604l237.96 366.66l-219.52 333.34h98.9502l175.02 -267.11l173.44 267.11h98.9502l-218.44 -336.27z" />
    <glyph glyph-name="Psi" unicode="&#x3a8;" horiz-adv-x="799" 
d="M659.64 699.91h87.7285v-239.29c0 -170.22 -119.17 -287.66 -291.96 -287.66h-11.3096v-172.96h-88.6504v172.96h-11.3096c-172.79 0 -291.97 117.44 -291.97 287.66v239.29h87.7402v-229.25c0 -126.72 80.4102 -207.22 205.141 -207.22h12.2197v436.56h85v-436.56
h12.2305c124.72 0 205.14 80.5 205.14 207.22v229.25z" />
    <glyph glyph-name="uni03A9" unicode="&#x3a9;" horiz-adv-x="862" 
d="M659.2 82.2598h142.869v-82.2598h-311.69v80.4404c131.42 38.4697 216.479 149.45 216.479 280.12c0 149.2 -120.89 265.351 -275.819 265.351c-154.03 0 -274.92 -116.15 -274.92 -265.351c0 -130.67 84.9805 -241.65 215.391 -280.12v-80.4404h-311.69v82.2598h143.27
c-84.4404 66.8496 -136.53 164.17 -136.53 284.689c0 194.52 159.65 344.869 364.48 344.869c204.73 0 365.381 -150.35 365.381 -344.869c0 -120.52 -52.46 -217.84 -137.22 -284.689z" />
    <glyph glyph-name="Alphatonos" unicode="&#x386;" horiz-adv-x="697" 
d="M584.64 0l-69.4609 167.63h-336.4l-68.4297 -167.63h-93.2998l286.4 700h81.9102l294.4 -700h-95.1201zM65.7686 558l71.9297 142h91.5596l-96.5596 -142h-66.9297zM345.648 579.17l-134.14 -331.1h270.68z" />
    <glyph glyph-name="Epsilontonos" unicode="&#x388;" horiz-adv-x="553" 
d="M-102.84 558l71.9307 142h91.5596l-96.5703 -142h-66.9199zM183.311 84.0801h319.64v-84.0801h-407.38v700h396.38v-83.1797h-308.64v-216.36h282.64v-81.3496h-282.64v-235.03z" />
    <glyph glyph-name="Etatonos" unicode="&#x389;" horiz-adv-x="729" 
d="M-102.93 558l71.9297 142h91.5596l-96.5596 -142h-66.9297zM545.6 700h87.7305v-700h-87.7305v318.11h-362.29v-318.11h-87.7402v700h87.7402v-297.8h362.29v297.8z" />
    <glyph glyph-name="Iotatonos" unicode="&#x38a;" horiz-adv-x="279" 
d="M-104.75 558l71.9199 142h91.5703l-96.5703 -142h-66.9199zM95.5703 0v700h87.7402v-700h-87.7402z" />
    <glyph glyph-name="Omicrontonos" unicode="&#x38c;" horiz-adv-x="829" 
d="M414.26 -11.8203c-211.82 0 -366.301 155 -366.301 361.74c0 206.82 154.48 361.91 366.301 361.91c211.83 0 366.3 -155 366.3 -361.91c0 -206.83 -154.47 -361.74 -366.3 -361.74zM-37.1104 558l71.9297 142h91.5596l-96.5596 -142h-66.9297zM414.27 74.0898
c159.2 0 276.74 117.97 276.74 275.819c0 157.94 -117.54 276 -276.74 276s-276.74 -119.06 -276.74 -276c0 -156.85 117.54 -275.819 276.74 -275.819z" />
    <glyph glyph-name="Upsilontonos" unicode="&#x38e;" horiz-adv-x="658" 
d="M536.37 700h96.1309l-258.49 -420.87v-279.13h-90.4805v279.23l-255.53 419.35l-95.5996 -140.58h-66.9297l71.9297 142h185.86l206.02 -338.07z" />
    <glyph glyph-name="Omegatonos" unicode="&#x38f;" horiz-adv-x="862" 
d="M659.2 82.2598h142.869v-82.2598h-311.69v80.4404c131.42 38.4697 216.479 149.45 216.479 280.12c0 149.2 -120.89 265.351 -275.819 265.351c-154.03 0 -274.92 -116.15 -274.92 -265.351c0 -130.67 84.9805 -241.65 215.391 -280.12v-80.4404h-311.69v82.2598h143.27
c-84.4404 66.8496 -136.53 164.17 -136.53 284.689c0 194.52 159.65 344.869 364.48 344.869c204.73 0 365.381 -150.35 365.381 -344.869c0 -120.52 -52.46 -217.84 -137.22 -284.689zM48.7598 700h91.5596l-96.5596 -142h-66.9297z" />
    <glyph glyph-name="Iotadieresis" unicode="&#x3aa;" horiz-adv-x="279" 
d="M25.5195 788.02v97.4902h88.4004v-97.4902h-88.4004zM165.789 788.02v97.4902h88.4004v-97.4902h-88.4004zM95.5693 -0v700h87.7402v-700h-87.7402z" />
    <glyph glyph-name="Upsilondieresis" unicode="&#x3ab;" horiz-adv-x="658" 
d="M172.06 788.03v97.4902h97.5195v-97.4902h-97.5195zM389.22 788.03v97.4902h97.5195v-97.4902h-97.5195zM632.489 700.011l-258.488 -420.86v-279.14h-90.4805v279.23l-256.4 420.77h96.1299l206.02 -338.06l207.09 338.06h96.1299z" />
    <glyph glyph-name="alpha" unicode="&#x3b1;" horiz-adv-x="699" 
d="M546.03 540l67.6699 -0.000976562v-540h-70.4004l-8.96973 81.8203c-49.79 -58.1299 -124.21 -93.6494 -211.89 -93.6494c-159.65 0 -279.48 121 -279.48 281.82c0 161.74 119.83 281.83 279.48 281.83c88.3301 0 163.2 -35.7803 212.99 -94.5801zM328.84 70.4395
c114.5 0 198.04 84.71 198.04 199.56s-83.54 199.56 -198.04 199.56c-114.33 0 -199.04 -85.8896 -199.04 -199.56c0 -113.76 84.71 -199.56 199.04 -199.56z" />
    <glyph glyph-name="beta" unicode="&#x3b2;" horiz-adv-x="623" 
d="M466.53 384.97c70.8301 -28.9102 111.41 -94.0312 111.41 -182.411c0 -122.26 -106.51 -214.39 -248.08 -214.39c-55.3604 0 -109.46 13.29 -159.3 38.3604v-208.32h-85v646.65c0 177.87 88.21 279.7 242.13 279.7c132.39 0 225.689 -81.4805 225.689 -196.301
c0 -73.8896 -31.8496 -133.02 -86.8496 -163.289zM321.65 70.4385c106.36 0 174.029 54.2695 174.029 139.42c0 76.9697 -60.2305 131.46 -144.94 131.46h-100.94v76.79h98.2002c75.1904 0 128.591 48.6602 128.591 118.29c0 77.71 -59.9297 130.46 -147.08 130.46
c-102.2 0 -158.95 -72.0996 -158.95 -202v-348.46c42.0703 -29.8496 95.6104 -45.96 151.091 -45.96z" />
    <glyph glyph-name="gamma" unicode="&#x3b3;" horiz-adv-x="569" 
d="M551.37 540l-221.489 -513.03v-216.97h-83.1699v216.25l-230.49 513.75h90.5596l180.34 -408.12l173.69 408.12h90.5596z" />
    <glyph glyph-name="delta" unicode="&#x3b4;" horiz-adv-x="612" 
d="M242.17 634.16c173.89 -78.4502 327.899 -222.771 327.899 -389.951c0 -139 -105.26 -256.04 -263.6 -256.04c-151.95 0 -264.51 109.65 -264.51 256.95c0 139.09 113.39 250.57 245.35 250.57c26.75 0 48.8799 -3.36035 68.6299 -10.0303
c-74.7305 59.3799 -177.37 112.95 -290.16 149.061v76.2305h467.69v-76.79h-291.3zM306.479 66.7793c104.89 0 181.34 76.4502 181.34 178.34c0 102.98 -77.4502 179.25 -181.34 179.25c-105.06 0 -180.42 -76.4502 -180.42 -179.25
c0 -101.89 75.4502 -178.34 180.42 -178.34z" />
    <glyph glyph-name="epsilon" unicode="&#x3b5;" horiz-adv-x="488" 
d="M377.81 150.24l80.4385 -0.000976562c-9.96973 -98.5498 -90.2598 -162.069 -203.16 -162.069c-121.95 0 -208.34 69.6504 -208.34 168.04c0 60.96 27.6201 107.62 76.71 132.28c-40.8096 24.7695 -63.0596 63.8193 -63.0596 113.859
c0 86.5596 81.4697 149.47 191.51 149.47c106.08 0 184.2 -58.8604 193.08 -147.2h-78.6201c-8.87012 47.5801 -51.7998 77.71 -111.72 77.71c-66.6299 0 -112.899 -34.1797 -112.899 -85.46c0 -47.5703 37.2197 -80.3203 93.0596 -80.3203h79.4502v-64.0195h-79.54
c-61.6602 0 -103.88 -38.2695 -103.88 -90.8398c0 -56.7197 51.2695 -95.8193 124.25 -95.8193c67.7402 0 115.49 33.0498 122.721 84.3701z" />
    <glyph glyph-name="zeta" unicode="&#x3b6;" horiz-adv-x="507" 
d="M502.25 684.24c-246.98 -190.5 -372.641 -330.579 -372.641 -450.469c0 -203.4 354.11 -115.681 354.11 -328.521c0 -27.21 -5 -64.8701 -14.7402 -97.9902h-82.2598c8.74023 27.2998 12.9102 59.8301 12.9102 78.8301c0 156.03 -356.85 75.0605 -356.85 336.73
c0 138.52 100.08 262.109 297.04 427.649h-269.04v82.2598h431.47v-48.4902z" />
    <glyph glyph-name="eta" unicode="&#x3b7;" horiz-adv-x="642" 
d="M355.99 551.82c128.26 0 208.43 -88.1592 208.43 -228.339v-516.21h-85v496.14c0 109.54 -51.4502 170.72 -145.34 170.72c-92.3604 0 -163.42 -78.1797 -163.42 -179.5v-294.62h-85v540h60.3604l16.6602 -84.4805c40.75 60 109.75 96.29 193.31 96.29z" />
    <glyph glyph-name="theta" unicode="&#x3b8;" horiz-adv-x="697" 
d="M347.82 738.17c186.95 0 296.431 -160 296.431 -375s-109.48 -375 -296.431 -375c-188.03 0 -295.511 161 -295.511 375s107.48 375 295.511 375zM347.82 655.91c-120.88 0 -197.849 -96.0996 -209.079 -252.06h419.06c-11.3604 155.96 -89.1807 252.06 -209.98 252.06z
M347.821 70.4404c120.25 0 198.971 98.2607 210.07 253.881h-419.23c11.0703 -155.69 89.5898 -253.881 209.16 -253.881z" />
    <glyph glyph-name="iota" unicode="&#x3b9;" horiz-adv-x="345" 
d="M263.12 -3c-114.6 0 -184.55 68.1191 -184.55 180.899v362.1h85v-353.89c0 -69.2695 41.2305 -109.59 112.33 -109.59h55.8701v-79.5195h-68.6504z" />
    <glyph glyph-name="kappa" unicode="&#x3ba;" horiz-adv-x="540" 
d="M432.85 0l-184.949 242.24h-77.25v-242.24h-85v540h85v-219.15h78.5098l166.5 219.15h103.6l-197 -258.91l216.93 -281.09h-106.34z" />
    <glyph glyph-name="lambda" unicode="&#x3bb;" horiz-adv-x="567" 
d="M544.76 0l-92.3896 0.00195312l-163.81 401.84l-183.56 -401.84h-93.2998l232.85 504.43l-13.9805 31.1299c-30.8203 74.5596 -55.3506 96.7393 -112.431 96.7393h-30.5703v79.5195h39.6904c90.3701 0 135.32 -41.5996 182.75 -154.84z" />
    <glyph glyph-name="uni03BC" unicode="&#x3bc;" horiz-adv-x="650" 
d="M479.29 540l84.9893 -0.000976562v-540h-57.6201l-16.8398 90.9297c-40.79 -59.6699 -117.49 -101.84 -189.86 -101.84c-50.2695 0 -102.699 11.8398 -131.119 38.6299v-220.46h-83.1797v732.74h85v-307.01c0 -104.54 49.3604 -161.64 138.42 -161.64
c93.0195 0 170.21 76.3604 170.21 169.46v299.19z" />
    <glyph glyph-name="nu" unicode="&#x3bd;" horiz-adv-x="572" 
d="M466.9 540h86.9092l-227.66 -540h-77.3496l-233.58 540h88.7402l183.36 -429.56z" />
    <glyph glyph-name="xi" unicode="&#x3be;" horiz-adv-x="525" 
d="M307.25 63.3496c87.04 -29.21 174.722 -59.3506 174.722 -158.021c0 -25.3896 -5.91016 -65.1299 -15.6504 -98.0801h-85.9102c7.83008 22.7402 12.9102 57.1807 12.9102 79.8311c0 46.7803 -34.8799 71.1699 -135.61 104.03
c-148.62 48.25 -211.66 105.15 -211.66 215.61c0 84.3896 44.4805 152.819 115.261 182.819c-59.71 27.6699 -96.7002 85.3398 -96.7002 155.32c0 112.57 94.9502 193.95 225.9 193.95c123.43 0 215.81 -77.1201 224.779 -188.99h-84.0898
c-9.95996 67.4502 -66.2402 113.12 -140.69 113.12c-81.0596 0 -137.25 -49 -137.25 -120.81c0 -67.0996 51.4004 -115.76 120.15 -115.76h96.5898v-75.8701h-97.5c-78.4902 0 -135.061 -57.1904 -135.061 -135.551c0 -94.1602 85.0596 -122.521 169.81 -151.601z" />
    <glyph glyph-name="omicron" unicode="&#x3bf;" horiz-adv-x="659" 
d="M329.26 -11.8203c-163.56 0 -286.3 120 -286.3 281.82c0 162.83 122.74 281.83 286.3 281.83c163.65 0 286.301 -120 286.301 -281.83c0 -161.82 -122.65 -281.82 -286.301 -281.82zM329.26 70.4395c115.59 0 199.489 83.959 199.489 199.549
s-83.8896 199.57 -199.479 199.57s-199.479 -83.8896 -199.479 -199.56c0 -115.59 83.9697 -199.56 199.47 -199.56z" />
    <glyph glyph-name="pi" unicode="&#x3c0;" horiz-adv-x="630" 
d="M85.6602 540h458.67v-540h-84.0801v462.3h-289.59v-462.3h-85v540z" />
    <glyph glyph-name="rho" unicode="&#x3c1;" horiz-adv-x="673" 
d="M351.35 550.91c159.47 0 278.12 -120.999 278.12 -280.909c0 -160 -118.65 -281.83 -275.391 -281.83c-73.2998 0 -153.569 33.9404 -196.029 80.5303v-261.44h-86.8301v456.35c0 167.3 116 287.3 280.13 287.3zM350.439 70.4414c113.32 0 194.03 83.9697 194.03 199.56
c0 114.67 -80.7998 198.65 -194.03 198.65c-113.42 0 -194.22 -83.9805 -194.22 -198.65c0 -115.59 81.7197 -199.56 194.22 -199.56z" />
    <glyph glyph-name="uni03C2" unicode="&#x3c2;" horiz-adv-x="603" 
d="M449.72 -192.74c7.83008 27.2998 12.918 60.8301 12.918 79.8301c0 68.6104 -70.0596 88.5205 -153.02 111.521c-118.96 33 -265.66 73.9102 -265.66 282.26c0 154.48 120.74 270.04 281.48 270.04c127.59 0 231.72 -74.7803 261.859 -193.2h-84.1797
c-33.7002 72.1904 -99.8799 110.021 -178.6 110.021c-110.85 0 -193.739 -79.4502 -193.739 -186.86c0 -147.34 113.07 -177.95 221.08 -208.21c98.4697 -27.5596 193.95 -54.04 193.95 -167.32c0 -25.3896 -5.91016 -65.1299 -14.7402 -98.0801h-81.3496z" />
    <glyph glyph-name="sigma" unicode="&#x3c3;" horiz-adv-x="689" 
d="M669.61 540.91l-0.000976562 -77.7002h-156.56c59.1504 -45.1699 95.3408 -118.81 95.3408 -198.21c0 -159.83 -117.83 -276.83 -281.311 -276.83c-163.38 0 -284.03 118.83 -284.03 276.83c0 158.09 120.65 275.91 286.771 275.91h339.79zM326.169 70.4404
c115.42 0 197.22 80.9688 197.22 195.469c0 111.76 -81.7998 192.74 -197.22 192.74c-115.41 0 -197.21 -80.8896 -197.21 -192.739c0 -114.5 81.7998 -195.47 197.21 -195.47z" />
    <glyph glyph-name="tau" unicode="&#x3c4;" horiz-adv-x="487" 
d="M445.38 463.21l-173.02 -0.000976562v-277.1c0 -69.2695 41.2197 -109.59 112.33 -109.59h55.8701v-79.5195h-68.6504c-114.6 0 -184.55 68.1201 -184.55 180.9v285.31h-172.36v76.79h430.38v-76.79z" />
    <glyph glyph-name="upsilon" unicode="&#x3c5;" horiz-adv-x="632" 
d="M315.91 -11.8301c-145.21 0 -239.432 94.7393 -239.432 239.649v312.18h85v-298.49c0 -106.06 59.1104 -171.069 154.431 -171.069c96.2402 0 154.431 65.9199 154.431 171.07v298.49h84.9902v-312.18c0 -144.91 -93.29 -239.65 -239.42 -239.65z" />
    <glyph glyph-name="phi" unicode="&#x3c6;" horiz-adv-x="738" 
d="M694.97 266.17c0 -158.86 -115.931 -271.379 -283.051 -276.869v-182.04h-83.1699v181.97c-164.77 4.62988 -285.789 122.1 -285.789 276.939c0 123.91 76 226.92 197.91 267.83l24.0801 -72.1396c-87.71 -32.6104 -137.9 -104.15 -137.9 -195.69
c0 -109.64 84.1904 -190.25 201.7 -194.63v468.46h70.3096c175.83 0 295.91 -111.83 295.91 -273.83zM410.769 71.5908c117.81 4.92969 200.11 84.1807 200.11 194.581c0 110.45 -82.46 187.75 -200.78 192.27v-365.44z" />
    <glyph glyph-name="chi" unicode="&#x3c7;" horiz-adv-x="513" 
d="M506.71 0h-95.3008l-154.9 224.96l-155.43 -224.96h-93.4697l197.98 280.66l-181.45 259.34h95.2998l137.96 -199.59l140.22 199.59h93.4805l-183.33 -255.52z" />
    <glyph glyph-name="psi" unicode="&#x3c8;" horiz-adv-x="785" 
d="M626.5 540h85v-279.09c0 -156.91 -109 -271.82 -260 -271.82h-14.3096v-181.83h-90.4805v181.83h-13.4004c-151 0 -260 115.91 -260 271.82v279.09h85v-275.44c0 -105.2 76.71 -186.83 178.65 -186.83h13.4004v461.27h84.0898v-461.27h14.3096
c101.11 0 177.74 80.6299 177.74 186.83v275.44z" />
    <glyph glyph-name="omega" unicode="&#x3c9;" horiz-adv-x="880" 
d="M767.87 540c38.9199 -90.8301 59.918 -187.091 59.918 -274.261c0 -168.26 -75.5098 -276.569 -198.819 -276.569c-94.9297 0 -164.699 46.9502 -188.969 116.83c-25.0703 -69.8799 -95.4805 -116.83 -189.591 -116.83c-123.4 0 -197.91 106.4 -197.91 275.57
c0 87.1699 20.0801 181.61 58.9902 275.261h89.6504c-40.7305 -85.3496 -63.6504 -182.79 -63.6504 -266.14c0 -126.59 48.8398 -203.34 129.34 -203.34c77.2803 0 133.55 62.1396 133.55 145.279v182.52h78.6104v-182.52c0 -83.1396 56.2803 -145.279 132.641 -145.279
c81.3301 0 129.33 76.0098 129.33 204.34c0 83.3496 -22.9102 180.869 -61.8203 265.139h88.7305z" />
    <glyph glyph-name="iotatonos" unicode="&#x3af;" horiz-adv-x="345" 
d="M80.7002 603.35l67.3994 152h90.6504l-91.1299 -152h-66.9199zM263.119 -3c-114.6 0 -184.55 68.1191 -184.55 180.899v362.1h85v-353.89c0 -69.2695 41.2305 -109.59 112.33 -109.59h55.8701v-79.5195h-68.6504z" />
    <glyph glyph-name="iotadieresis" unicode="&#x3ca;" horiz-adv-x="345" 
d="M-24.8496 633.5v97.4902h97.5303v-97.4902h-97.5303zM172.21 633.5v97.4902h97.5303v-97.4902h-97.5303zM263.12 -3c-114.6 0 -184.56 68.1299 -184.56 180.91v362.1h85v-353.89c0 -69.2803 41.2305 -109.59 112.33 -109.59h55.8799v-79.5303h-68.6504z" />
    <glyph glyph-name="iotadieresistonos" unicode="&#x390;" horiz-adv-x="345" 
d="M89.9102 603.44l36.5205 152h74.9697l-55.6904 -152h-55.7998zM-18.4697 641.71v81.0596h76.54v-81.0596h-76.54zM234.32 641.71v81.0596h76.54v-81.0596h-76.54zM263.12 -3c-114.6 0 -184.55 68.1191 -184.55 180.899v362.1h85v-353.89
c0 -69.2695 41.2305 -109.59 112.33 -109.59h55.8701v-79.5195h-68.6504z" />
    <glyph glyph-name="upsilontonos" unicode="&#x3cd;" horiz-adv-x="632" 
d="M273.71 603.35l67.3994 152h90.6504l-91.1299 -152h-66.9199zM315.909 -11.8301c-145.21 0 -239.432 94.7393 -239.432 239.649v312.18h85v-298.49c0 -106.06 59.1104 -171.069 154.431 -171.069c96.2402 0 154.431 65.9199 154.431 171.07v298.49h84.9902v-312.18
c0 -144.91 -93.29 -239.65 -239.42 -239.65z" />
    <glyph glyph-name="upsilondieresis" unicode="&#x3cb;" horiz-adv-x="632" 
d="M168.16 633.5v97.4902h97.5303v-97.4902h-97.5303zM365.22 633.5v97.4902h97.5195v-97.4902h-97.5195zM315.91 -11.8193c-145.21 0 -239.421 94.7393 -239.421 239.649v312.18h85v-298.49c0 -106.06 59.0996 -171.069 154.42 -171.069
c96.2402 0 154.431 65.9199 154.431 171.07v298.49h85v-312.18c0 -144.91 -93.2998 -239.65 -239.43 -239.65z" />
    <glyph glyph-name="upsilondieresistonos" unicode="&#x3b0;" horiz-adv-x="632" 
d="M254.1 603.44l48.3096 152h80.6104l-63.8203 -152h-65.0996zM147.899 641.62v81.0703h76.54v-81.0703h-76.54zM420.6 641.62v81.0703h76.54v-81.0703h-76.54zM315.909 -11.8291c-145.21 0 -239.432 94.7393 -239.432 239.649v312.18h85v-298.49
c0 -106.06 59.1104 -171.069 154.431 -171.069c96.2402 0 154.431 65.9199 154.431 171.07v298.49h84.9902v-312.18c0 -144.91 -93.29 -239.65 -239.42 -239.65z" />
    <glyph glyph-name="omicrontonos" unicode="&#x3cc;" horiz-adv-x="659" 
d="M287.06 603.35l67.4092 152h90.6504l-91.1299 -152h-66.9297zM329.269 -11.8301c-163.56 0 -286.3 120 -286.3 281.82c0 162.83 122.74 281.83 286.3 281.83c163.65 0 286.301 -120 286.301 -281.83c0 -161.82 -122.65 -281.82 -286.301 -281.82zM329.269 70.4297
c115.59 0 199.489 83.959 199.489 199.549s-83.8896 199.57 -199.479 199.57s-199.479 -83.8896 -199.479 -199.56c0 -115.59 83.9697 -199.56 199.47 -199.56z" />
    <glyph glyph-name="omegatonos" unicode="&#x3ce;" horiz-adv-x="880" 
d="M553.72 755.35l-91.1211 -152h-66.9297l67.4004 152h90.6504zM767.868 540c38.9199 -90.8301 59.918 -187.091 59.918 -274.261c0 -168.26 -75.5098 -276.569 -198.819 -276.569c-94.9297 0 -164.699 46.9502 -188.969 116.83
c-25.0703 -69.8799 -95.4805 -116.83 -189.591 -116.83c-123.4 0 -197.91 106.4 -197.91 275.57c0 87.1699 20.0801 181.61 58.9902 275.261h89.6504c-40.7305 -85.3496 -63.6504 -182.79 -63.6504 -266.14c0 -126.59 48.8398 -203.34 129.34 -203.34
c77.2803 0 133.55 62.1396 133.55 145.279v182.52h78.6104v-182.52c0 -83.1396 56.2803 -145.279 132.641 -145.279c81.3301 0 129.33 76.0098 129.33 204.34c0 83.3496 -22.9102 180.869 -61.8203 265.139h88.7305z" />
    <glyph glyph-name="alphatonos" unicode="&#x3ac;" horiz-adv-x="699" 
d="M454.06 755.35l-91.1211 -152h-66.9297l67.4004 152h90.6504zM546.028 540l67.6699 -0.000976562v-540h-70.4004l-8.96973 81.8203c-49.79 -58.1299 -124.21 -93.6494 -211.89 -93.6494c-159.65 0 -279.48 121 -279.48 281.82c0 161.74 119.83 281.83 279.48 281.83
c88.3301 0 163.2 -35.7803 212.99 -94.5801zM328.838 70.4395c114.5 0 198.04 84.71 198.04 199.56s-83.54 199.56 -198.04 199.56c-114.33 0 -199.04 -85.8896 -199.04 -199.56c0 -113.76 84.71 -199.56 199.04 -199.56z" />
    <glyph glyph-name="epsilontonos" unicode="&#x3ad;" horiz-adv-x="488" 
d="M360.84 755.35l-91.1309 -152h-66.9199l67.4004 152h90.6504zM377.809 150.239l80.4385 -0.000976562c-9.96973 -98.5498 -90.2598 -162.069 -203.16 -162.069c-121.95 0 -208.34 69.6504 -208.34 168.04c0 60.96 27.6201 107.62 76.71 132.28
c-40.8096 24.7695 -63.0596 63.8193 -63.0596 113.859c0 86.5596 81.4697 149.47 191.51 149.47c106.08 0 184.2 -58.8604 193.08 -147.2h-78.6201c-8.87012 47.5801 -51.7998 77.71 -111.72 77.71c-66.6299 0 -112.899 -34.1797 -112.899 -85.46
c0 -47.5703 37.2197 -80.3203 93.0596 -80.3203h79.4502v-64.0195h-79.54c-61.6602 0 -103.88 -38.2695 -103.88 -90.8398c0 -56.7197 51.2695 -95.8193 124.25 -95.8193c67.7402 0 115.49 33.0498 122.721 84.3701z" />
    <glyph glyph-name="etatonos" unicode="&#x3ae;" horiz-adv-x="642" 
d="M454.92 755.35l-91.1211 -152h-66.9297l67.4004 152h90.6504zM355.989 551.819c128.26 0 208.43 -88.1592 208.43 -228.339v-516.21h-85v496.14c0 109.54 -51.4502 170.72 -145.34 170.72c-92.3604 0 -163.42 -78.1797 -163.42 -179.5v-294.62h-85v540h60.3604
l16.6602 -84.4805c40.75 60 109.75 96.29 193.31 96.29z" />
    <glyph glyph-name="zero" unicode="0" horiz-adv-x="622" 
d="M311.38 -11.8301c-158.02 0 -257.439 132.92 -257.439 344.78c0 212.29 98.5098 343.86 257.439 343.86c158.03 0 256.53 -131.57 256.53 -343.86c0 -211.86 -99.4102 -344.78 -256.53 -344.78zM311.38 66.79c107.23 0 173.359 99.5898 173.359 266.16
c0 166.04 -66.0996 265.24 -173.359 265.24c-108.16 0 -174.26 -99.2002 -174.26 -265.24c0 -166.57 65.2197 -266.16 174.26 -266.16z" />
    <glyph glyph-name="one" unicode="1" horiz-adv-x="331" 
d="M25.7305 665h208.979v-665h-81.3496v589.12h-127.63v75.8799z" />
    <glyph glyph-name="two" unicode="2" horiz-adv-x="525" 
d="M198.89 78.6104l284.269 0.000976562v-78.6104h-446.81v26.7695c303.23 319.03 338.23 375.23 338.23 458.07c0 67.6201 -46.9199 113.37 -117.81 113.37c-73.71 0 -122.81 -46.8398 -122.81 -114.29v-16.2598h-82.2598v16.2598c0 116.6 83.5596 192.899 205.069 192.899
c118.87 0 200.99 -79.04 200.99 -191.98c0 -91.8896 -34.6504 -160.55 -258.87 -406.229z" />
    <glyph glyph-name="three" unicode="3" horiz-adv-x="534" 
d="M301.27 413.61c109.69 -14.8896 183.84 -99.2607 183.84 -208.4c0 -126.48 -96.5596 -217.04 -223.34 -217.04c-123.04 0 -212.51 85.2998 -218.77 206.17h81.3496c5.34961 -76.54 60.54 -127.56 137.42 -127.56c80.8896 0 140.17 59.3701 140.17 141.17
c0 81.54 -63.4502 140.07 -150.25 140.07h-74.4697v16.3896l153.64 224.8h-266.25v75.8701h394.68v-19.1201z" />
    <glyph glyph-name="four" unicode="4" horiz-adv-x="539" 
d="M511.07 213.53l0.00195312 -73.1299h-69.8301v-140.4h-80.4404v140.4h-340.45v19.2998l233.84 505.74h86l-208.32 -451.91h229.97l13.5596 205.43h65.8398v-205.43h69.8301z" />
    <glyph glyph-name="five" unicode="5" horiz-adv-x="525" 
d="M254.77 420.25c133.21 0 228.862 -93.8213 228.862 -215.031c0 -125.56 -96.5596 -217.04 -221.51 -217.04c-124.86 0 -216.16 87.1299 -220.601 206.17h81.3496c4.44043 -75.6299 61.4502 -127.56 139.25 -127.56c79.0596 0 138.329 58.4502 138.329 138.431
c0 80.6201 -63.4502 140.98 -148.42 140.98h-169.25l-11.4805 13.2998l33.5596 305.59h333.03v-75.8799h-264.72l-18.4805 -168.96h100.08z" />
    <glyph glyph-name="six" unicode="6" horiz-adv-x="555" 
d="M297.81 432.55c118.7 0 226.392 -86.2715 226.392 -218.041c0 -131.95 -99.3896 -226.34 -237.34 -226.34c-139.69 0 -239.16 94.4805 -239.16 226.341c0 63.6504 26.1699 138.141 73.0898 221.221l133.17 235.62h90.5596
c-92.5703 -164.7 -122.03 -217.36 -143.94 -260.811c31.0498 14.5996 64.3896 22.0098 97.2295 22.0098zM285.95 66.7783c89.7998 0 155.069 62.0996 155.069 147.729c0 86.54 -65.2695 147.64 -155.069 147.64s-155.08 -62.0195 -155.08 -147.64
c0 -84.71 65.2803 -147.729 155.08 -147.729z" />
    <glyph glyph-name="seven" unicode="7" horiz-adv-x="498" 
d="M25.8203 665.08h449.94v-14.4697l-261.88 -650.61h-87.9902l238.66 589.21h-338.73v75.8701z" />
    <glyph glyph-name="eight" unicode="8" horiz-adv-x="575" 
d="M430 356.44c56.7998 -30.7598 93.3994 -93.3096 93.3994 -164.06c0 -119.18 -97.1699 -204.22 -236.28 -204.22c-140.93 0 -235.359 82.2998 -235.359 204.22c0 69.0703 36.6602 131.19 94.3301 163.95c-42.96 30.2197 -70.5703 84.6396 -70.5703 142.489
c0 104.92 86 177.97 211.61 177.97s210.69 -72.1396 210.69 -177.97c0 -59.0195 -27.1904 -114.1 -67.8203 -142.38zM287.12 606.381c-77.6396 0 -130.249 -44.3506 -130.249 -107.561c0 -64.8896 53.1104 -109.09 130.25 -109.09c76.2197 0 129.34 44.1904 129.34 109.08
c0 63.21 -52.6104 107.57 -129.341 107.57zM287.121 61.3008c91.1504 0 153.11 52.7002 153.11 128.34c0 77.4102 -62.4502 129.68 -153.11 129.68c-89.7402 0 -152.19 -52.2695 -152.19 -129.68c0 -75.6396 61.9502 -128.34 152.19 -128.34z" />
    <glyph glyph-name="nine" unicode="9" horiz-adv-x="552" 
d="M266.95 676.82c138.77 0 237.342 -94.4707 237.342 -226.331c0 -63.6602 -23.4404 -139.05 -71.2705 -221.229l-133.17 -230.14h-90.5703c90.5596 158.12 120.5 210.41 143.17 254.521c-29.7305 -13.8604 -62.3301 -21.1904 -96.4502 -21.1904
c-126.91 0 -225.48 95.3799 -225.48 218.04c0 131.95 99.3896 226.33 236.43 226.33zM267.862 303.76c88.8896 0 153.25 62.0195 153.25 146.739c0 84.71 -64.3604 147.71 -153.25 147.71s-154.159 -62.0996 -154.159 -147.72c0 -85.6299 65.2695 -146.729 154.159 -146.729
z" />
    <glyph glyph-name="zero.sinf" horiz-adv-x="376" 
d="M187.77 -73.3301c-93.8604 0 -151.16 76.7402 -151.16 197.221c0 121.56 57.2998 196.3 151.16 196.3s151.17 -74.7402 151.17 -196.3c0 -120.48 -57.3096 -197.221 -151.17 -197.221zM187.77 -5.66992c51.1904 0 82.5898 47.8398 82.5898 129.56
c0 81.7998 -31.3096 128.63 -82.5898 128.63c-51.2695 0 -81.6699 -46.8301 -81.6699 -128.63c0 -80.8096 29.5703 -129.56 81.6699 -129.56z" />
    <glyph glyph-name="one.sinf" horiz-adv-x="211" 
d="M23.7305 313.1l130.98 -0.000976562v-378.43h-68.4902v318.15h-62.4902v60.2803z" />
    <glyph glyph-name="two.sinf" horiz-adv-x="323" 
d="M156.63 0.509766l132.83 0.00195312v-64.9297h-260.76v16.2197c161.75 181.47 182.57 211.819 182.57 254.05c0 32.6602 -21.4004 53.9697 -52.5801 53.9697c-33.0195 0 -55.5 -22.3096 -55.5 -54.8799v-8.26953h-66.75v8.26953
c0 70.5996 48.5596 116.159 121.329 116.159c71.8604 0 122.08 -47.2998 122.08 -115.25c0 -48.3701 -22.0996 -88.6504 -123.22 -205.341z" />
    <glyph glyph-name="three.sinf" horiz-adv-x="326" 
d="M194.16 171.78c59.1299 -11.4697 98.3008 -57.9199 98.3008 -119.16c0 -73.4697 -55.6504 -125.95 -131.431 -125.95c-72.21 0 -125.51 50.3896 -127.859 122.25h65.8398c2.34961 -34.8398 27.0098 -59.1494 62.0098 -59.1494c38.0195 0 64.6797 26.6699 64.6797 65.5898
c0 37.9297 -28.8398 63.7598 -69.8398 63.7598h-51.5996v12.4805l76.8496 120.22h-138.33v60.3701h235.68v-14.2197z" />
    <glyph glyph-name="four.sinf" horiz-adv-x="335" 
d="M307.46 69.7402l-0.000976562 -59.4502h-35.96v-75.6201h-64.9297v75.6201h-185.96v12.8203l127.87 289.99h67.7598l-108.39 -243.36h100.11l11.3896 99.8398h52.1504v-99.8398h35.96z" />
    <glyph glyph-name="five.sinf" horiz-adv-x="320" 
d="M156.6 176.96c78.0303 0 133.42 -51.7402 133.42 -123.771c0 -72.2998 -56.2998 -125.6 -129.25 -125.6c-74.6904 0 -129.811 51.0303 -130.16 121.98h66.75c1.34961 -34.75 26.6592 -59.7998 63.4092 -59.7998c36 0 61.5801 26.4902 61.5801 63.4199
c0 37.8301 -27.6602 65.2305 -66.6602 65.2305h-104.34l-6.83008 9.55957l20.7402 185.12h199.03v-60.3604h-143.77l-8.78027 -75.7803h44.8604z" />
    <glyph glyph-name="six.sinf" horiz-adv-x="339" 
d="M187.76 181.7c69.9102 0 125.39 -49.8301 125.39 -121.13c0 -77.7695 -58.21 -132.979 -139.08 -132.979c-82.5098 0 -140.81 54.3799 -140.81 132.979c0 33.8301 11.4404 71.8799 40 121.439l76.0898 131.88h75.1396l-69.0498 -119.63
c-3.96973 -7.26953 -7.83008 -14.5098 -11.7998 -21.7598c13.7002 5.87988 29.0498 9.2002 44.1201 9.2002zM173.159 -9.2998c43.5703 0 73.2402 28.2197 73.2402 69.8799c0 40.75 -29.6699 69.8896 -73.2402 69.8896c-42.6602 0 -73.1504 -29.1396 -73.1504 -69.8896
c0 -41.6602 30.4902 -69.8799 73.1504 -69.8799z" />
    <glyph glyph-name="seven.sinf" horiz-adv-x="310" 
d="M23.9102 313.1h266.24v-9.48047l-147 -368.95h-69.5801l128.27 318.07h-177.93v60.3604z" />
    <glyph glyph-name="eight.sinf" horiz-adv-x="349" 
d="M260.73 135.99c32.9902 -20.0596 51.4688 -51.3105 51.4688 -90.7207c0 -69.2998 -56.3896 -118.6 -138.34 -118.6s-137.42 49.2998 -137.42 118.6c0 39.5996 17.8701 70.9697 51.6006 90.9502c-25.6504 19.04 -39.9902 45.8096 -39.9902 78.54
c0 61.21 51.1201 105.43 126.72 105.43c74.6904 0 125.811 -44.2197 125.811 -105.43c0 -32.5195 -14.7998 -60.4492 -39.8496 -78.7695zM174.769 264.379c-35.8301 0 -60.8799 -21.8701 -60.8799 -50.5303c0 -29.75 25.1299 -50.7197 60.8799 -50.7197
c34.8398 0 59.9795 20.9697 59.9795 50.7197c0 28.6602 -25.0498 50.5303 -59.9795 50.5303zM174.769 -13.8809c42.2803 0 70.6807 24.3203 70.6807 59.1504c0 36 -28.4004 61.1396 -70.6807 61.1396c-42.2695 0 -71.5791 -25.1396 -71.5791 -61.1396
c0 -34.8301 29.3096 -59.1504 71.5791 -59.1504z" />
    <glyph glyph-name="nine.sinf" horiz-adv-x="339" 
d="M164.51 321.1c82.5098 0 140.81 -54.3906 140.81 -132.99c0 -33.8203 -11.3496 -71.8799 -40 -121.439l-76.0898 -131.87h-75.1299l69.0498 119.62c3.79004 6.95996 7.5 13.9004 11.29 20.8301c-13.5801 -5.46973 -28.7305 -8.26953 -43.6201 -8.26953
c-69.9102 0 -125.38 49.8301 -125.38 121.13c0 77.7695 58.21 132.989 139.07 132.989zM165.42 118.219c42.6602 0 73.1504 28.2305 73.1504 69.8906s-30.4902 69.8906 -73.1504 69.8906c-43.5703 0 -73.2305 -28.2305 -73.2305 -69.8906s29.6602 -69.8906 73.2305 -69.8906
z" />
    <glyph glyph-name="zero.tf" horiz-adv-x="572" 
d="M286.42 -11.8301c-158.12 0 -257.6 133 -257.6 345c0 213 98.5703 345 257.601 345c158.13 0 256.689 -132 256.689 -345c0 -212 -99.4805 -345 -256.69 -345zM286.421 67.7002c107.33 0 173.521 98.71 173.521 265.47c0 166.77 -66.1904 265.479 -173.521 265.479
c-108.23 0 -174.421 -98.71 -174.421 -265.479c0 -166.76 65.2695 -265.47 174.42 -265.47z" />
    <glyph glyph-name="one.tf" horiz-adv-x="572" 
d="M340.62 75.8701h152.07v-75.8701h-394.74v75.8701h159.5v513.25h-130.47v75.8799h213.64v-589.13z" />
    <glyph glyph-name="two.tf" horiz-adv-x="572" 
d="M220.79 78.6104l288.721 0.000976562v-78.6104h-451.21v26.7695c302.62 318.95 339.98 377.97 339.98 461.5c0 67.71 -47.2695 112.46 -118.68 112.46c-74.2402 0 -123.69 -45.9199 -123.69 -113.37v-16.4404h-82.2598v16.4404c0 116.42 83.7305 192.9 205.95 192.9
c119.47 0 201.859 -79.04 201.859 -191.99c0 -92.6504 -36.9404 -164.04 -260.671 -409.66z" />
    <glyph glyph-name="three.tf" horiz-adv-x="572" 
d="M321.08 414.15c109.74 -13.9902 184.56 -99.8604 184.56 -208.771c0 -126.56 -97.8301 -217.21 -225.13 -217.21c-124.39 0 -214.3 85.3896 -220.56 206.34h81.3496c5.34961 -75.71 60.8896 -126.81 139.21 -126.81c82.3203 0 141.95 59.4502 141.95 140.42
c0 81.6299 -63.7998 140.25 -152.04 140.25h-74.46v17.2998l150.23 223.45h-263.72v75.8799h396.43v-19.1299z" />
    <glyph glyph-name="four.tf" horiz-adv-x="572" 
d="M527.64 213.53l0.000976562 -73.1299h-71.6699v-140.4h-78.6104v140.4h-340.45v19.2998l233.66 505.3h84.1797l-209.87 -451.47h233.53l13.5498 205.43h64.0098v-205.43h71.6699z" />
    <glyph glyph-name="five.tf" horiz-adv-x="572" 
d="M278.07 420.6c133.74 0 229.74 -94.0098 229.74 -215.399c0 -125.56 -96.9102 -217.04 -222.391 -217.04c-126.21 0 -217.95 87.21 -222.38 206.34h82.2598c4.42969 -74.7998 61.7998 -126.8 140.12 -126.8c79.5898 0 139.21 58.4502 139.21 137.51
c0 80.7998 -63.7998 141.34 -149.3 141.34h-168.21l-13.3896 13.2998l33.5703 305.15h334.77v-74.96h-266.38l-18.5703 -169.44h100.95z" />
    <glyph glyph-name="six.tf" horiz-adv-x="572" 
d="M306.37 432.63c126.91 0 226.391 -92.6406 226.391 -218.03c0 -131.95 -99.3896 -226.34 -237.34 -226.34c-139.68 0 -239.16 94.4697 -239.16 226.34c0 63.6504 25.3496 139.051 73.0898 221.221l133.17 233.31h90.5596
c-92.4297 -163.37 -121.939 -215.33 -143.84 -258.43c30.46 14.3398 63.5195 21.9297 97.1299 21.9297zM294.51 67.7793c89.7998 0 155.069 62.0898 155.069 146.81c0 84.71 -65.2695 145.81 -155.069 145.81s-155.069 -62 -155.069 -145.8
s65.2695 -146.819 155.069 -146.819z" />
    <glyph glyph-name="seven.tf" horiz-adv-x="572" 
d="M62.3799 665h450.641v-14.4805l-262.57 -650.52h-85.2598l240.22 589.12h-343.03v75.8799z" />
    <glyph glyph-name="eight.tf" horiz-adv-x="572" 
d="M426.69 358.09c57.8799 -30.4404 95.25 -93.1611 95.25 -164.581c0 -120.13 -97.2197 -205.34 -236.43 -205.34c-141.04 0 -235.51 82.4805 -235.51 205.341c0 69.7803 37.4697 132.101 96.2695 164.48c-44.0996 29.8604 -72.4893 84.5107 -72.4893 143.11
c0 105.95 85.96 179.16 211.729 179.16s210.81 -72.2998 210.81 -179.16c0 -59.7402 -27.9102 -115.03 -69.6299 -143.011zM285.511 609.858c-77.71 0 -130.38 -44.4902 -130.38 -108.76c0 -64.6299 52.75 -109.2 130.38 -109.2c77.6201 0 130.38 44.5703 130.38 109.2
c0 64.2695 -52.6699 108.76 -130.38 108.76zM285.511 61.3086c91.2402 0 153.24 52.8398 153.24 129.46c0 77.0596 -62 129.81 -153.24 129.81s-153.24 -52.75 -153.24 -129.81c0 -76.6201 62 -129.46 153.24 -129.46z" />
    <glyph glyph-name="nine.tf" horiz-adv-x="572" 
d="M277.42 680c139.69 0 239.16 -94.4795 239.16 -226.34c0 -63.6504 -25.2598 -138.141 -73.0801 -221.221l-133.18 -233.32h-90.5596c91.5996 161.91 121.409 214.891 143.249 257.671c-30.5996 -14.25 -63.4697 -21.1699 -96.54 -21.1699
c-117.78 0 -227.3 86.2598 -227.3 218.04c0 131.95 100.3 226.34 238.25 226.34zM278.33 307.851c89.7998 0 155.99 62.0195 155.99 145.819s-66.1904 146.8 -155.99 146.8s-155.979 -62.0996 -155.979 -146.81s66.1797 -145.81 155.979 -145.81z" />
    </font>
</defs>
</svg>
